<?xml version="1.0" encoding="iso-8859-1"?>
<!-- Generator: Adobe Illustrator 21.0.2, SVG Export Plug-In . SVG Version: 6.00 Build 0)  -->
<svg version="1.1" id="back_1_" opacity="0.902" xmlns="http://www.w3.org/2000/svg" xmlns:xlink="http://www.w3.org/1999/xlink"
	 x="0px" y="0px" viewBox="0 0 40 40" style="enable-background:new 0 0 40 40;" xml:space="preserve">
<g id="back">
	<g>
		<path style="fill-rule:evenodd;clip-rule:evenodd;fill:#C2C6C9;" d="M30,0H10C4.477,0,0,4.477,0,10v20c0,5.523,4.477,10,10,10h20
			c5.523,0,10-4.477,10-10V10C40,4.477,35.523,0,30,0z M28.713,21.713c-0.388,0.388-1.017,0.388-1.404,0L21,15.404V31
			c0,0.552-0.448,1-1,1s-1-0.448-1-1V15.414l-5.828,5.828c-0.391,0.391-1.024,0.391-1.414,0c-0.391-0.391-0.391-1.024,0-1.414
			l7.071-7.071C19.219,12.367,19.35,11.994,20,12c0.734,0.007,1.213,0.676,1.691,1.287l7.022,7.022
			C29.101,20.697,29.101,21.326,28.713,21.713z M30,10H11c-0.552,0-1-0.448-1-1c0-0.552,0.448-1,1-1h19c0.552,0,1,0.448,1,1
			C31,9.552,30.552,10,30,10z"/>
	</g>
</g>
</svg>
