<?xml version="1.0" standalone="no"?>
<!DOCTYPE svg PUBLIC "-//W3C//DTD SVG 1.1//EN" "http://www.w3.org/Graphics/SVG/1.1/DTD/svg11.dtd" >
<svg xmlns="http://www.w3.org/2000/svg">
<metadata>Generated by IcoMoon</metadata>
<defs>
<font id="plx-icons" horiz-adv-x="1024">
<font-face units-per-em="1024" ascent="960" descent="-64" />
<missing-glyph horiz-adv-x="1024" />
<glyph unicode="&#x20;" horiz-adv-x="512" d="" />
<glyph unicode="&#xe900;" glyph-name="all-selected-16" d="M800 844.8h-512c-52.907 0-96-43.093-96-96v-512c0-52.907 43.093-96 96-96h512c52.907 0 96 43.093 96 96v512c0 52.907-43.093 96-96 96zM832 236.8c0-17.707-14.293-32-32-32h-512c-17.707 0-32 14.293-32 32v512c0 17.707 14.293 32 32 32h512c17.707 0 32-14.293 32-32v-512zM672 12.8c17.707 0 32 14.293 32 32s-14.293 32-32 32h-512c-17.707 0-32 14.293-32 32v512c0 17.707-14.293 32-32 32s-32-14.293-32-32v-512c0-52.907 43.093-96 96-96h512zM712.32 642.347l-179.84-197.973-92.907 101.227c-12.053 13.013-32.32 13.867-45.227 1.92-13.013-11.947-13.867-32.213-1.92-45.227l116.587-127.040c6.080-6.613 14.613-10.347 23.573-10.347 0 0 0.107 0 0.107 0 8.96 0 17.493 3.84 23.573 10.453l203.413 223.787c11.84 13.12 10.88 33.387-2.133 45.227-13.12 11.947-33.28 11.093-45.227-2.027z" />
<glyph unicode="&#xe901;" glyph-name="arrow-down-16" d="M137.387 515.413c-12.48-12.48-12.48-32.747 0-45.227l320-320c6.293-6.293 14.4-9.387 22.613-9.387s16.427 3.093 22.613 9.387l320 320c12.48 12.48 12.48 32.747 0 45.227s-32.747 12.48-45.227 0l-265.387-265.387v562.773c0 17.707-14.293 32-32 32s-32-14.293-32-32v-562.773l-265.387 265.387c-12.48 12.48-32.747 12.48-45.227 0z" />
<glyph unicode="&#xe902;" glyph-name="arrow-left-16" d="M137.387 470.187l320-320c6.293-6.293 14.4-9.387 22.613-9.387s16.427 3.093 22.613 9.387c12.48 12.48 12.48 32.747 0 45.227l-265.387 265.387h562.773c17.707 0 32 14.293 32 32s-14.293 32-32 32h-562.773l265.387 265.387c12.48 12.48 12.48 32.747 0 45.227s-32.747 12.48-45.227 0l-320-320c-12.48-12.48-12.48-32.747 0-45.227z" />
<glyph unicode="&#xe903;" glyph-name="arrow-right-16" d="M128 492.8c0-17.707 14.293-32 32-32h562.773l-265.387-265.387c-12.48-12.48-12.48-32.747 0-45.227 6.293-6.293 14.4-9.387 22.613-9.387s16.427 3.093 22.613 9.387l320 320c12.48 12.48 12.48 32.747 0 45.227l-320 320c-12.48 12.48-32.747 12.48-45.227 0s-12.48-32.747 0-45.227l265.387-265.387h-562.773c-17.707 0-32-14.293-32-32z" />
<glyph unicode="&#xe904;" glyph-name="arrow-up-16" d="M480 140.8c17.707 0 32 14.293 32 32v562.773l265.387-265.387c6.293-6.293 14.4-9.387 22.613-9.387s16.427 3.093 22.613 9.387c12.48 12.48 12.48 32.747 0 45.227l-320 320c-12.48 12.48-32.747 12.48-45.227 0l-320-320c-12.48-12.48-12.48-32.747 0-45.227s32.747-12.48 45.227 0l265.387 265.387v-562.773c0-17.707 14.293-32 32-32z" />
<glyph unicode="&#xe905;" glyph-name="bell-20" d="M915.093 288.427c-17.92 28.587-42.667 50.347-69.333 71.040v185.92c0 64.747-20.48 126.293-59.093 177.92-34.027 45.547-79.467 80-132.16 100.48-8.213 26.88-24 51.2-45.547 69.653-26.88 23.147-61.333 35.84-96.853 35.84s-69.973-12.693-96.853-35.84c-21.547-18.56-37.333-42.773-45.547-69.653-52.693-20.48-98.133-55.040-132.16-100.48-38.72-51.733-59.093-113.28-59.093-177.92v-185.92c-26.667-20.587-51.413-42.347-69.333-71.040-21.333-33.92-31.253-74.773-31.253-128.533 0-17.707 14.293-32 32-32h213.76c11.947-34.24 33.173-65.067 61.44-88.427 35.627-29.44 80.747-45.653 127.147-45.653s91.413 16.213 127.147 45.653c28.267 23.36 49.493 54.080 61.44 88.427h213.76c17.707 0 32 14.293 32 32-0.213 53.76-10.133 94.613-31.467 128.533zM512 57.707c-50.24 0-95.36 27.84-118.72 70.080h237.547c-23.467-42.133-68.587-70.080-118.827-70.080zM143.253 191.893c6.933 63.36 36.16 88.533 86.187 126.187 8 6.080 12.8 15.467 12.8 25.6v201.707c0 102.080 66.027 192 164.16 223.68 11.413 3.627 19.733 13.333 21.76 25.173 6.933 41.28 42.133 71.147 83.84 71.147s76.907-29.973 83.84-71.147c2.027-11.84 10.347-21.547 21.76-25.173 98.24-31.68 164.16-121.6 164.16-223.68v-201.813c0-10.027 4.693-19.52 12.8-25.6 50.027-37.653 79.36-62.827 86.187-126.187l-737.493 0.107z" />
<glyph unicode="&#xe906;" glyph-name="calendar-16" d="M800 780.8h-96v32c0 17.707-14.293 32-32 32s-32-14.293-32-32v-32h-256v32c0 17.707-14.293 32-32 32s-32-14.293-32-32v-32h-96c-52.907 0-96-43.093-96-96v-512c0-52.907 43.093-96 96-96h576c52.907 0 96 43.093 96 96v512c0 52.907-43.093 96-96 96zM224 716.8h96v-32c0-17.707 14.293-32 32-32s32 14.293 32 32v32h256v-32c0-17.707 14.293-32 32-32s32 14.293 32 32v32h96c17.707 0 32-14.4 32-32v-96h-640v96c0 17.6 14.293 32 32 32zM800 140.8h-576c-17.707 0-32 14.4-32 32v352h640v-352c0-17.6-14.293-32-32-32zM352 460.8h-64c-17.707 0-32-14.293-32-32s14.293-32 32-32h64c17.707 0 32 14.293 32 32s-14.293 32-32 32zM352 268.8h-64c-17.707 0-32-14.293-32-32s14.293-32 32-32h64c17.707 0 32 14.293 32 32s-14.293 32-32 32zM544 460.8h-64c-17.707 0-32-14.293-32-32s14.293-32 32-32h64c17.707 0 32 14.293 32 32s-14.293 32-32 32zM544 268.8h-64c-17.707 0-32-14.293-32-32s14.293-32 32-32h64c17.707 0 32 14.293 32 32s-14.293 32-32 32zM736 460.8h-64c-17.707 0-32-14.293-32-32s14.293-32 32-32h64c17.707 0 32 14.293 32 32s-14.293 32-32 32zM736 268.8h-64c-17.707 0-32-14.293-32-32s14.293-32 32-32h64c17.707 0 32 14.293 32 32s-14.293 32-32 32z" />
<glyph unicode="&#xe907;" glyph-name="close-16" d="M760.853 709.653c-12.48 12.48-32.747 12.48-45.227 0l-203.627-203.627-203.627 203.627c-12.48 12.48-32.747 12.48-45.227 0s-12.48-32.747 0-45.227l203.627-203.627-203.627-203.627c-12.48-12.48-12.48-32.747 0-45.227 6.293-6.293 14.4-9.387 22.613-9.387s16.427 3.093 22.613 9.387l203.627 203.627 203.627-203.627c6.293-6.293 14.4-9.387 22.613-9.387s16.427 3.093 22.613 9.387c12.48 12.48 12.48 32.747 0 45.227l-203.627 203.627 203.627 203.627c12.587 12.48 12.587 32.747 0 45.227z" />
<glyph unicode="&#xe908;" glyph-name="code-16" d="M339.307 640c-12.48 12.48-32.747 12.48-45.227 0l-156.693-156.587c-5.973-5.973-9.387-14.080-9.387-22.613s3.413-16.64 9.387-22.613l156.693-156.587c6.293-6.293 14.4-9.387 22.613-9.387s16.427 3.093 22.613 9.387c12.48 12.48 12.48 32.747 0 45.227l-134.080 133.973 134.080 133.973c12.48 12.48 12.48 32.747 0 45.227zM729.92 640c-12.48 12.48-32.747 12.48-45.227 0s-12.48-32.747 0-45.227l134.080-133.973-134.080-133.973c-12.48-12.48-12.48-32.747 0-45.227 6.293-6.293 14.4-9.387 22.613-9.387s16.427 3.093 22.613 9.387l156.693 156.587c5.973 5.973 9.387 14.080 9.387 22.613s-3.413 16.64-9.387 22.613l-156.693 156.587zM587.84 650.453c-16.213 6.613-34.987-1.387-41.6-17.813l-128-320c-6.613-16.427 1.387-34.987 17.813-41.6 3.84-1.6 7.893-2.347 11.84-2.347 12.693 0 24.747 7.573 29.76 20.16l128 320c6.613 16.427-1.387 35.093-17.813 41.6z" />
<glyph unicode="&#xe909;" glyph-name="code-f-16" d="M864 780.8h-704c-52.907 0-96-43.093-96-96v-448c0-52.907 43.093-96 96-96h704c52.907 0 96 43.093 96 96v448c0 52.907-43.093 96-96 96zM358.933 326.827c12.48-12.48 12.48-32.747 0-45.227-6.293-6.293-14.4-9.387-22.613-9.387s-16.427 3.093-22.613 9.387l-156.693 156.587c-12.48 12.48-12.48 32.747 0 45.227l156.693 156.587c12.48 12.48 32.747 12.48 45.227 0s12.48-32.747 0-45.227l-133.973-133.973 133.973-133.973zM605.653 608.96l-128-320c-5.013-12.48-16.96-20.16-29.653-20.16-3.947 0-8 0.747-11.84 2.347-16.427 6.613-24.427 25.173-17.813 41.6l128 320c6.613 16.427 25.28 24.427 41.6 17.813s24.32-25.28 17.707-41.6zM866.987 438.187l-156.693-156.587c-6.293-6.293-14.4-9.387-22.613-9.387s-16.427 3.093-22.613 9.387c-12.48 12.48-12.48 32.747 0 45.227l133.973 133.973-133.973 133.973c-12.48 12.48-12.48 32.747 0 45.227s32.747 12.48 45.227 0l156.587-156.587c12.587-12.48 12.587-32.747 0.107-45.227z" />
<glyph unicode="&#xe90a;" glyph-name="copy-16" d="M800 844.8h-512c-52.907 0-96-43.093-96-96v-512c0-52.907 43.093-96 96-96h512c52.907 0 96 43.093 96 96v512c0 52.907-43.093 96-96 96zM832 236.8c0-17.707-14.293-32-32-32h-512c-17.707 0-32 14.293-32 32v512c0 17.707 14.293 32 32 32h512c17.707 0 32-14.293 32-32v-512zM672 12.8c17.707 0 32 14.293 32 32s-14.293 32-32 32h-512c-17.707 0-32 14.293-32 32v512c0 17.707-14.293 32-32 32s-32-14.293-32-32v-512c0-52.907 43.093-96 96-96h512zM736 524.8h-160v160c0 17.707-14.293 32-32 32s-32-14.293-32-32v-160h-160c-17.707 0-32-14.293-32-32s14.293-32 32-32h160v-160c0-17.707 14.293-32 32-32s32 14.293 32 32v160h160c17.707 0 32 14.293 32 32s-14.293 32-32 32z" />
<glyph unicode="&#xe90b;" glyph-name="delete-16" d="M864 716.8h-157.12l-61.333 111.467c-5.547 10.24-16.32 16.533-27.947 16.533h-211.2c-11.627 0-22.4-6.293-28.053-16.533l-61.227-111.467h-157.12c-17.707 0-32-14.293-32-32s14.293-32 32-32h32v-480c0-52.907 43.093-96 96-96h448c52.907 0 96 43.093 96 96v480h32c17.707 0 32 14.293 32 32s-14.293 32-32 32zM425.28 780.8h173.333l35.2-64h-243.733l35.2 64zM768 172.8c0-17.707-14.293-32-32-32h-448c-17.707 0-32 14.293-32 32v480h512v-480zM416 588.8c-17.707 0-32-14.293-32-32v-320c0-17.707 14.293-32 32-32s32 14.293 32 32v320c0 17.707-14.293 32-32 32zM608 588.8c-17.707 0-32-14.293-32-32v-320c0-17.707 14.293-32 32-32s32 14.293 32 32v320c0 17.707-14.293 32-32 32z" />
<glyph unicode="&#xe90c;" glyph-name="detail-16" d="M224 76.8h576c52.907 0 96 43.093 96 96v576c0 52.907-43.093 96-96 96h-576c-52.907 0-96-43.093-96-96v-576c0-52.907 43.093-96 96-96zM192 748.8c0 17.707 14.293 32 32 32h576c17.707 0 32-14.293 32-32v-576c0-17.707-14.293-32-32-32h-576c-17.707 0-32 14.293-32 32v576zM544 652.8h192c17.707 0 32 14.293 32 32s-14.293 32-32 32h-192c-17.707 0-32-14.293-32-32s14.293-32 32-32zM544 524.8h192c17.707 0 32 14.293 32 32s-14.293 32-32 32h-192c-17.707 0-32-14.293-32-32s14.293-32 32-32zM544 204.8h192c17.707 0 32 14.293 32 32s-14.293 32-32 32h-192c-17.707 0-32-14.293-32-32s14.293-32 32-32zM544 332.8h192c17.707 0 32 14.293 32 32s-14.293 32-32 32h-192c-17.707 0-32-14.293-32-32s14.293-32 32-32zM288 524.8h128c17.707 0 32 14.293 32 32v128c0 17.707-14.293 32-32 32h-128c-17.707 0-32-14.293-32-32v-128c0-17.707 14.293-32 32-32zM320 652.8h64v-64h-64v64zM288 204.8h128c17.707 0 32 14.293 32 32v128c0 17.707-14.293 32-32 32h-128c-17.707 0-32-14.293-32-32v-128c0-17.707 14.293-32 32-32zM320 332.8h64v-64h-64v64z" />
<glyph unicode="&#xe90d;" glyph-name="double-left-16" d="M301.227 492.8l233.387 233.387c12.48 12.48 12.48 32.747 0 45.227s-32.747 12.48-45.227 0l-256-256c-12.48-12.48-12.48-32.747 0-45.227l256-256c6.293-6.293 14.4-9.387 22.613-9.387s16.427 3.093 22.613 9.387c12.48 12.48 12.48 32.747 0 45.227l-233.387 233.387zM822.613 771.413c-12.48 12.48-32.747 12.48-45.227 0l-256-256c-12.48-12.48-12.48-32.747 0-45.227l256-256c6.293-6.293 14.4-9.387 22.613-9.387s16.427 3.093 22.613 9.387c12.48 12.48 12.48 32.747 0 45.227l-233.387 233.387 233.387 233.387c12.48 12.48 12.48 32.747 0 45.227z" />
<glyph unicode="&#xe90e;" glyph-name="double-right-16" d="M566.613 771.413c-12.48 12.48-32.747 12.48-45.227 0s-12.48-32.747 0-45.227l233.387-233.387-233.387-233.387c-12.48-12.48-12.48-32.747 0-45.227 6.293-6.293 14.4-9.387 22.613-9.387s16.427 3.093 22.613 9.387l256 256c12.48 12.48 12.48 32.747 0 45.227l-256 256zM534.613 515.413l-256 256c-12.48 12.48-32.747 12.48-45.227 0s-12.48-32.747 0-45.227l233.387-233.387-233.387-233.387c-12.48-12.48-12.48-32.747 0-45.227 6.293-6.293 14.4-9.387 22.613-9.387s16.427 3.093 22.613 9.387l256 256c12.48 12.48 12.48 32.747 0 45.227z" />
<glyph unicode="&#xe90f;" glyph-name="down-16" d="M457.387 342.187c6.293-6.293 14.4-9.387 22.613-9.387s16.427 3.093 22.613 9.387l256 256c12.48 12.48 12.48 32.747 0 45.227s-32.747 12.48-45.227 0l-233.387-233.387-233.387 233.387c-12.48 12.48-32.747 12.48-45.227 0s-12.48-32.747 0-45.227l256-256z" />
<glyph unicode="&#xe910;" glyph-name="download-16" d="M512 844.8c-17.707 0-32-14.293-32-32v-525.867l-169.707 164.8c-12.693 12.267-32.96 12.053-45.227-0.64s-12.053-32.853 0.64-45.227l178.453-173.333c17.813-17.813 41.173-26.56 64.533-27.413 1.173-0.107 2.133-0.64 3.307-0.64 0 0 0 0 0.107 0s0 0 0.107 0c24.533 0 48.96 9.28 67.413 27.733l178.773 173.653c12.693 12.373 12.907 32.64 0.64 45.227-12.267 12.693-32.533 12.907-45.227 0.64l-169.813-164.8v525.867c0 17.707-14.293 32-32 32zM864 396.8c-17.707 0-32-14.293-32-32v-224h-640v224c0 17.707-14.293 32-32 32s-32-14.293-32-32v-256c0-17.707 14.293-32 32-32h704c17.707 0 32 14.293 32 32v256c0 17.707-14.293 32-32 32z" />
<glyph unicode="&#xe911;" glyph-name="empty-16" d="M894.72 373.653l-128 448c-3.947 13.653-16.427 23.147-30.72 23.147h-448c-14.293 0-26.773-9.493-30.72-23.147l-128-448c-0.427-1.493-0.107-2.88-0.32-4.373s-0.853-2.88-0.853-4.48v-256c0-17.707 14.293-32 32-32h704c17.707 0 32 14.293 32 32v256c0 1.6-0.64 2.987-0.853 4.48-0.32 1.493-0.107 2.88-0.533 4.373zM312.107 780.8h399.787l109.76-384h-181.653c-17.707 0-32-14.293-32-32 0-52.907-43.093-96-96-96s-96 43.093-96 96c0 17.707-14.293 32-32 32h-181.547l109.653 384zM832 140.8h-640v192h163.2c14.827-72.96 79.573-128 156.8-128s141.973 55.040 156.8 128h163.2v-192z" />
<glyph unicode="&#xe912;" glyph-name="export-16" d="M467.52 437.547c-28.587-99.947-17.493-200.213-17.067-204.48 1.92-16.32 15.787-28.373 31.787-28.373 1.28 0 2.453 0.107 3.733 0.213 17.6 2.027 30.080 17.813 28.16 35.413-0.107 0.853-10.027 92.16 14.933 179.627 44.373 155.093 212.693 209.387 287.893 226.133l-79.68-228.907c-5.76-16.64 3.093-34.987 19.733-40.747 3.413-1.173 7.040-1.813 10.453-1.813 13.227 0 25.6 8.32 30.293 21.44l81.707 234.987c6.933 18.987 7.36 38.827 2.56 57.067 0 0.107 0 0.107 0 0.213-0.533 4.907-2.347 9.28-4.8 13.227-10.027 23.573-29.12 43.093-54.72 52.373l-232.853 88.747c-16.427 6.293-34.987-1.92-41.28-18.56-6.293-16.533 2.027-34.987 18.453-41.28l210.56-80.213c-95.36-24.96-260.587-92.373-309.867-265.067zM864 396.8c-17.707 0-32-14.293-32-32v-224h-640v224c0 17.707-14.293 32-32 32s-32-14.293-32-32v-256c0-17.707 14.293-32 32-32h704c17.707 0 32 14.293 32 32v256c0 17.707-14.293 32-32 32z" />
<glyph unicode="&#xe913;" glyph-name="export-other-16" d="M412.907 268.8c1.28 0 2.453 0.107 3.733 0.213 17.6 1.92 30.080 17.813 28.16 35.413-0.107 0.853-10.027 92.16 14.933 179.52 44.373 155.093 212.693 209.387 287.893 226.133l-79.68-229.013c-5.76-16.64 3.093-34.987 19.733-40.747 3.413-1.173 7.040-1.707 10.453-1.707 13.227 0 25.6 8.213 30.293 21.547l81.707 234.987c6.933 18.987 7.36 38.827 2.56 57.067 0 0.107 0 0.107 0 0.213-0.533 4.907-2.347 9.28-4.8 13.227-10.027 23.467-29.12 43.093-54.72 52.373l-232.747 88.64c-16.32 6.187-34.987-1.92-41.28-18.453s2.027-34.987 18.453-41.28l210.667-80.213c-95.36-25.067-260.693-92.48-309.973-265.067-28.587-100.053-17.493-200.213-17.067-204.48 1.813-16.32 15.68-28.373 31.68-28.373zM544 204.8h-352v224c0 17.707-14.293 32-32 32s-32-14.293-32-32v-256c0-17.707 14.293-32 32-32h384c17.707 0 32 14.293 32 32s-14.293 32-32 32zM768 300.8c-70.613 0-128-57.387-128-128s57.387-128 128-128 128 57.387 128 128-57.387 128-128 128zM768 108.8c-35.307 0-64 28.693-64 64s28.693 64 64 64 64-28.693 64-64-28.693-64-64-64z" />
<glyph unicode="&#xe914;" glyph-name="eye-16" d="M512 716.8c-216.96 0-330.667-143.68-369.493-205.44-19.733-31.253-19.627-70.080 0.107-101.227 38.933-61.653 152.96-205.333 369.387-205.333s330.347 143.573 369.28 205.227c19.84 31.253 19.84 70.187-0.107 101.547-39.147 61.653-153.6 205.227-369.173 205.227zM827.2 444.267c-41.387-65.6-137.28-175.467-315.2-175.467s-273.92 109.973-315.307 175.573c-6.613 10.24-6.613 22.613-0.107 32.853 41.28 65.6 137.067 175.573 315.413 175.573 177.28 0 273.6-109.973 315.2-175.467 6.507-10.453 6.507-22.72 0-33.067zM512 620.8c-88.213 0-160-71.787-160-160s71.787-160 160-160 160 71.787 160 160-71.787 160-160 160zM512 364.8c-52.907 0-96 43.093-96 96s43.093 96 96 96 96-43.093 96-96-43.093-96-96-96z" />
<glyph unicode="&#xe915;" glyph-name="eye-closed-16" d="M182.613 835.413c-12.48 12.48-32.747 12.48-45.227 0s-12.48-32.747 0-45.227l704-704c6.293-6.293 14.4-9.387 22.613-9.387s16.427 3.093 22.613 9.387c12.48 12.48 12.48 32.747 0 45.227l-704 704zM512 620.8c-7.573 0-14.72-1.173-21.973-2.24l179.84-179.84c1.067 7.253 2.24 14.507 2.24 21.973-0.107 88.32-71.893 160.107-160.107 160.107zM533.973 303.040l-179.733 179.733c-1.067-7.253-2.24-14.507-2.24-21.973 0-88.213 71.787-160 160-160 7.573 0 14.72 1.173 21.973 2.24zM512 716.8c-37.227 0-72.32-5.653-106.347-13.867l54.293-54.293c17.067 2.24 34.133 4.16 52.053 4.16 177.28 0 273.6-109.973 315.2-175.467 6.613-10.347 6.613-22.72 0-33.067-16.107-25.6-40.853-57.707-75.2-87.68l44.8-44.8c40.96 36.267 69.013 73.707 84.48 98.24 19.84 31.36 19.84 70.187-0.107 101.547-39.147 61.76-153.6 205.227-369.173 205.227zM272.107 564.907l-45.227 45.227c-40.427-35.733-68.267-73.067-84.373-98.773-19.733-31.253-19.627-70.080 0.107-101.227 38.933-61.653 152.96-205.333 369.387-205.333 39.147 0 73.707 5.867 106.347 13.973l-54.080 54.080c-16.747-2.24-33.813-4.053-52.267-4.053-177.92 0-273.92 109.973-315.307 175.573-6.507 10.24-6.613 22.613 0 32.96 14.293 22.827 39.040 56 75.413 87.573z" />
<glyph unicode="&#xe916;" glyph-name="file-16" d="M832 620.8c0 4.267-0.853 8.427-2.453 12.267-1.6 3.947-3.947 7.36-6.933 10.347l-256 256c-2.987 2.987-6.4 5.333-10.347 6.933-3.84 1.6-8 2.453-12.267 2.453h-320c-17.707 0-32-14.293-32-32v-768c0-17.707 14.293-32 32-32h576c17.707 0 32 14.293 32 32v512zM576 799.573l146.773-146.773h-146.773v146.773zM256 140.8v704h256v-224c0-17.707 14.293-32 32-32h224v-448h-512zM672 524.8h-320c-17.707 0-32-14.293-32-32s14.293-32 32-32h320c17.707 0 32 14.293 32 32s-14.293 32-32 32zM672 332.8h-320c-17.707 0-32-14.293-32-32s14.293-32 32-32h320c17.707 0 32 14.293 32 32s-14.293 32-32 32z" />
<glyph unicode="&#xe917;" glyph-name="filter-16" d="M888.64 812.48c-10.667 19.947-31.36 32.32-54.080 32.32h-645.333c-22.613 0-43.307-12.373-54.080-32.32-10.773-20.053-9.6-44.16 2.987-63.040l224.533-336.533v-157.44c0-20.48 10.24-39.573 27.307-50.987l176.107-117.44c10.133-6.72 21.867-10.24 33.92-10.24 10.027 0 20.053 2.56 29.013 7.36 19.947 10.667 32.32 31.36 32.32 54.080v274.667l224.32 336.533c12.587 18.88 13.76 43.093 2.987 63.040zM597.333 432.32l1.387-290.133-172.053 113.28v176.853l-237.333 348.48 643.093 4.16-235.093-352.64z" />
<glyph unicode="&#xe918;" glyph-name="filter-f-16" d="M133.333 795.093l250.667-375.893v-182.4c0-10.667 5.333-20.693 14.293-26.667l192-128c5.333-3.52 11.52-5.333 17.707-5.333 5.227 0 10.347 1.28 15.147 3.84 10.347 5.547 16.853 16.427 16.853 28.16v310.293l250.667 375.893c6.613 9.813 7.147 22.4 1.6 32.853-5.547 10.347-16.427 16.853-28.16 16.853h-704.107c-11.84 0-22.613-6.507-28.16-16.853-5.653-10.347-5.013-22.933 1.493-32.747z" />
<glyph unicode="&#xe919;" glyph-name="folder-16" d="M800 780.8h-357.547c-8.427 0-16.64 3.413-22.613 9.387l-26.453 26.453c-18.133 18.133-42.24 28.16-67.84 28.16h-101.547c-52.907 0-96-43.093-96-96v-512c0-52.907 43.093-96 96-96h576c52.907 0 96 43.093 96 96v448c0 52.907-43.093 96-96 96zM224 780.8h101.547c8.427 0 16.64-3.413 22.613-9.387l26.453-26.453c18.133-18.133 42.24-28.16 67.84-28.16h357.547c17.707 0 32-14.293 32-32v-32h-640v96c0 17.707 14.293 32 32 32zM800 204.8h-576c-17.707 0-32 14.293-32 32v352h640v-352c0-17.707-14.293-32-32-32z" />
<glyph unicode="&#xe91a;" glyph-name="folder-custom-16" d="M800 780.8h-357.547c-8.427 0-16.64 3.413-22.613 9.387l-26.453 26.453c-17.92 17.92-42.667 28.16-67.84 28.16h-101.547c-52.907 0-96-43.093-96-96v-512c0-52.907 43.093-96 96-96h256c17.707 0 32 14.293 32 32s-14.293 32-32 32h-256c-17.6 0-32 14.4-32 32v352h640v-128c0-17.707 14.293-32 32-32s32 14.293 32 32v224c0 52.907-43.093 96-96 96zM192 652.8v96c0 17.6 14.4 32 32 32h101.547c8.427 0 16.64-3.413 22.613-9.387l26.453-26.453c17.92-17.92 42.667-28.16 67.84-28.16h357.547c17.6 0 32-14.4 32-32v-32h-640zM868.587 344.533l-93.973 13.653-42.027 85.12c-10.773 21.76-46.613 21.76-57.387 0l-42.027-85.12-93.76-13.653c-12.053-1.707-22.080-10.24-25.813-21.76s-0.64-24.32 8.107-32.853l67.947-66.24-16.107-93.547c-2.027-12.053 2.88-24.107 12.8-31.253 9.813-7.147 23.040-8.213 33.707-2.453l84.053 44.16 84.053-44.16c4.693-2.453 9.707-3.733 14.827-3.733 6.613 0 13.227 2.027 18.773 6.080 9.92 7.147 14.827 19.2 12.8 31.253l-16.107 93.547 67.947 66.24c8.747 8.533 11.84 21.227 8.107 32.853-3.84 11.733-13.867 20.16-25.92 21.867zM761.707 257.813c-7.573-7.36-10.987-17.92-9.28-28.267l7.893-46.293-41.493 21.76c-4.587 2.453-9.707 3.733-14.827 3.733s-10.24-1.28-14.827-3.733l-41.493-21.76 7.893 46.293c1.707 10.347-1.707 20.907-9.28 28.267l-33.493 32.64 46.4 6.72c10.347 1.6 19.413 8.107 24.107 17.493l20.8 42.027 20.8-42.027c4.587-9.387 13.653-15.893 24.107-17.493l46.4-6.72-33.707-32.64z" />
<glyph unicode="&#xe91b;" glyph-name="folder-open-16" d="M832 587.733v97.067c0 52.907-43.093 96-96 96h-357.547c-8.427 0-16.64 3.413-22.613 9.387l-26.453 26.453c-18.133 18.133-42.24 28.16-67.84 28.16h-101.547c-52.907 0-96-43.093-96-96v-512c0-1.92 0.32-4.267 0.747-6.4 1.173-17.067 6.4-33.813 16.427-48.213 17.92-25.92 47.467-41.28 78.933-41.28h567.253c39.787 0 75.947 25.067 89.92 62.293l96 256c10.987 29.44 6.933 62.507-10.987 88.427-16.32 23.36-42.133 37.547-70.293 40.107zM160 780.8h101.547c8.427 0 16.64-3.413 22.613-9.387l26.453-26.453c18.133-18.133 42.24-28.16 67.84-28.16h357.547c17.707 0 32-14.293 32-32v-96h-511.893c-39.787 0-75.947-25.067-89.92-62.293l-38.187-101.76v324.053c0 17.707 14.293 32 32 32zM853.333 481.6l-96-256c-4.693-12.48-16.747-20.8-29.973-20.8h-567.253c-10.667 0-20.267 5.013-26.347 13.76s-7.36 19.52-3.627 29.44l96 256c4.693 12.48 16.747 20.8 29.973 20.8h567.253c10.667 0 20.267-5.013 26.347-13.76s7.36-19.52 3.627-29.44z" />
<glyph unicode="&#xe91c;" glyph-name="folder-open-custom-16" d="M902.293 547.52c-16.213 23.467-42.133 37.653-70.293 40.213v97.067c0 52.907-43.093 96-96 96h-357.547c-8.427 0-16.64 3.413-22.613 9.387l-26.453 26.453c-18.133 18.133-42.24 28.16-67.84 28.16h-101.547c-52.907 0-96-43.093-96-96v-512c0-1.92 0.32-4.16 0.747-6.293 1.173-17.067 6.293-33.92 16.427-48.427 17.92-25.92 47.467-41.28 78.933-41.28h319.893c17.707 0 32 14.293 32 32s-14.293 32-32 32h-319.893c-10.667 0-20.267 5.013-26.347 13.76s-7.36 19.52-3.627 29.547l96 256c4.693 12.48 16.64 20.8 29.973 20.8h567.253c10.667 0 20.267-5.013 26.347-13.76s7.36-19.52 3.627-29.547c-6.187-16.533 2.24-34.987 18.773-41.173 16.427-6.4 34.987 2.24 41.173 18.667 10.987 29.44 6.933 62.507-10.987 88.427zM166.187 526.507l-38.187-101.76v324.053c0 17.6 14.293 32 32 32h101.547c8.427 0 16.64-3.413 22.613-9.387l26.453-26.453c18.133-18.133 42.24-28.16 67.84-28.16h357.547c17.707 0 32-14.4 32-32v-96h-511.893c-39.787 0-75.947-24.96-89.92-62.293zM868.587 344.533l-93.867 13.653-42.027 85.12c-10.773 21.76-46.613 21.76-57.387 0l-42.027-85.12-93.867-13.653c-12.053-1.707-22.080-10.24-25.813-21.76s-0.64-24.32 8.107-32.853l67.947-66.24-16-93.547c-2.027-12.053 2.88-24.107 12.693-31.253 9.92-7.253 22.933-8.213 33.707-2.453l83.947 44.16 83.947-44.16c4.693-2.453 9.813-3.733 14.933-3.733 6.613 0 13.227 2.027 18.773 6.080 9.813 7.147 14.827 19.2 12.693 31.253l-16 93.547 67.947 66.24c8.747 8.533 11.84 21.227 8.107 32.853-3.733 11.733-13.76 20.16-25.813 21.867zM761.707 257.813c-7.573-7.36-10.987-17.92-9.173-28.267l7.893-46.293-41.493 21.867c-4.693 2.453-9.813 3.733-14.933 3.733s-10.24-1.28-14.933-3.733l-41.493-21.76 7.893 46.293c1.813 10.347-1.707 20.907-9.173 28.267l-33.6 32.64 46.4 6.72c10.453 1.6 19.413 8.107 24.107 17.493l20.8 42.027 20.8-42.027c4.693-9.387 13.653-15.893 24.107-17.493l46.4-6.72-33.6-32.747z" />
<glyph unicode="&#xe91d;" glyph-name="full-grid-16" d="M224 524.8h128c56.533 0 96 39.467 96 96v128c0 56.533-39.467 96-96 96h-128c-56.533 0-96-39.467-96-96v-128c0-56.533 39.467-96 96-96zM192 748.8c0 20.587 11.413 32 32 32h128c20.587 0 32-11.413 32-32v-128c0-20.587-11.413-32-32-32h-128c-20.587 0-32 11.413-32 32v128zM800 844.8h-128c-56.533 0-96-39.467-96-96v-128c0-56.533 39.467-96 96-96h128c56.533 0 96 39.467 96 96v128c0 56.533-39.467 96-96 96zM832 620.8c0-20.587-11.413-32-32-32h-128c-20.587 0-32 11.413-32 32v128c0 20.587 11.413 32 32 32h128c20.587 0 32-11.413 32-32v-128zM224 76.8h128c56.533 0 96 39.467 96 96v128c0 56.533-39.467 96-96 96h-128c-56.533 0-96-39.467-96-96v-128c0-56.533 39.467-96 96-96zM192 300.8c0 20.587 11.413 32 32 32h128c20.587 0 32-11.413 32-32v-128c0-20.587-11.413-32-32-32h-128c-20.587 0-32 11.413-32 32v128zM800 396.8h-128c-56.533 0-96-39.467-96-96v-128c0-56.533 39.467-96 96-96h128c56.533 0 96 39.467 96 96v128c0 56.533-39.467 96-96 96zM832 172.8c0-20.587-11.413-32-32-32h-128c-20.587 0-32 11.413-32 32v128c0 20.587 11.413 32 32 32h128c20.587 0 32-11.413 32-32v-128z" />
<glyph unicode="&#xe91e;" glyph-name="full-grid-f-16" d="M224 556.8h128c38.4 0 64 25.6 64 64v128c0 38.4-25.6 64-64 64h-128c-38.4 0-64-25.6-64-64v-128c0-38.4 25.6-64 64-64zM672 556.8h128c38.4 0 64 25.6 64 64v128c0 38.4-25.6 64-64 64h-128c-38.4 0-64-25.6-64-64v-128c0-38.4 25.6-64 64-64zM224 108.8h128c38.4 0 64 25.6 64 64v128c0 38.4-25.6 64-64 64h-128c-38.4 0-64-25.6-64-64v-128c0-38.4 25.6-64 64-64zM672 108.8h128c38.4 0 64 25.6 64 64v128c0 38.4-25.6 64-64 64h-128c-38.4 0-64-25.6-64-64v-128c0-38.4 25.6-64 64-64z" />
<glyph unicode="&#xe91f;" glyph-name="full-screen-16" d="M160 588.8c17.707 0 32 14.293 32 32v125.547l200.747-211.627c6.293-6.613 14.72-9.92 23.253-9.92 7.893 0 15.893 2.88 22.080 8.747 12.8 12.16 13.333 32.427 1.173 45.227l-191.68 202.027h104.427c17.707 0 32 14.293 32 32s-14.293 32-32 32h-192c-17.707 0-32-14.293-32-32v-192c0-17.707 14.293-32 32-32zM672 780.8h160v-160c0-17.707 14.293-32 32-32s32 14.293 32 32v192c0 17.707-14.293 32-32 32h-192c-17.707 0-32-14.293-32-32s14.293-32 32-32zM160 76.8h192c17.707 0 32 14.293 32 32s-14.293 32-32 32h-160v160c0 17.707-14.293 32-32 32s-32-14.293-32-32v-192c0-17.707 14.293-32 32-32zM787.84 140.8h-115.84c-17.707 0-32-14.293-32-32s14.293-32 32-32h192c17.707 0 32 14.293 32 32v192c0 17.707-14.293 32-32 32s-32-14.293-32-32v-113.6l-194.667 199.893c-12.373 12.8-32.64 13.013-45.227 0.64-12.693-12.373-12.907-32.64-0.64-45.227l196.373-201.707z" />
<glyph unicode="&#xe920;" glyph-name="gear-16" d="M512 620.8c-88.213 0-160-71.787-160-160s71.787-160 160-160 160 71.787 160 160-71.787 160-160 160zM512 364.8c-52.907 0-96 43.093-96 96s43.093 96 96 96 96-43.093 96-96-43.093-96-96-96zM938.987 597.333h-24.853c-0.107 0-0.107 0-0.213 0-34.987 0-66.133 17.707-83.307 47.467-17.28 29.867-16.96 65.813 0.747 96.213l12.48 21.44-17.707 17.493c-53.867 53.12-121.387 92.053-194.987 112.32l-23.893 6.613-12.373-21.547c-17.493-30.4-48.427-48.533-82.88-48.533s-65.387 18.133-82.88 48.64l-12.373 21.547-23.893-6.613c-73.6-20.373-141.12-59.307-195.093-112.427l-17.707-17.493 12.48-21.44c17.707-30.4 18.027-66.347 0.747-96.213-17.173-29.76-48.213-47.467-83.2-47.467-0.107 0-0.107 0-0.213 0h-24.853l-6.187-24c-9.813-37.867-14.827-75.733-14.827-112.533 0-35.093 5.12-71.893 15.787-112.64l6.187-23.787 24.533-0.107c34.773-0.213 65.707-17.92 82.773-47.467 17.067-29.653 16.96-65.387-0.427-95.68l-12.267-21.44 17.6-17.28c54.933-54.080 122.24-93.12 194.667-113.067l23.893-6.613 12.373 21.547c17.493 30.4 48.427 48.533 82.88 48.533s65.387-18.133 82.88-48.64l12.373-21.547 23.893 6.613c73.6 20.373 141.12 59.2 195.093 112.427l17.707 17.493-12.48 21.44c-17.707 30.4-18.027 66.347-0.747 96.213 17.173 29.76 48.32 47.467 83.307 47.467 0.107 0 0.107 0 0.213 0h24.853l6.187 24c9.813 37.867 14.827 75.733 14.827 112.533-0.107 36.8-5.12 74.667-14.933 112.533l-6.187 24zM888.32 386.24c-18.56-2.987-36.587-9.173-53.013-18.24-24.96-13.867-45.76-34.347-60.053-59.2-14.4-24.853-21.653-53.12-21.227-81.813 0.32-18.773 3.947-37.44 10.773-55.040-37.653-32.853-81.6-58.24-129.28-74.347-11.84 14.613-26.133 27.093-42.24 36.693-24.533 14.72-52.587 22.507-81.28 22.507s-56.747-7.787-81.28-22.507c-16.107-9.6-30.4-22.080-42.24-36.693-46.827 16.107-90.773 41.707-128.96 75.2 6.613 17.493 10.133 36.053 10.453 54.827 0.427 28.48-6.933 56.533-21.227 81.28-14.187 24.64-34.773 45.013-59.52 58.88-16.32 9.173-34.24 15.36-52.693 18.453-5.76 26.773-8.533 50.987-8.533 74.667 0 24.32 2.56 49.387 7.68 74.56 18.56 2.987 36.587 9.173 53.013 18.24 24.96 13.867 45.76 34.347 60.053 59.2 14.4 24.853 21.653 53.12 21.227 81.813-0.32 18.773-3.947 37.44-10.773 55.040 37.653 32.853 81.6 58.24 129.28 74.347 11.84-14.613 26.133-27.093 42.24-36.693 24.533-14.72 52.587-22.507 81.28-22.507s56.747 7.787 81.28 22.507c16.107 9.707 30.4 22.187 42.24 36.693 47.573-16.213 91.627-41.493 129.28-74.347-6.72-17.6-10.453-36.267-10.773-55.040-0.533-28.587 6.827-56.853 21.227-81.813 14.293-24.853 35.093-45.227 60.053-59.2 16.427-9.173 34.347-15.253 53.013-18.24 5.12-25.173 7.68-50.24 7.68-74.56 0-24.427-2.56-49.493-7.68-74.667z" />
<glyph unicode="&#xe921;" glyph-name="half-grid-16" d="M224 76.8h128c56.533 0 96 39.467 96 96v576c0 56.533-39.467 96-96 96h-128c-56.533 0-96-39.467-96-96v-576c0-56.533 39.467-96 96-96zM192 748.8c0 20.587 11.413 32 32 32h128c20.587 0 32-11.413 32-32v-576c0-20.587-11.413-32-32-32h-128c-20.587 0-32 11.413-32 32v576zM672 76.8h128c52.907 0 96 43.093 96 96v576c0 56.533-39.467 96-96 96h-128c-56.533 0-96-39.467-96-96v-576c0-56.533 39.467-96 96-96zM640 748.8c0 20.587 11.413 32 32 32h128c20.587 0 32-11.413 32-32v-576c0-19.733-16.64-32-32-32h-128c-20.587 0-32 11.413-32 32v576z" />
<glyph unicode="&#xe922;" glyph-name="half-grid-f-16" d="M224 108.8h128c38.4 0 64 25.6 64 64v576c0 38.4-25.6 64-64 64h-128c-38.4 0-64-25.6-64-64v-576c0-38.4 25.6-64 64-64zM672 108.8h128c32 0 64 25.6 64 64v576c0 38.4-25.6 64-64 64h-128c-38.4 0-64-25.6-64-64v-576c0-38.4 25.6-64 64-64z" />
<glyph unicode="&#xe923;" glyph-name="help-tip-16" d="M863.36 654.613c-21.013 49.6-50.987 94.080-89.173 132.267-38.293 38.187-82.773 68.267-132.267 89.173-51.307 21.76-105.813 32.747-161.92 32.747s-110.613-10.987-161.813-32.64c-49.6-21.013-94.080-50.987-132.267-89.173-38.187-38.293-68.267-82.773-89.173-132.267-21.76-51.307-32.747-105.813-32.747-161.92s10.987-110.613 32.64-161.813c21.013-49.6 50.987-94.080 89.173-132.267 38.293-38.187 82.773-68.267 132.267-89.173 51.307-21.76 105.813-32.747 161.92-32.747s110.613 10.987 161.813 32.64c49.6 21.013 94.080 50.88 132.267 89.173s68.267 82.773 89.173 132.267c21.76 51.307 32.747 105.813 32.747 161.92s-10.987 110.613-32.64 161.813zM480 140.8c-194.133 0-352 157.867-352 352s157.867 352 352 352 352-157.867 352-352-157.867-352-352-352zM519.787 292.587c0-21.974-17.813-39.787-39.787-39.787s-39.787 17.813-39.787 39.787c0 21.974 17.813 39.787 39.787 39.787s39.787-17.813 39.787-39.787zM500.16 716.373c-39.893 2.133-72.853-8.853-97.813-32.427-33.813-31.893-41.387-76.587-43.093-96.107-0.32-1.707-0.427-3.52-0.427-5.44 0-0.533 0-1.067 0-1.6 0-0.96 0-1.813 0-2.24h0.213c1.92-15.893 15.36-28.16 31.787-28.16 16.213 0 29.653 12.16 31.68 27.84h0.32v-0.213c0 0.427 0.96 38.4 23.68 59.627 11.947 11.093 28.373 16 50.347 14.827s36.907-7.787 45.653-20.373c12.267-17.707 9.92-43.307 7.787-50.133-4.16-12.907-12.16-19.307-27.2-30.293-10.133-7.36-21.547-15.68-31.467-27.84-28.267-34.56-35.627-73.493-37.227-84.587-2.453-16.747-3.627-40-3.627-40.96-0.853-17.6 12.8-32.64 30.4-33.493 0.533 0 1.067 0 1.6 0 16.96 0 31.040 13.333 31.893 30.187 0.107 0.213 1.067 21.227 3.093 35.093 1.92 13.76 9.28 35.84 23.36 53.12 4.8 5.867 11.733 10.88 19.733 16.747 16.853 12.267 39.787 29.013 50.453 62.613 6.187 19.627 10.773 66.88-16.213 105.92-14.080 20.373-42.027 45.12-94.933 47.893z" />
<glyph unicode="&#xe924;" glyph-name="help-tip-20" d="M485.547 920.96c-240 0-435.2-195.2-435.2-435.2s195.2-435.2 435.2-435.2 435.2 195.2 435.2 435.2-195.2 435.2-435.2 435.2zM485.547 101.653c-211.733 0-384 172.267-384 384s172.267 384 384 384c211.733 0 384-172.267 384-384s-172.267-384-384-384zM523.947 293.547c0-21.208-17.192-38.4-38.4-38.4s-38.4 17.192-38.4 38.4c0 21.208 17.192 38.4 38.4 38.4s38.4-17.192 38.4-38.4zM504 726.293c-40.533 2.027-73.387-8.853-98.347-32.427-42.987-40.64-43.84-104-43.947-106.667-0.107-14.080 11.2-25.6 25.387-25.707 12.373-1.92 25.6 11.2 25.813 25.28 0 0.427 0.96 44.693 28.053 70.080 14.613 13.653 34.24 19.627 60.373 18.347 26.027-1.387 44.693-9.92 55.573-25.6 14.827-21.44 12.8-51.093 9.6-61.227-5.547-17.28-16.747-25.493-32.32-36.907-10.453-7.573-22.187-16.213-32.107-28.373-28.8-35.2-36.373-74.987-37.973-86.293-2.453-17.6-3.84-43.2-3.84-43.2v0c0-0.213 0-0.533 0-0.747 0-14.187 11.413-25.6 25.6-25.6 13.547 0 24.64 10.56 25.493 23.893v0c0 0.213 1.067 22.827 3.307 38.4 0.853 5.76 5.973 35.52 26.88 61.12 5.867 7.147 13.653 12.8 22.72 19.52 17.92 13.12 40.32 29.547 50.88 62.72 7.253 22.72 8.853 69.76-16.32 105.92-13.76 20.053-41.6 44.693-94.827 47.467z" />
<glyph unicode="&#xe925;" glyph-name="history-16" d="M512 12.8c247.040 0 448 200.96 448 448s-200.96 448-448 448-448-200.96-448-448 200.96-448 448-448zM512 844.8c211.733 0 384-172.267 384-384s-172.267-384-384-384-384 172.267-384 384 172.267 384 384 384zM480.427 455.893c0.213-1.493 0.96-2.773 1.387-4.267 0.747-2.453 1.387-4.8 2.56-6.933 0.747-1.173 1.813-2.133 2.667-3.2 1.6-2.133 3.307-4.053 5.333-5.76 0.32-0.32 0.533-0.747 0.96-0.96l224-160c5.653-4.053 12.16-5.973 18.667-5.973 9.92 0 19.84 4.693 26.027 13.44 10.24 14.4 6.933 34.347-7.467 44.587l-212.8 152.107-30.080 210.453c-2.56 17.493-18.987 29.547-36.16 27.2-17.493-2.453-29.653-18.667-27.2-36.267l32-224c0-0.213 0.107-0.32 0.107-0.427z" />
<glyph unicode="&#xe926;" glyph-name="import-16" d="M265.067 451.093c-12.267-12.693-12.053-32.853 0.64-45.227l178.453-173.333c15.68-15.68 35.627-23.253 56.107-25.813 3.627-1.493 7.573-2.347 11.733-2.347 0 0 0.107 0 0.107 0s0 0 0 0 0 0 0.107 0c1.173 0 2.347 0.107 3.627 0.213 1.28 0.213 2.347 0.853 3.627 1.173 21.973 1.707 43.52 9.707 60.16 26.347l178.773 173.653c12.693 12.373 12.907 32.64 0.64 45.227-12.267 12.693-32.533 12.907-45.227 0.64l-174.293-169.067c-7.040 77.547-13.867 205.547 3.307 265.493 57.28 200.32 322.133 232.64 324.8 232.96 17.6 2.027 30.187 17.813 28.16 35.413-1.92 17.6-17.493 30.080-35.307 28.267-12.587-1.387-310.080-37.12-379.2-279.040-19.733-69.227-13.227-197.547-6.933-273.173l-164.053 159.253c-12.693 12.267-32.96 12.053-45.227-0.64zM864 396.8c-17.707 0-32-14.293-32-32v-224h-640v224c0 17.707-14.293 32-32 32s-32-14.293-32-32v-256c0-17.707 14.293-32 32-32h704c17.707 0 32 14.293 32 32v256c0 17.707-14.293 32-32 32z" />
<glyph unicode="&#xe927;" glyph-name="info-16" d="M480 76.8c-56.107 0-110.613 10.987-161.92 32.747-49.493 20.907-93.973 50.987-132.267 89.173-38.187 38.187-68.16 82.667-89.173 132.267-21.653 51.2-32.64 105.707-32.64 161.813s10.987 110.613 32.747 161.92c20.907 49.493 50.987 93.973 89.173 132.267 38.187 38.187 82.667 68.16 132.267 89.173 51.2 21.653 105.707 32.64 161.813 32.64s110.613-10.987 161.92-32.747c49.493-20.907 93.973-50.987 132.267-89.173 38.187-38.187 68.16-82.667 89.173-132.267 21.653-51.2 32.64-105.707 32.64-161.813s-10.987-110.613-32.747-161.92c-20.907-49.493-50.987-93.973-89.173-132.267s-82.667-68.16-132.267-89.173c-51.2-21.653-105.707-32.64-161.813-32.64zM480 844.8c-194.133 0-352-157.867-352-352s157.867-352 352-352 352 157.867 352 352-157.867 352-352 352zM480 268.8c-17.707 0-32 14.293-32 32v256c0 17.707 14.293 32 32 32s32-14.293 32-32v-256c0-17.707-14.293-32-32-32zM512 684.8c0-17.673-14.327-32-32-32s-32 14.327-32 32c0 17.673 14.327 32 32 32s32-14.327 32-32z" />
<glyph unicode="&#xe928;" glyph-name="info-f-20" d="M484.373 921.6c-239.787 0-434.133-194.347-434.133-434.133s194.347-434.133 434.133-434.133 434.133 194.347 434.133 434.133-194.347 434.133-434.133 434.133zM508.053 281.6c0-14.187-11.413-25.6-25.6-25.6s-25.6 11.413-25.6 25.6v286.72c0 14.187 11.413 25.6 25.6 25.6s25.6-11.413 25.6-25.6v-286.72zM482.347 642.027c-21.227 0-38.4 17.173-38.4 38.4s17.173 38.4 38.4 38.4c21.227 0 38.4-17.173 38.4-38.4 0-21.12-17.173-38.4-38.4-38.4z" />
<glyph unicode="&#xe929;" glyph-name="left-16" d="M630.613 771.413c-12.48 12.48-32.747 12.48-45.227 0l-256-256c-12.48-12.48-12.48-32.747 0-45.227l256-256c6.293-6.293 14.4-9.387 22.613-9.387s16.427 3.093 22.613 9.387c12.48 12.48 12.48 32.747 0 45.227l-233.387 233.387 233.387 233.387c12.48 12.48 12.48 32.747 0 45.227z" />
<glyph unicode="&#xe92a;" glyph-name="lock-16" d="M512 844.8c-105.92 0-192-86.080-192-192v-64h-32c-52.907 0-96-43.093-96-96v-320c0-52.907 43.093-96 96-96h448c52.907 0 96 43.093 96 96v320c0 52.907-43.093 96-96 96h-32v64c0 105.92-86.080 192-192 192zM384 652.8c0 70.613 57.387 128 128 128s128-57.387 128-128v-64h-256v64zM768 492.8v-320c0-17.707-14.4-32-32-32h-448c-17.6 0-32 14.293-32 32v320c0 17.707 14.4 32 32 32h448c17.6 0 32-14.293 32-32zM512 428.8c-17.707 0-32-14.293-32-32v-128c0-17.707 14.293-32 32-32s32 14.293 32 32v128c0 17.707-14.293 32-32 32z" />
<glyph unicode="&#xe92b;" glyph-name="magnifier-16" d="M750.293 267.733c50.88 61.013 81.707 139.52 81.707 225.067 0 194.133-157.867 352-352 352s-352-157.867-352-352 157.867-352 352-352c85.547 0 164.053 30.72 225.067 81.707l136.32-136.32c6.293-6.293 14.4-9.387 22.613-9.387s16.427 3.093 22.613 9.387c12.48 12.48 12.48 32.747 0 45.227l-136.32 136.32zM480 204.8c-158.827 0-288 129.173-288 288s129.173 288 288 288 288-129.173 288-288-129.173-288-288-288z" />
<glyph unicode="&#xe92c;" glyph-name="maximize-16" d="M804.053 835.413h-576c-52.907 0-96-43.093-96-96v-576c0-52.907 43.093-96 96-96h576c52.907 0 96 43.093 96 96v576c0 53.013-43.093 96-96 96zM228.053 771.413h576c17.707 0 32-14.293 32-32v-89.28h-640v89.28c0 17.707 14.293 32 32 32zM804.053 131.413h-576c-17.707 0-32 14.293-32 32v422.72h640v-422.72c0-17.6-14.4-32-32-32z" />
<glyph unicode="&#xe92d;" glyph-name="menu-16" d="M800 844.8h-640c-17.707 0-32-14.293-32-32s14.293-32 32-32h640c17.707 0 32 14.293 32 32s-14.293 32-32 32zM800 524.8h-640c-17.707 0-32-14.293-32-32s14.293-32 32-32h640c17.707 0 32 14.293 32 32s-14.293 32-32 32zM832 172.8c0 17.707-14.293 32-32 32h-640c-17.707 0-32-14.293-32-32s14.293-32 32-32h640c17.707 0 32 14.293 32 32z" />
<glyph unicode="&#xe92e;" glyph-name="message-16" d="M800 780.8h-576c-52.907 0-96-43.093-96-96v-384c0-52.907 43.093-96 96-96h576c52.907 0 96 43.093 96 96v384c0 52.907-43.093 96-96 96zM512 531.84l-264.213 184.96h528.32l-264.107-184.96zM800 268.8h-576c-17.6 0-32 14.293-32 32v376.96l301.653-211.093c0.533-0.427 1.28-0.213 1.92-0.64 5.013-3.093 10.667-5.227 16.533-5.227s11.413 2.027 16.533 5.227c0.64 0.32 1.28 0.213 1.92 0.64l301.44 211.093v-376.96c0-17.707-14.4-32-32-32z" />
<glyph unicode="&#xe92f;" glyph-name="message-20" d="M937.493 776.213h-868.267c-18.24 0-33.067-14.827-33.067-33.067v-561.067c0-18.24 14.827-33.067 33.067-33.067h868.267c18.24 0 33.067 14.827 33.067 33.067v561.067c0 18.24-14.827 33.067-33.067 33.067zM515.733 432.64c-8-4.8-19.84-4.587-27.413 0.64l-338.667 278.933h695.787l-329.707-279.573zM326.4 483.627l-226.24-216.96v403.413l226.24-186.453zM376.213 442.667l72.213-59.52 1.387-1.067c14.4-10.667 32.64-16.64 51.413-16.96 0.427 0 0.853 0 1.28 0 18.24 0 36.16 5.44 50.56 15.467l1.28 0.853 70.827 60.053 238.613-228.48h-727.147l239.573 229.653zM674.24 483.2l232.32 197.013v-419.52l-232.32 222.507z" />
<glyph unicode="&#xe930;" glyph-name="minus-16" d="M736 140.8h-512c-52.907 0-96 43.093-96 96v512c0 52.907 43.093 96 96 96h512c52.907 0 96-43.093 96-96v-512c0-52.907-43.093-96-96-96zM224 780.8c-17.707 0-32-14.4-32-32v-512c0-17.6 14.293-32 32-32h512c17.707 0 32 14.4 32 32v512c0 17.6-14.293 32-32 32h-512zM672 460.8h-384c-17.707 0-32 14.293-32 32s14.293 32 32 32h384c17.707 0 32-14.293 32-32s-14.293-32-32-32z" />
<glyph unicode="&#xe931;" glyph-name="modify-16" d="M892.373 694.080l-146.88 146.88c-12.48 12.48-32.747 12.48-45.227 0l-538.347-538.347c-4.907-4.907-8.107-11.2-9.067-18.133l-24.427-171.307c-1.387-9.92 1.92-20.053 9.067-27.093 6.080-6.080 14.187-9.387 22.613-9.387 1.493 0 2.987 0.107 4.48 0.32l171.307 24.533c6.827 0.96 13.227 4.16 18.133 9.067l440.427 440.427c0 0 0 0 0 0s0 0 0 0l97.813 97.813c5.973 5.973 9.387 14.080 9.387 22.613s-3.307 16.64-9.28 22.613zM316.267 163.413l-118.507-16.96 16.853 118.507 410.453 410.24 101.547-101.547-410.347-410.24zM771.84 618.88l-101.547 101.547 52.587 52.587 101.547-101.547-52.587-52.587zM864 140.8h-384c-17.707 0-32-14.293-32-32s14.293-32 32-32h384c17.707 0 32 14.293 32 32s-14.293 32-32 32z" />
<glyph unicode="&#xe932;" glyph-name="move-16" d="M797.227 605.12c-12.48 12.48-32.747 12.48-45.227 0s-12.48-32.747 0-45.227l36.267-36.267h-274.56v274.24l36.267-36.267c6.293-6.293 14.4-9.387 22.613-9.387s16.427 3.093 22.613 9.387c12.48 12.48 12.48 32.747 0 45.227l-92.373 92.373c-12.48 12.48-32.747 12.48-45.227 0l-89.387-89.387c-12.48-12.48-12.48-32.747 0-45.227s32.747-12.48 45.227 0l36.267 36.267v-277.12h-274.987l36.267 36.267c12.48 12.48 12.48 32.747 0 45.227s-32.747 12.48-45.227 0l-92.373-92.373c-12.48-12.48-12.48-32.747 0-45.227l89.387-89.387c6.293-6.293 14.4-9.387 22.613-9.387s16.427 3.093 22.613 9.387c12.48 12.48 12.48 32.747 0 45.227l-36.267 36.267h277.973v-273.173l-36.267 36.267c-12.48 12.48-32.747 12.48-45.227 0s-12.48-32.747 0-45.227l92.373-92.373c6.293-6.293 14.4-9.387 22.613-9.387s16.427 3.093 22.613 9.387l89.387 89.387c12.48 12.48 12.48 32.747 0 45.227s-32.747 12.48-45.227 0l-36.267-36.267v276.267h271.573l-36.267-36.267c-12.48-12.48-12.48-32.747 0-45.227 6.293-6.293 14.4-9.387 22.613-9.387s16.427 3.093 22.613 9.387l92.373 92.373c12.48 12.48 12.48 32.747 0 45.227l-89.387 89.173z" />
<glyph unicode="&#xe933;" glyph-name="new-16" d="M480 844.8c-17.707 0-32-14.293-32-32v-288h-288c-17.707 0-32-14.293-32-32s14.293-32 32-32h288v-288c0-17.707 14.293-32 32-32s32 14.293 32 32v288h288c17.707 0 32 14.293 32 32s-14.293 32-32 32h-288v288c0 17.707-14.293 32-32 32z" />
<glyph unicode="&#xe934;" glyph-name="pause-16" d="M384 108.8v704c0 17.707-14.293 32-32 32s-32-14.293-32-32v-704c0-17.707 14.293-32 32-32s32 14.293 32 32zM704 108.8v704c0 17.707-14.293 32-32 32s-32-14.293-32-32v-704c0-17.707 14.293-32 32-32s32 14.293 32 32z" />
<glyph unicode="&#xe935;" glyph-name="plus-16" d="M736 844.8h-512c-52.907 0-96-43.093-96-96v-512c0-52.907 43.093-96 96-96h512c52.907 0 96 43.093 96 96v512c0 52.907-43.093 96-96 96zM768 236.8c0-17.6-14.293-32-32-32h-512c-17.707 0-32 14.4-32 32v512c0 17.6 14.293 32 32 32h512c17.707 0 32-14.4 32-32v-512zM672 524.8h-160v160c0 17.707-14.293 32-32 32s-32-14.293-32-32v-160h-160c-17.707 0-32-14.293-32-32s14.293-32 32-32h160v-160c0-17.707 14.293-32 32-32s32 14.293 32 32v160h160c17.707 0 32 14.293 32 32s-14.293 32-32 32z" />
<glyph unicode="&#xe936;" glyph-name="print-16" d="M864 780.8h-96v96c0 17.707-14.293 32-32 32h-448c-17.707 0-32-14.293-32-32v-96h-96c-17.707 0-32-14.293-32-32v-320c0-17.707 14.293-32 32-32h96v-288c0-17.707 14.293-32 32-32h448c17.707 0 32 14.293 32 32v288h96c17.707 0 32 14.293 32 32v320c0 17.707-14.293 32-32 32zM320 844.8h384v-64h-384v64zM704 140.8h-384v384h384v-384zM832 460.8h-64v96c0 17.707-14.293 32-32 32h-448c-17.707 0-32-14.293-32-32v-96h-64v256h640v-256zM608 396.8h-192c-17.707 0-32-14.293-32-32s14.293-32 32-32h192c17.707 0 32 14.293 32 32s-14.293 32-32 32zM608 268.8h-192c-17.707 0-32-14.293-32-32s14.293-32 32-32h192c17.707 0 32 14.293 32 32s-14.293 32-32 32z" />
<glyph unicode="&#xe937;" glyph-name="reduction-16" d="M334.827 588.8h-110.827c-17.707 0-32-14.293-32-32s14.293-32 32-32h192c17.707 0 32 14.293 32 32v192c0 17.707-14.293 32-32 32s-32-14.293-32-32v-118.827l-194.347 204.907c-12.16 12.8-32.427 13.333-45.227 1.173s-13.333-32.427-1.173-45.227l191.573-202.027zM672 780.8h160v-160c0-17.707 14.293-32 32-32s32 14.293 32 32v192c0 17.707-14.293 32-32 32h-192c-17.707 0-32-14.293-32-32s14.293-32 32-32zM160 76.8h192c17.707 0 32 14.293 32 32s-14.293 32-32 32h-160v160c0 17.707-14.293 32-32 32s-32-14.293-32-32v-192c0-17.707 14.293-32 32-32zM608 140.8c17.707 0 32 14.293 32 32v120.213l201.067-206.507c6.293-6.507 14.613-9.707 22.933-9.707 8.107 0 16.107 2.987 22.293 9.067 12.693 12.373 12.907 32.64 0.64 45.227l-196.373 201.707h109.44c17.707 0 32 14.293 32 32s-14.293 32-32 32h-192c-17.707 0-32-14.293-32-32v-192c0-17.707 14.293-32 32-32z" />
<glyph unicode="&#xe938;" glyph-name="refresh-16" d="M643.2 633.6c-2.453-17.6 9.813-33.707 27.307-36.16l160.853-22.4c1.493-0.213 2.987-0.32 4.373-0.32 6.933 0 13.76 2.24 19.307 6.507 6.827 5.013 11.2 12.693 12.373 21.12l22.4 160.853c2.453 17.6-9.813 33.707-27.307 36.16-17.493 2.24-33.707-9.707-36.053-27.2l-9.92-71.573c-8.747 10.88-17.28 21.76-27.2 31.68-72.533 72.64-168.96 112.533-271.573 112.533s-199.040-39.893-271.573-112.533c-72.533-72.533-112.427-168.96-112.427-271.467s39.893-199.040 112.427-271.467c72.533-72.533 168.96-112.533 271.573-112.533s199.040 39.893 271.573 112.533c47.68 47.68 82.133 107.2 99.413 172.053 4.587 17.067-5.547 34.667-22.613 39.147-16.747 4.053-34.56-5.653-39.147-22.72-14.4-53.973-43.093-103.467-82.88-143.253-60.48-60.48-140.8-93.76-226.24-93.76s-165.867 33.28-226.347 93.76-93.76 140.8-93.76 226.24 33.28 165.76 93.76 226.24 140.8 93.76 226.24 93.76 165.867-33.28 226.24-93.76c12.373-12.373 23.467-25.813 33.6-39.893l-98.347 13.653c-17.707 2.347-33.6-9.707-36.053-27.2z" />
<glyph unicode="&#xe939;" glyph-name="remove-16" d="M672 460.8h-384c-17.707 0-32 14.293-32 32s14.293 32 32 32h384c17.707 0 32-14.293 32-32s-14.293-32-32-32zM480 76.8c-229.333 0-416 186.667-416 416s186.667 416 416 416 416-186.667 416-416-186.667-416-416-416zM480 844.8c-194.133 0-352-157.973-352-352s157.867-352 352-352 352 157.973 352 352-157.867 352-352 352z" />
<glyph unicode="&#xe93a;" glyph-name="right-16" d="M393.387 214.187c6.293-6.293 14.4-9.387 22.613-9.387s16.427 3.093 22.613 9.387l256 256c12.48 12.48 12.48 32.747 0 45.227l-256 256c-12.48 12.48-32.747 12.48-45.227 0s-12.48-32.747 0-45.227l233.387-233.387-233.387-233.387c-12.48-12.48-12.48-32.747 0-45.227z" />
<glyph unicode="&#xe93b;" glyph-name="save-16" d="M800 844.8h-576c-52.907 0-96-43.093-96-96v-576c0-52.907 43.093-96 96-96h576c52.907 0 96 43.093 96 96v576c0 52.907-43.093 96-96 96zM320 780.8h384v-320h-384v320zM832 172.8c0-17.6-14.4-32-32-32h-576c-17.6 0-32 14.4-32 32v576c0 17.6 14.4 32 32 32h32v-352c0-17.707 14.293-32 32-32h448c17.707 0 32 14.293 32 32v352h32c17.6 0 32-14.4 32-32v-576zM608 716.8c-17.707 0-32-14.293-32-32v-128c0-17.707 14.293-32 32-32s32 14.293 32 32v128c0 17.707-14.293 32-32 32z" />
<glyph unicode="&#xe93c;" glyph-name="select-16" d="M895.68 481.813c2.027 13.973-5.44 27.627-18.24 33.6l-704 326.4c-12.16 5.653-26.56 3.093-36.053-6.4s-12.053-23.893-6.4-36.053l326.4-704c5.333-11.413 16.747-18.56 29.013-18.56 1.707 0 3.307 0.107 5.013 0.427 14.080 2.24 25.067 13.653 26.667 27.84l35.52 302.187 314.987 47.573c14.187 2.027 25.067 13.013 27.093 26.987zM520 466.88c-14.293-2.133-25.28-13.547-26.987-27.947l-25.173-214.080-242.133 522.133 528.213-244.907-233.92-35.2z" />
<glyph unicode="&#xe93d;" glyph-name="setting-20" d="M513.493 626.24c-89.067 0-161.493-72.427-161.493-161.493s72.427-161.493 161.493-161.493 161.493 72.427 161.493 161.493-72.533 161.493-161.493 161.493zM513.493 367.36c-53.76 0-97.493 43.733-97.493 97.493s43.733 97.493 97.493 97.493 97.493-43.733 97.493-97.493c-0.107-53.76-43.84-97.493-97.493-97.493zM964.267 578.133l-15.68 6.293c-38.72 15.467-69.867 42.027-89.92 76.8-20.053 34.667-27.52 74.773-21.653 115.947l2.347 16.747-12.373 11.413c-51.733 47.253-111.253 81.493-176.853 101.76l-15.787 4.907-13.12-10.027c-32.32-24.64-70.080-37.653-109.227-37.653s-76.907 13.013-109.227 37.653l-13.12 10.027-15.787-4.907c-65.493-20.267-127.253-56-178.56-103.253l-11.84-11.093 1.813-16.107c4.48-39.36-3.307-77.653-22.507-110.933-19.52-33.813-49.493-59.947-86.72-75.627l-14.933-6.293-3.733-15.787c-8.32-35.627-12.587-71.68-12.587-107.307 0-32.213 3.627-65.493 10.773-98.667l3.52-16.213 15.253-6.507c36.8-15.787 66.56-41.813 85.867-75.307 19.84-34.453 27.413-74.24 21.76-115.093l-2.24-16.32 12.053-11.307c50.027-47.147 110.507-83.2 174.827-104.32l16.213-5.333 13.44 10.453c32.64 25.387 70.933 38.827 110.72 38.827 40.853 0 79.893-14.080 112.96-40.747l13.227-10.667 16.32 5.013c64.427 19.947 125.013 54.4 175.040 99.52l12.8 11.52-2.56 16.96c-6.187 41.6 1.28 82.027 21.44 117.013 20.48 35.52 52.373 62.4 92.267 77.653l16.107 6.187 3.733 16.853c7.36 33.6 11.093 67.413 11.093 100.48s-3.84 66.987-11.307 100.907l-3.84 16.533zM908.8 389.867c-45.973-21.44-83.2-55.147-108.16-98.347-24.533-42.56-35.307-90.88-31.36-140.587-36.587-30.293-78.72-54.293-123.627-70.187-41.493 28.907-89.067 44.16-138.88 44.16-48.32 0-94.827-14.4-135.573-41.813-44.907 16.853-87.36 42.24-124.16 74.24 3.52 49.067-7.36 96.747-31.573 138.667-23.467 40.747-58.027 73.28-100.48 94.827-4.16 23.68-6.293 47.040-6.293 69.867 0 25.707 2.56 51.733 7.68 77.547 43.093 21.547 77.973 54.293 101.76 95.467 23.36 40.427 34.24 86.080 32 133.227 37.867 32.427 81.6 57.707 127.787 74.133 40.32-26.667 86.293-40.64 133.973-40.64s93.653 13.973 133.973 40.747c45.867-16.107 88-40.427 125.76-72.427-3.627-49.387 7.147-97.173 31.467-139.413 24.427-42.347 60.587-75.627 105.387-97.067 4.373-24.107 6.613-48.107 6.613-71.467 0.107-23.36-2.027-47.147-6.293-70.933z" />
<glyph unicode="&#xe93e;" glyph-name="square-down-16" d="M128 172.8v576c0 52.907 43.093 96 96 96h576c52.907 0 96-43.093 96-96v-576c0-52.907-43.093-96-96-96h-576c-52.907 0-96 43.093-96 96zM832 748.8c0 17.707-14.4 32-32 32h-576c-17.6 0-32-14.293-32-32v-576c0-17.707 14.4-32 32-32h576c17.6 0 32 14.293 32 32v576zM320 556.8c0 9.173 3.947 18.24 11.52 24.64 13.547 11.307 33.707 9.493 45.013-4.053l135.467-162.453 135.467 162.453c11.307 13.547 31.467 15.36 45.013 4.053s15.36-31.467 4.053-45.12l-160-192c-6.080-7.253-15.040-11.52-24.533-11.52s-18.453 4.267-24.533 11.52l-160 192c-5.013 5.973-7.467 13.227-7.467 20.48z" />
<glyph unicode="&#xe93f;" glyph-name="square-left-16" d="M224 844.8h576c52.907 0 96-43.093 96-96v-576c0-52.907-43.093-96-96-96h-576c-52.907 0-96 43.093-96 96v576c0 52.907 43.093 96 96 96zM800 140.8c17.707 0 32 14.4 32 32v576c0 17.6-14.293 32-32 32h-576c-17.707 0-32-14.4-32-32v-576c0-17.6 14.293-32 32-32h576zM608 652.8c9.173 0 18.24-3.947 24.64-11.52 11.307-13.547 9.493-33.707-4.053-45.013l-162.56-135.467 162.453-135.467c13.547-11.307 15.36-31.467 4.053-45.013s-31.467-15.36-45.12-4.053l-192 160c-7.253 6.080-11.52 15.040-11.52 24.533s4.267 18.453 11.52 24.533l192 160c6.080 5.013 13.333 7.467 20.587 7.467z" />
<glyph unicode="&#xe940;" glyph-name="square-right-16" d="M800 76.8h-576c-52.907 0-96 43.093-96 96v576c0 52.907 43.093 96 96 96h576c52.907 0 96-43.093 96-96v-576c0-52.907-43.093-96-96-96zM224 780.8c-17.707 0-32-14.4-32-32v-576c0-17.6 14.293-32 32-32h576c17.707 0 32 14.4 32 32v576c0 17.6-14.293 32-32 32h-576zM416 268.8c-9.173 0-18.24 3.947-24.64 11.52-11.307 13.547-9.493 33.707 4.053 45.013l162.453 135.467-162.347 135.467c-13.547 11.307-15.36 31.467-4.053 45.013s31.467 15.36 45.12 4.053l192-160c7.253-6.080 11.52-15.040 11.52-24.533s-4.267-18.453-11.52-24.533l-192-160c-6.080-5.013-13.333-7.467-20.587-7.467z" />
<glyph unicode="&#xe941;" glyph-name="square-up-16" d="M896 748.8v-576c0-52.907-43.093-96-96-96h-576c-52.907 0-96 43.093-96 96v576c0 52.907 43.093 96 96 96h576c52.907 0 96-43.093 96-96zM192 172.8c0-17.707 14.4-32 32-32h576c17.6 0 32 14.293 32 32v576c0 17.707-14.4 32-32 32h-576c-17.6 0-32-14.293-32-32v-576zM704 364.8c0-9.173-3.947-18.24-11.52-24.64-13.547-11.307-33.707-9.493-45.013 4.053l-135.467 162.56-135.467-162.453c-11.307-13.547-31.467-15.36-45.013-4.053s-15.36 31.467-4.053 45.12l160 192c6.080 7.253 15.040 11.52 24.533 11.52s18.453-4.267 24.533-11.52l160-192c5.013-6.080 7.467-13.333 7.467-20.587z" />
<glyph unicode="&#xe942;" glyph-name="start-16" d="M768 460.8c0 9.813-4.48 19.093-12.267 25.173l-448 352c-9.6 7.467-22.72 8.96-33.707 3.52-10.987-5.333-18.027-16.533-18.027-28.8v-704c0-12.267 7.040-23.467 18.027-28.8 4.48-2.24 9.28-3.2 13.973-3.2 7.040 0 13.973 2.347 19.733 6.827l448 352c7.787 6.187 12.267 15.467 12.267 25.28zM320 174.613v572.373l364.16-286.187-364.16-286.187z" />
<glyph unicode="&#xe943;" glyph-name="stop-16" d="M832 236.8v448c0 52.907-43.093 96-96 96h-448c-52.907 0-96-43.093-96-96v-448c0-52.907 43.093-96 96-96h448c52.907 0 96 43.093 96 96zM256 236.8v448c0 17.6 14.4 32 32 32h448c17.6 0 32-14.4 32-32v-448c0-17.6-14.4-32-32-32h-448c-17.6 0-32 14.4-32 32z" />
<glyph unicode="&#xe944;" glyph-name="sucess-16" d="M446.187 308.8c-8.213 0-16.213 3.2-22.187 8.96l-158.187 152c-12.693 12.267-13.12 32.533-0.853 45.227s32.533 13.12 45.227 0.853l133.013-127.787 203.947 252.8c11.093 13.76 31.253 15.893 45.013 4.8s15.893-31.253 4.8-45.013l-225.92-279.893c-5.653-6.933-13.973-11.307-22.933-11.84-0.64-0.107-1.28-0.107-1.92-0.107zM480 76.8c-56.107 0-110.613 10.987-161.92 32.747-49.493 20.907-93.973 50.987-132.267 89.173-38.187 38.187-68.16 82.667-89.173 132.267-21.653 51.2-32.64 105.707-32.64 161.813s10.987 110.613 32.747 161.92c20.907 49.493 50.987 93.973 89.173 132.267 38.187 38.187 82.667 68.16 132.267 89.173 51.2 21.653 105.707 32.64 161.813 32.64s110.613-10.987 161.92-32.747c49.493-20.907 93.973-50.987 132.267-89.173 38.187-38.187 68.16-82.667 89.173-132.267 21.653-51.2 32.64-105.707 32.64-161.813s-10.987-110.613-32.747-161.92c-20.907-49.493-50.987-93.973-89.173-132.267s-82.667-68.16-132.267-89.173c-51.2-21.653-105.707-32.64-161.813-32.64zM480 844.8c-194.133 0-352-157.867-352-352s157.867-352 352-352 352 157.867 352 352-157.867 352-352 352z" />
<glyph unicode="&#xe945;" glyph-name="sucess-f-20" d="M486.080 921.6c-239.787 0-434.133-194.347-434.133-434.133s194.347-434.133 434.133-434.133 434.133 194.347 434.133 434.133-194.453 434.133-434.133 434.133zM705.707 626.667l-278.933-340.693-168.747 183.893c-9.6 10.453-8.853 26.56 1.6 36.16 10.453 9.493 26.56 8.853 36.16-1.6l128.853-140.373 241.6 295.040c8.96 10.987 25.067 12.587 36.053 3.627 10.773-8.96 12.373-25.067 3.413-36.053z" />
<glyph unicode="&#xe946;" glyph-name="three-grid-16" d="M160 76.8h64c56.533 0 96 39.467 96 96v576c0 56.533-39.467 96-96 96h-64c-56.533 0-96-39.467-96-96v-576c0-56.533 39.467-96 96-96zM128 748.8c0 20.587 11.413 32 32 32h64c20.587 0 32-11.413 32-32v-576c0-20.587-11.413-32-32-32h-64c-20.587 0-32 11.413-32 32v576zM480 76.8h64c56.533 0 96 39.467 96 96v576c0 56.533-39.467 96-96 96h-64c-56.533 0-96-39.467-96-96v-576c0-56.533 39.467-96 96-96zM448 748.8c0 20.587 11.413 32 32 32h64c20.587 0 32-11.413 32-32v-576c0-20.587-11.413-32-32-32h-64c-20.587 0-32 11.413-32 32v576zM864 844.8h-64c-56.533 0-96-39.467-96-96v-576c0-56.533 39.467-96 96-96h64c56.533 0 96 39.467 96 96v576c0 56.533-39.467 96-96 96zM896 172.8c0-20.587-11.413-32-32-32h-64c-20.587 0-32 11.413-32 32v576c0 20.587 11.413 32 32 32h64c20.587 0 32-11.413 32-32v-576z" />
<glyph unicode="&#xe947;" glyph-name="three-grid-f-16" d="M160 108.8h64c38.4 0 64 25.6 64 64v576c0 38.4-25.6 64-64 64h-64c-38.4 0-64-25.6-64-64v-576c0-38.4 25.6-64 64-64zM480 108.8h64c38.4 0 64 25.6 64 64v576c0 38.4-25.6 64-64 64h-64c-38.4 0-64-25.6-64-64v-576c0-38.4 25.6-64 64-64zM800 108.8h64c38.4 0 64 25.6 64 64v576c0 38.4-25.6 64-64 64h-64c-38.4 0-64-25.6-64-64v-576c0-38.4 25.6-64 64-64z" />
<glyph unicode="&#xe948;" glyph-name="unlock-16" d="M512 780.8c27.947 0 54.507-8.853 76.8-25.6 14.293-10.667 34.24-7.787 44.8 6.4 10.667 14.080 7.787 34.24-6.293 44.8-33.493 25.173-73.28 38.4-115.2 38.4-105.92 0-192-86.080-192-192v-64h-32c-52.907 0-96-43.093-96-96v-320c0-52.907 43.093-96 96-96h448c52.907 0 96 43.093 96 96v320c0 52.907-43.093 96-96 96h-352.107v64c0 70.613 57.387 128 128 128zM768 492.8v-320c0-17.707-14.4-32-32-32h-448c-17.6 0-32 14.293-32 32v320c0 17.707 14.4 32 32 32h448c17.6 0 32-14.293 32-32zM512 204.8c70.613 0 128 57.387 128 128s-57.387 128-128 128-128-57.387-128-128 57.387-128 128-128zM512 396.8c35.307 0 64-28.693 64-64s-28.693-64-64-64-64 28.693-64 64 28.693 64 64 64z" />
<glyph unicode="&#xe949;" glyph-name="up-16" d="M310.613 342.187l233.387 233.387 233.387-233.387c6.293-6.293 14.4-9.387 22.613-9.387s16.427 3.093 22.613 9.387c12.48 12.48 12.48 32.747 0 45.227l-256 256c-12.48 12.48-32.747 12.48-45.227 0l-256-256c-12.48-12.48-12.48-32.747 0-45.227s32.747-12.48 45.227 0z" />
<glyph unicode="&#xe94a;" glyph-name="upload-16" d="M512 204.373c17.707 0 32 14.293 32 32v525.867l169.707-164.8c6.293-6.080 14.293-9.067 22.293-9.067 8.32 0 16.64 3.2 22.933 9.707 12.267 12.693 12.053 32.853-0.64 45.227l-178.453 173.333c-18.56 18.56-42.987 27.84-67.307 28.053-0.213 0-0.32 0.107-0.533 0.107-0.96 0-1.813-0.427-2.773-0.533-23.573-0.64-46.933-9.387-64.747-27.2l-178.773-173.653c-12.693-12.373-12.907-32.64-0.64-45.227 12.373-12.693 32.64-13.013 45.227-0.64l169.707 164.8v-525.867c0-17.707 14.293-32.107 32-32.107zM864 396.8c-17.707 0-32-14.293-32-32v-224h-640v224c0 17.707-14.293 32-32 32s-32-14.293-32-32v-256c0-17.707 14.293-32 32-32h704c17.707 0 32 14.293 32 32v256c0 17.707-14.293 32-32 32z" />
<glyph unicode="&#xe94b;" glyph-name="user-20" d="M805.227 336.107c-43.307 37.973-94.4 66.56-150.080 84.587 18.133 11.093 34.987 24.427 50.453 39.893 51.733 51.733 80.107 120.427 80.107 193.493s-28.48 141.867-80.107 193.493c-51.733 51.733-120.533 80.107-193.6 80.107s-141.867-28.48-193.493-80.107c-51.733-51.733-80.107-120.427-80.107-193.493s28.48-141.867 80.107-193.493c15.36-15.36 32.32-28.693 50.453-39.893-55.68-18.027-106.773-46.507-150.080-84.587-38.613-33.813-68.907-73.387-90.133-117.44-22.293-45.973-33.493-94.933-33.493-145.387 0-17.707 14.293-32 32-32s32 14.293 32 32c0 168.533 158.293 305.6 352.853 305.6s352.853-137.067 352.853-305.6c0-17.707 14.293-32 32-32s32 14.293 32 32c0 50.453-11.2 99.307-33.387 145.28-21.44 44.16-51.84 83.733-90.347 117.547zM302.293 654.080c0 115.627 94.080 209.707 209.707 209.707s209.707-94.080 209.707-209.707-94.080-209.707-209.707-209.707-209.707 94.080-209.707 209.707z" />
<glyph unicode="&#xe94c;" glyph-name="warning-16" d="M484.373 53.333c239.787 0 434.133 194.347 434.133 434.133s-194.347 434.133-434.133 434.133-434.133-194.347-434.133-434.133 194.347-434.133 434.133-434.133zM460.8 693.227c0 14.187 11.413 25.6 25.6 25.6s25.6-11.413 25.6-25.6v-286.72c0-14.187-11.413-25.6-25.6-25.6s-25.6 11.413-25.6 25.6v286.72zM486.4 332.8c21.227 0 38.4-17.173 38.4-38.4s-17.173-38.4-38.4-38.4c-21.227 0-38.4 17.173-38.4 38.4s17.173 38.4 38.4 38.4z" />
<glyph unicode="&#xe94d;" glyph-name="warning-f-20" d="M512 894.933c-239.787 0-434.133-194.347-434.133-434.133s194.347-434.133 434.133-434.133 434.133 194.347 434.133 434.133-194.347 434.133-434.133 434.133zM485.013 666.667c0 14.187 11.413 25.6 25.6 25.6s25.6-11.413 25.6-25.6v-286.72c0-14.187-11.413-25.6-25.6-25.6s-25.6 11.413-25.6 25.6v286.72zM510.613 229.333c-21.227 0-38.4 17.173-38.4 38.4s17.173 38.4 38.4 38.4 38.4-17.173 38.4-38.4-17.173-38.4-38.4-38.4z" />
<glyph unicode="&#xe94e;" glyph-name="zoom-in-16" d="M481.067 136.747c85.44 0 163.947 30.72 224.96 81.6l134.933-132.8c6.293-6.080 14.293-9.173 22.4-9.173 8.213 0 16.533 3.2 22.827 9.6 12.373 12.587 12.267 32.853-0.427 45.227l-134.507 132.373c50.987 61.12 81.813 139.627 81.813 225.173 0 194.133-157.973 352-352 352s-352-157.867-352-352 157.973-352 352-352zM481.067 776.747c158.827 0 288-129.173 288-288s-129.173-288-288-288-288 129.173-288 288 129.173 288 288 288zM350.293 458.027h256c17.707 0 32 14.293 32 32s-14.293 32-32 32h-256c-17.707 0-32-14.293-32-32s14.293-32 32-32z" />
<glyph unicode="&#xe94f;" glyph-name="zoom-out-16" d="M481.067 844.693c-194.133 0-352-157.867-352-352s157.867-352 352-352c85.867 0 164.48 30.933 225.707 82.24l132.907-137.067c6.293-6.507 14.613-9.707 22.933-9.707 8 0 16.107 2.987 22.293 9.067 12.693 12.267 13.013 32.533 0.64 45.227l-133.653 137.813c50.56 61.013 81.067 139.2 81.067 224.427 0.107 194.133-157.867 352-351.893 352zM193.067 492.693c0 158.827 129.173 288 288 288s288-129.173 288-288-129.173-288-288-288-288 129.28-288 288zM606.187 525.973h-95.147v89.6c0 17.707-14.293 32-32 32s-32-14.293-32-32v-89.6h-96.853c-17.707 0-32-14.293-32-32s14.293-32 32-32h96.853v-102.4c0-17.707 14.293-32 32-32s32 14.293 32 32v102.4h95.147c17.707 0 32 14.293 32 32s-14.293 32-32 32z" />
<glyph unicode="&#xe950;" glyph-name="zoom-overview-16" d="M97.6 719.253c17.707 0 32 14.293 32 32v94.4h94.4c17.707 0 32 14.293 32 32s-14.293 32-32 32h-126.4c-17.707 0-32-14.293-32-32v-126.4c0-17.707 14.293-32 32-32zM933.973 199.573c-17.707 0-32-14.293-32-32v-94.4h-94.4c-17.707 0-32-14.293-32-32s14.293-32 32-32h126.4c17.707 0 32 14.293 32 32v126.4c0 17.707-14.293 32-32 32zM807.573 845.653h94.4v-94.4c0-17.707 14.293-32 32-32s32 14.293 32 32v126.4c0 17.707-14.293 32-32 32h-126.4c-17.707 0-32-14.293-32-32s14.293-32 32-32zM97.6 9.173h126.4c17.707 0 32 14.293 32 32s-14.293 32-32 32h-94.4v94.4c0 17.707-14.293 32-32 32s-32-14.293-32-32v-126.4c0-17.707 14.293-32 32-32zM227.413 779.84c-17.707 0-32-14.293-32-32v-576c0-17.707 14.293-32 32-32h576c17.707 0 32 14.293 32 32v576c0 17.707-14.293 32-32 32h-576zM771.413 715.84v-318.080l-149.867 134.187c-10.24 8.96-24.853 10.773-36.8 4.267l-325.333-178.56v358.187h512zM259.413 203.84v80.853l336.32 184.427 175.68-157.333v-107.947h-512zM451.52 590.72c0-35.346-28.654-64-64-64s-64 28.654-64 64c0 35.346 28.654 64 64 64s64-28.654 64-64z" />
<glyph unicode="&#xe951;" glyph-name="zoom-reset-16" d="M355.84 649.493c-17.707 0-32-14.293-32-32v-320c0-17.707 14.293-32 32-32h320c17.707 0 32 14.293 32 32v320c0 17.707-14.293 32-32 32h-320zM643.84 329.493h-256v256h256v-256zM65.813 749.227c0-17.707 14.293-32 32-32h130.56c17.707 0 32 14.293 32 32v126.293c0 17.707-14.293 32-32 32s-32-14.293-32-32v-55.36l-74.773 79.68c-12.053 12.907-32.32 13.44-45.227 1.493-12.907-12.16-13.547-32.427-1.387-45.227l70.293-74.88h-47.467c-17.707 0-32-14.4-32-32zM829.333 878.827c0 17.707-14.293 32-32 32s-32-14.293-32-32v-130.56c0-17.707 14.293-32 32-32h126.4c17.707 0 32 14.293 32 32s-14.293 32-32 32h-55.36l79.68 74.773c12.907 12.053 13.547 32.32 1.387 45.227-12.053 12.8-32.32 13.44-45.227 1.387l-74.88-70.293v47.467zM958.187 172.373c0 17.707-14.293 32-32 32h-130.56c-17.707 0-32-14.293-32-32v-126.4c0-17.707 14.293-32 32-32s32 14.293 32 32v55.36l74.773-79.68c6.293-6.72 14.827-10.133 23.36-10.133 7.893 0 15.68 2.88 21.867 8.64 12.907 12.16 13.547 32.427 1.387 45.227l-70.293 74.88h47.467c17.707 0.107 32 14.507 32 32.107zM194.667 42.773c0-17.707 14.293-32 32-32s32 14.293 32 32v130.56c0 17.707-14.293 32-32 32h-126.4c-17.707 0-32-14.293-32-32s14.293-32 32-32h55.36l-79.68-74.773c-12.907-12.053-13.547-32.32-1.387-45.227 6.293-6.72 14.827-10.133 23.36-10.133 7.893 0 15.68 2.88 21.867 8.64l74.88 70.293v-47.36z" />
<glyph unicode="&#xe952;" glyph-name="config-auto-discover-16" d="M713.387 299.947c33.707 43.307 54.613 97.067 54.613 156.16 0 141.227-114.773 256-256 256s-256-114.773-256-256 114.773-256 256-256c59.093 0 112.853 20.907 156.16 54.613l100.48-100.48c6.293-6.293 14.4-9.387 22.613-9.387s16.427 3.093 22.613 9.387c12.48 12.48 12.48 32.747 0 45.227l-100.48 100.48zM512 264c-105.92 0-192 86.080-192 192s86.080 192 192 192 192-86.080 192-192-86.080-192-192-192zM512 104c-194.027 0-352 157.973-352 352 0 17.707-14.293 32-32 32s-32-14.293-32-32c0-229.333 186.667-416 416-416 17.707 0 32 14.293 32 32s-14.293 32-32 32zM512 872c-17.707 0-32-14.293-32-32s14.293-32 32-32c194.027 0 352-157.973 352-352 0-17.707 14.293-32 32-32s32 14.293 32 32c0 229.44-186.667 416-416 416z" />
<glyph unicode="&#xe953;" glyph-name="config-backup-16" d="M777.707 732.267c-72.533 72.533-168.96 112.533-271.467 112.533s-199.040-39.893-271.573-112.533c-9.92-9.92-18.453-20.8-27.2-31.68l-9.92 71.573c-2.453 17.6-18.987 29.653-36.16 27.2-17.493-2.453-29.653-18.56-27.2-36.16l22.4-160.853c2.24-16.107 15.893-27.627 31.573-27.627 1.493 0 2.987 0.107 4.48 0.32l160.96 22.4c17.493 2.453 29.653 18.56 27.2 36.16s-18.88 29.653-36.16 27.2l-98.453-13.653c10.133 14.080 21.227 27.52 33.6 39.893 60.48 60.48 140.8 93.76 226.24 93.76s165.76-33.28 226.24-93.76 93.76-140.8 93.76-226.24-33.28-165.76-93.76-226.24-140.693-93.76-226.027-93.76-165.76 33.28-226.24 93.76c-39.787 39.787-68.48 89.28-82.88 143.253-4.587 16.96-21.973 26.987-39.147 22.72-17.067-4.587-27.2-22.080-22.72-39.147 17.387-64.853 51.733-124.267 99.52-172.053 72.533-72.533 168.96-112.533 271.467-112.533s199.040 39.893 271.467 112.533c72.533 72.533 112.533 168.96 112.533 271.467s-40 199.040-112.533 271.467zM480 652.8c-17.707 0-32-14.293-32-32v-192c0-5.76 1.6-11.52 4.587-16.427l96-160c5.973-10.027 16.64-15.573 27.413-15.573 5.653 0 11.307 1.387 16.427 4.587 15.147 9.067 20.16 28.8 10.987 43.84l-91.413 152.427v183.147c0 17.707-14.293 32-32 32z" />
<glyph unicode="&#xe954;" glyph-name="config-script-16" d="M800 844.8h-512c-52.907 0-96-43.093-96-96v-416h-32c-52.907 0-96-43.093-96-96v-64c0-52.907 43.093-96 96-96h512c52.907 0 96 43.093 96 96v416h32c52.907 0 96 43.093 96 96v64c0 52.907-43.093 96-96 96zM288 140.8h-128c-17.707 0-32 14.4-32 32v64c0 17.6 14.293 32 32 32h384c17.707 0 32-14.4 32-32v-64c0-11.307 2.347-21.973 5.867-32h-293.867zM704 172.8c0-17.6-14.293-32-32-32s-32 14.4-32 32v64c0 52.907-43.093 96-96 96h-288v416c0 17.6 14.293 32 32 32h421.867c-3.627-10.027-5.867-20.693-5.867-32v-576zM832 684.8c0-17.6-14.293-32-32-32h-32v96c0 17.6 14.293 32 32 32s32-14.4 32-32v-64zM608 652.8h-256c-17.707 0-32-14.293-32-32s14.293-32 32-32h256c17.707 0 32 14.293 32 32s-14.293 32-32 32zM608 524.8h-256c-17.707 0-32-14.293-32-32s14.293-32 32-32h256c17.707 0 32 14.293 32 32s-14.293 32-32 32z" />
<glyph unicode="&#xe955;" glyph-name="console-16" d="M868.373 840.64h-712.96c-25.28 0-49.707-11.947-66.773-32.853-15.893-19.307-24.64-44.693-24.64-71.467v-433.387c0-26.773 8.747-52.16 24.64-71.467 17.173-20.907 41.493-32.853 66.773-32.853h712.96c25.28 0 49.6 11.947 66.88 32.747 16 19.307 24.747 44.8 24.747 71.467v433.6c0 26.773-8.747 52.16-24.747 71.467-17.173 20.8-41.6 32.747-66.88 32.747zM896 302.933c0-21.867-12.693-40.213-27.627-40.213h-712.96c-14.827 0-27.413 18.453-27.413 40.213v433.493c0 21.867 12.587 40.32 27.413 40.32h712.96c14.72 0 27.627-18.88 27.627-40.32v-433.493zM688.64 72.64c17.707 0 32 14.293 32 32s-14.293 32-32 32h-353.28c-17.707 0-32-14.293-32-32s14.293-32 32-32h353.28zM289.92 584.64c-17.707 0-32-14.293-32-32v-128c0-17.707 14.293-32 32-32s32 14.293 32 32v128c0 17.707-14.293 32-32 32zM544 712.64c-17.707 0-32-14.293-32-32v-256.107c0-17.707 14.293-32 32-32s32 14.293 32 32v256.107c0 17.707-14.293 32-32 32zM672.96 584.64c-17.707 0-32-14.293-32-32v-128c0-17.707 14.293-32 32-32s32 14.293 32 32v128c0 17.707-14.293 32-32 32zM417.92 648.64c-17.707 0-32-14.293-32-32v-192c0-17.707 14.293-32 32-32s32 14.293 32 32v192c0 17.707-14.293 32-32 32z" />
<glyph unicode="&#xe956;" glyph-name="fm-acknownledge-16" d="M625.493 103.893c0.32-0.32 0.64-0.64 0.853-0.96 16.853-16.853 39.253-26.133 63.147-26.133s46.293 9.28 63.147 26.133c0.96 0.96 1.92 2.027 2.773 3.2l133.973 175.253c10.773 14.080 8.107 34.133-5.973 44.907s-34.133 8.107-44.907-5.973l-132.373-173.227c-4.587-4.053-10.453-6.293-16.64-6.293-6.613 0-12.8 2.453-17.493 7.040l-72.427 78.613c-11.947 13.013-32.213 13.867-45.227 1.813-13.013-11.947-13.867-32.213-1.813-45.227l72.96-79.147zM800 844.8h-576c-52.907 0-96-43.093-96-96v-576c0-52.907 43.093-96 96-96h256c17.707 0 32 14.293 32 32s-14.293 32-32 32h-256c-17.6 0-32 14.4-32 32v576c0 17.6 14.4 32 32 32h576c17.6 0 32-14.4 32-32v-320c0-17.707 14.293-32 32-32s32 14.293 32 32v320c0 52.907-43.093 96-96 96zM352 588.8h320c17.707 0 32 14.293 32 32s-14.293 32-32 32h-320c-17.707 0-32-14.293-32-32s14.293-32 32-32zM352 396.8h320c17.707 0 32 14.293 32 32s-14.293 32-32 32h-320c-17.707 0-32-14.293-32-32s14.293-32 32-32z" />
<glyph unicode="&#xe957;" glyph-name="fm-alarm-16" d="M897.92 296.32c-17.173 27.307-40.64 48.107-65.92 67.733v176.747c0 62.080-19.627 121.173-56.747 170.773-32.533 43.413-75.84 76.48-126.187 96.107-8 25.707-23.147 48.853-43.733 66.56-25.92 22.293-59.093 34.56-93.333 34.56s-67.413-12.267-93.44-34.56c-20.587-17.707-35.733-40.853-43.733-66.56-50.24-19.733-93.653-52.693-126.187-96.107-37.013-49.6-56.64-108.693-56.64-170.773v-176.853c-25.28-19.627-48.853-40.427-65.92-67.733-20.587-32.64-30.080-71.787-30.080-123.413 0-17.707 14.293-32 32-32h202.987c11.52-32.533 31.893-61.76 58.773-84.053 34.24-28.373 77.653-43.947 122.24-43.947s88 15.573 122.24 43.947c26.88 22.293 47.253 51.52 58.773 84.053h202.987c17.707 0 32 14.293 32 32 0 51.627-9.493 90.773-30.080 123.52zM512 76.8c-46.507 0-88.427 25.387-110.827 64h221.653c-22.4-38.613-64.32-64-110.827-64zM161.707 204.8c6.827 58.773 34.56 82.453 81.493 117.76 8 6.080 12.8 15.467 12.8 25.6v192.64c0 96.853 62.613 182.080 155.733 212.053 11.413 3.627 19.733 13.333 21.76 25.173 6.507 38.613 39.573 66.773 78.613 66.773s72.107-28.053 78.613-66.773c2.027-11.84 10.347-21.547 21.76-25.173 93.12-29.973 155.733-115.307 155.733-212.053v-192.64c0-10.027 4.693-19.52 12.8-25.6 46.933-35.307 74.667-58.987 81.493-117.76h-700.8z" />
<glyph unicode="&#xe958;" glyph-name="fm-alarm-box-16" d="M960 684.8v0c0 0 0 0 0 0 0 0.64 0 1.067 0 1.6 0 0.107 0 0.107 0 0.213 0 0.427-0.107 0.96-0.107 1.387 0 0.107 0 0.213 0 0.32 0 0.427-0.107 0.853-0.107 1.28 0 0.107 0 0.32-0.107 0.427-0.107 0.32-0.107 0.747-0.213 1.067 0 0.213-0.107 0.427-0.107 0.533-0.107 0.32-0.107 0.64-0.213 0.96-0.107 0.213-0.107 0.427-0.213 0.747-0.107 0.213-0.107 0.533-0.213 0.747-0.107 0.32-0.213 0.533-0.213 0.853-0.107 0.213-0.107 0.427-0.213 0.64-0.107 0.32-0.213 0.64-0.32 0.96-0.107 0.213-0.107 0.32-0.213 0.533-0.107 0.32-0.32 0.64-0.427 1.067-0.107 0.107-0.107 0.213-0.213 0.427-0.213 0.427-0.427 0.747-0.533 1.173 0 0.107-0.107 0.213-0.107 0.213-0.213 0.427-0.427 0.853-0.747 1.28 0 0 0 0.107-0.107 0.107-0.32 0.427-0.533 0.96-0.853 1.387 0 0 0 0 0 0v0c0 0.107-0.107 0.107-0.107 0.213l-128 191.573c-5.973 8.96-16 14.293-26.667 14.293h-576c-10.667 0-20.693-5.333-26.667-14.293l-127.787-191.787c0-0.107-0.107-0.107-0.107-0.213v0c0 0 0 0 0 0-0.32-0.427-0.533-0.853-0.853-1.387 0 0 0-0.107-0.107-0.107-0.213-0.427-0.533-0.853-0.747-1.28 0-0.107-0.107-0.213-0.107-0.213-0.213-0.427-0.427-0.747-0.533-1.173-0.107-0.107-0.107-0.213-0.213-0.427-0.107-0.32-0.32-0.64-0.427-1.067-0.107-0.213-0.107-0.32-0.213-0.533-0.107-0.32-0.213-0.64-0.32-0.96-0.107-0.213-0.107-0.427-0.213-0.64-0.107-0.32-0.213-0.533-0.213-0.853-0.107-0.213-0.107-0.533-0.213-0.747s-0.107-0.427-0.213-0.747c-0.107-0.32-0.107-0.64-0.213-0.96 0-0.213-0.107-0.427-0.107-0.533-0.107-0.32-0.107-0.747-0.213-1.067 0-0.107 0-0.32-0.107-0.427-0.107-0.427-0.107-0.853-0.107-1.28 0-0.107 0-0.213 0-0.32 0-0.427-0.107-0.96-0.107-1.387 0-0.107 0-0.107 0-0.213 0-0.533 0-1.067 0-1.6 0 0 0 0 0 0v0c0-0.107 0-0.107 0-0.213v-575.573c0-17.707 14.293-32 32-32h832c17.707 0 32 14.293 32 32v575.787c-0.213 0-0.213 0.107-0.213 0.213zM896 140.8h-768v512h128c17.707 0 32 14.293 32 32s-14.293 32-32 32h-100.16l85.333 128h541.76l85.333-128h-100.267c-17.707 0-32-14.293-32-32s14.293-32 32-32h128v-512zM705.387 469.867v115.093c0 63.253-42.133 119.253-106.56 143.68-14.613 31.147-48.32 52.16-86.827 52.16s-72.213-21.013-86.827-52.16c-64.427-24.427-106.56-80.427-106.56-143.68v-115.093c-3.733-1.6-7.787-3.093-11.84-4.693-16.96-6.507-36.16-13.973-52.16-28.053-20.373-17.92-30.613-42.24-30.613-72.32 0-17.707 14.293-32 32-32h112.853c8-71.893 69.12-128 143.147-128s135.147 56.107 143.147 128h112.853c17.707 0 32 14.293 32 32 0 30.080-10.24 54.4-30.613 72.32-16 14.080-35.2 21.547-52.16 28.053-4.053 1.6-8.107 3.093-11.84 4.693zM512 268.8c-38.613 0-70.933 27.52-78.4 64h156.8c-7.467-36.48-39.787-64-78.4-64zM309.227 396.8c5.44 2.667 12.267 5.44 20.587 8.64 12.8 4.907 26.027 10.027 38.293 18.027 9.067 5.867 14.507 16 14.507 26.773v134.72c0 39.573 30.72 74.667 76.373 87.467 11.627 3.307 20.48 12.907 22.827 24.747 1.813 9.6 13.653 19.627 30.293 19.627s28.48-10.027 30.293-19.627c2.24-11.947 11.093-21.44 22.827-24.747 45.653-12.8 76.373-48 76.373-87.467v-134.613c0-10.773 5.44-20.907 14.507-26.773 12.267-8 25.493-13.12 38.293-18.027 8.32-3.2 15.147-5.973 20.587-8.64h-405.76z" />
<glyph unicode="&#xe959;" glyph-name="fm-alarm-code-16" d="M544 364.8c0-17.673-14.327-32-32-32s-32 14.327-32 32c0 17.673 14.327 32 32 32s32-14.327 32-32zM862.933 844.8h-701.867c-18.24 0-33.067-14.827-33.067-33.067v-701.867c0-18.24 14.827-33.067 33.067-33.067h701.867c18.24 0 33.067 14.827 33.067 33.067v701.867c0 18.24-14.827 33.067-33.067 33.067zM832 140.8h-640v640h640v-640zM352 204.8h320c17.707 0 32 14.293 32 32s-14.293 32-32 32h-320c-17.707 0-32-14.293-32-32s14.293-32 32-32zM512 460.8c17.707 0 32 14.293 32 32v192c0 17.707-14.293 32-32 32s-32-14.293-32-32v-192c0-17.707 14.293-32 32-32z" />
<glyph unicode="&#xe95a;" glyph-name="fm-alarm-turn-16" d="M598.827 696.64c-14.613 31.147-48.32 52.16-86.827 52.16s-72.213-21.013-86.827-52.16c-64.427-24.427-106.56-80.427-106.56-143.68v-115.093c-3.733-1.6-7.787-3.093-11.84-4.693-16.96-6.507-36.16-13.973-52.16-28.053-20.373-17.92-30.613-42.24-30.613-72.32 0-17.707 14.293-32 32-32h112.853c8-71.893 69.12-128 143.147-128s135.147 56.107 143.147 128h112.853c17.707 0 32 14.293 32 32 0 30.080-10.24 54.4-30.613 72.32-16 14.080-35.2 21.547-52.16 28.053-4.053 1.6-8.107 3.093-11.84 4.693v115.093c0 63.253-42.133 119.253-106.56 143.68zM512 236.8c-38.613 0-70.933 27.52-78.4 64h156.8c-7.467-36.48-39.787-64-78.4-64zM714.773 364.8h-405.547c5.44 2.667 12.267 5.44 20.587 8.64 12.8 4.907 26.027 10.027 38.293 18.027 9.067 5.867 14.507 16 14.507 26.773v134.72c0 39.573 30.72 74.667 76.373 87.467 11.627 3.307 20.48 12.907 22.827 24.747 1.813 9.6 13.653 19.627 30.293 19.627s28.48-10.027 30.293-19.627c2.24-11.947 11.093-21.44 22.827-24.747 45.653-12.8 76.373-48 76.373-87.467v-134.613c0-10.773 5.44-20.907 14.507-26.773 12.267-8 25.493-13.12 38.293-18.027 8.107-3.307 14.827-6.080 20.373-8.747zM913.28 352.32c-16.64 5.973-34.987-2.773-40.853-19.413-54.507-153.173-199.36-256.107-360.427-256.107s-305.92 102.933-360.427 256c-5.867 16.64-24.213 25.387-40.853 19.413-16.64-5.867-25.387-24.213-19.413-40.853 15.253-42.987 36.907-83.307 64.32-119.787 27.2-36.267 59.52-68.053 96-94.507 76.053-55.147 166.187-84.267 260.373-84.267 94.293 0 184.32 29.12 260.373 84.267 36.48 26.453 68.8 58.24 96 94.507 0.747 0.96 1.387 1.92 2.133 2.987v-53.76c0-17.707 14.293-32 32-32s32 14.293 32 32v176c0 0.853 0 1.707-0.107 2.56 1.28 14.187-7.147 27.947-21.12 32.96zM868.373 730.027c-27.2 36.267-59.52 68.053-96 94.507-76.053 55.147-166.080 84.267-260.373 84.267s-184.32-29.12-260.373-84.267c-36.48-26.453-68.8-58.24-96-94.507-2.347-3.093-4.587-6.293-6.933-9.493v54.933c0 17.707-14.293 32-32 32s-32-14.293-32-32v-176c0-17.707 14.293-32 32-32 0.747 0 1.493 0 2.347 0.107 14.080-1.067 27.627 7.253 32.533 21.227 54.507 153.067 199.36 256 360.427 256s305.92-102.933 360.427-256c4.693-13.12 16.96-21.333 30.187-21.333 3.52 0 7.147 0.64 10.667 1.813 16.64 5.867 25.387 24.213 19.413 40.853-15.253 42.987-36.907 83.307-64.32 119.893z" />
<glyph unicode="&#xe95b;" glyph-name="fm-current-alarm-16" d="M832 363.947v176.853c0 118.613-72.747 223.68-182.827 266.88-18.347 59.627-73.28 101.12-137.173 101.12s-118.827-41.493-137.173-101.12c-110.080-43.2-182.827-148.267-182.827-266.88v-176.853c-56.853-44.267-96-88.213-96-191.147 0-17.707 14.293-32 32-32h203.52c26.773-75.413 98.667-128 180.48-128s153.707 52.587 180.48 128h203.52c17.707 0 32 14.293 32 32 0 102.933-39.147 146.88-96 191.147zM512 76.8c-46.507 0-88.213 25.493-110.613 64h221.227c-22.4-38.507-64.107-64-110.613-64zM161.707 204.8c6.933 58.667 34.56 82.453 81.6 117.76 8 6.080 12.8 15.467 12.8 25.6v192.64c0 96.853 62.613 182.080 155.733 212.16 11.413 3.627 19.733 13.333 21.76 25.173 6.507 38.72 39.467 66.773 78.613 66.773s72.107-28.053 78.613-66.773c1.92-11.733 10.347-21.547 21.76-25.173 93.12-30.080 155.733-115.307 155.733-212.16v-192.64c0-10.027 4.693-19.52 12.8-25.6 46.933-35.413 74.667-59.093 81.6-117.76h-701.013zM512 652.8c-88.213 0-160-71.787-160-160s71.787-160 160-160 160 71.787 160 160-71.787 160-160 160zM512 396.8c-52.907 0-96 43.093-96 96s43.093 96 96 96 96-43.093 96-96-43.093-96-96-96z" />
<glyph unicode="&#xe95c;" glyph-name="fm-group-16" d="M844.587 417.707c-15.36 8.747-34.88 3.307-43.627-12.053s-3.307-34.88 12.053-43.627c12.053-6.827 18.987-17.493 18.987-29.227s-6.933-22.4-18.88-29.12l-285.333-161.707c-9.707-5.547-21.867-5.547-31.573 0l-285.333 161.707c-11.947 6.72-18.88 17.387-18.88 29.12s6.933 22.4 18.88 29.12c15.36 8.747 20.8 28.267 12.053 43.627s-28.267 20.8-43.627 12.053c-32.107-18.133-51.307-49.92-51.307-84.8s19.2-66.667 51.413-84.907l285.333-161.6c14.613-8.32 30.933-12.373 47.36-12.373 16.32 0 32.747 4.16 47.36 12.373l285.333 161.6c32 18.24 51.2 50.027 51.2 84.907s-19.2 66.667-51.413 84.907zM177.067 505.28l287.68-162.987c14.613-8.32 30.933-12.373 47.36-12.373 16.32 0 32.747 4.16 47.36 12.373l287.467 162.987c30.507 17.28 48.64 48.533 48.64 83.52s-18.24 66.24-48.64 83.52l-287.573 162.987c-29.227 16.533-65.493 16.533-94.613 0l-287.68-162.987c-30.507-17.28-48.64-48.533-48.64-83.52s18.133-66.24 48.64-83.52zM208.533 616.64l287.68 162.987c4.907 2.773 10.347 4.16 15.787 4.16s10.88-1.387 15.787-4.16l287.68-162.987c14.613-8.32 16.213-22.187 16.213-27.84s-1.6-19.52-16.213-27.84l-287.68-162.987c-9.707-5.547-21.867-5.547-31.573 0 0 0 0 0 0 0l-287.68 162.987c-14.613 8.32-16.213 22.187-16.213 27.84s1.6 19.52 16.213 27.84z" />
<glyph unicode="&#xe95d;" glyph-name="fm-history-alarm-16" d="M832 363.947v176.853c0 118.613-72.747 223.68-182.827 266.88-18.347 59.627-73.28 101.12-137.173 101.12s-118.827-41.493-137.173-101.12c-110.080-43.2-182.827-148.267-182.827-266.88v-176.853c-56.853-44.267-96-88.213-96-191.147 0-17.707 14.293-32 32-32h203.52c26.773-75.413 98.667-128 180.48-128s153.707 52.587 180.48 128h203.52c17.707 0 32 14.293 32 32 0 102.933-39.147 146.88-96 191.147zM512 76.8c-46.507 0-88.213 25.493-110.613 64h221.227c-22.4-38.507-64.107-64-110.613-64zM161.707 204.8c6.933 58.667 34.56 82.453 81.6 117.76 8 6.080 12.8 15.467 12.8 25.6v192.64c0 96.853 62.613 182.080 155.733 212.16 11.413 3.627 19.733 13.333 21.76 25.173 6.507 38.72 39.467 66.773 78.613 66.773s72.107-28.053 78.613-66.773c1.92-11.733 10.347-21.547 21.76-25.173 93.12-30.080 155.733-115.307 155.733-212.16v-192.64c0-10.027 4.693-19.52 12.8-25.6 46.933-35.413 74.667-59.093 81.6-117.76h-701.013zM672 460.8h-160v160c0 17.707-14.293 32-32 32s-32-14.293-32-32v-192c0-17.707 14.293-32 32-32h192c17.707 0 32 14.293 32 32s-14.293 32-32 32z" />
<glyph unicode="&#xe95e;" glyph-name="fm-moc-16" d="M879.467 692.053l-350.933 202.667c-10.133 5.867-22.827 5.867-33.067 0l-350.933-202.56c-10.24-5.867-16.533-16.853-16.533-28.587v-405.227c0-11.733 6.293-22.72 16.533-28.587l350.933-202.56c5.12-2.987 10.773-4.373 16.533-4.373s11.413 1.493 16.533 4.373l350.933 202.56c10.24 5.867 16.533 16.853 16.533 28.587v405.013c0 11.84-6.293 22.827-16.533 28.693zM832 276.053l-320-184.747-320 184.747v369.493l320 184.747 320-184.747v-369.493zM272.533 618.133c-10.24-5.867-16.533-16.853-16.533-28.587v-257.387c0-11.733 6.293-22.72 16.533-28.587l222.933-128.747c5.12-2.987 10.773-4.373 16.533-4.373s11.413 1.493 16.533 4.373l222.933 128.747c10.24 5.867 16.533 16.853 16.533 28.587v257.387c0 11.733-6.293 22.72-16.533 28.587l-222.933 128.747c-10.24 5.867-22.827 5.867-33.067 0l-222.933-128.747zM320 533.653l160-91.413v-184.64l-160 92.373v183.68zM544 257.6v184.747l160 92.373v-184.747l-160-92.373zM672 590.080l-160.107-92.373-160.853 91.947 160.96 92.8 160-92.373z" />
<glyph unicode="&#xe95f;" glyph-name="fm-notice-alarm-16" d="M768 619.84v192.96c0 12.267-7.040 23.467-18.133 28.8s-24.213 3.84-33.813-3.84l-143.253-114.56c-53.44-29.333-111.68-49.173-160.32-54.613-0.107 0-0.32 0-0.427 0l-126.080-15.787h-188.907c-18.24 0-33.067-14.827-33.067-33.067v-317.867c0-18.24 14.827-33.067 33.067-33.067h94.933c-0.213-40.32 12.8-82.027 37.227-116.8 29.653-42.347 73.067-69.76 119.147-74.987 1.28-0.107 2.453-0.213 3.733-0.213 16 0 29.867 12.053 31.787 28.373 2.027 17.6-10.56 33.387-28.16 35.413-27.84 3.2-54.827 20.8-74.027 48.213-16.853 24.107-25.92 52.693-25.6 80h29.973l125.973-15.787c0.107 0 0.32 0 0.427 0 48.64-5.44 106.88-25.28 160.32-54.613l143.253-114.56c5.76-4.587 12.907-7.040 19.947-7.040 4.693 0 9.493 1.067 13.867 3.2 11.093 5.333 18.133 16.533 18.133 28.8v192.96c33.173 4.053 63.68 20.48 87.253 47.467 26.24 29.973 40.747 69.653 40.747 111.573s-14.507 81.6-40.747 111.573c-23.573 26.987-54.080 43.413-87.253 47.467zM128 588.8h128v-256h-128v256zM704 175.36l-93.333 74.667c-1.387 1.067-2.88 2.133-4.48 2.987-35.947 19.947-107.84 54.72-186.453 63.467l-99.733 12.587v263.467l99.733 12.48c78.507 8.747 150.507 43.52 186.453 63.467 1.6 0.853 3.093 1.92 4.48 2.987l93.333 74.667v-570.773zM768 366.72v188.16c36.48-8.96 64-47.68 64-94.080s-27.52-85.12-64-94.080z" />
<glyph unicode="&#xe960;" glyph-name="fm-no-voice-16" d="M558.293 841.387c-10.88 5.44-23.787 4.267-33.493-2.987l-238.933-179.2c-5.547-4.16-12.373-6.4-19.2-6.4h-106.667c-52.907 0-96-43.093-96-96v-192c0-52.907 43.093-96 96-96h106.667c6.827 0 13.653-2.24 19.2-6.4l238.933-179.2c5.653-4.267 12.373-6.4 19.2-6.4 4.907 0 9.813 1.067 14.293 3.413 10.88 5.44 17.707 16.533 17.707 28.587v704c0 12.16-6.827 23.253-17.707 28.587zM512 172.8l-187.733 140.8c-16.533 12.373-37.013 19.2-57.6 19.2h-106.667c-17.6 0-32 14.4-32 32v192c0 17.6 14.4 32 32 32h106.667c20.587 0 41.067 6.827 57.6 19.2l187.733 140.8v-576zM886.613 579.413c-12.48 12.48-32.747 12.48-45.227 0l-73.387-73.387-73.387 73.387c-12.48 12.48-32.747 12.48-45.227 0s-12.48-32.747 0-45.227l73.387-73.387-73.387-73.387c-12.48-12.48-12.48-32.747 0-45.227 6.293-6.293 14.4-9.387 22.613-9.387s16.427 3.093 22.613 9.387l73.387 73.387 73.387-73.387c6.293-6.293 14.4-9.387 22.613-9.387s16.427 3.093 22.613 9.387c12.48 12.48 12.48 32.747 0 45.227l-73.387 73.387 73.387 73.387c12.48 12.48 12.48 32.747 0 45.227z" />
<glyph unicode="&#xe961;" glyph-name="fm-restype-16" d="M161.067 844.8c-18.24 0-33.067-14.827-33.067-33.067v-285.867c0-18.24 14.827-33.067 33.067-33.067h285.867c18.24 0 33.067 14.827 33.067 33.067v285.867c0 18.24-14.827 33.067-33.067 33.067h-285.867zM416 556.8h-224v224h224v-224zM128 109.867c0-18.24 14.827-33.067 33.067-33.067h285.867c18.24 0 33.067 14.827 33.067 33.067v285.867c0 18.24-14.827 33.067-33.067 33.067h-285.867c-18.24 0-33.067-14.827-33.067-33.067v-285.867zM192 364.8h224v-224h-224v224zM577.067 844.8c-18.24 0-33.067-14.827-33.067-33.067v-285.867c0-18.24 14.827-33.067 33.067-33.067h285.867c18.24 0 33.067 14.827 33.067 33.067v285.867c0 18.24-14.827 33.067-33.067 33.067h-285.867zM832 556.8h-224v224h224v-224zM743.36 458.667c-6.293 6.293-14.507 9.707-23.36 9.707s-17.173-3.413-23.36-9.707l-182.507-182.507c-6.293-6.293-9.707-14.507-9.707-23.36s3.413-17.173 9.707-23.36l182.507-182.507c6.293-6.293 14.507-9.707 23.36-9.707s17.173 3.413 23.36 9.707l182.507 182.507c6.293 6.293 9.707 14.507 9.707 23.36s-3.413 17.173-9.707 23.36l-182.507 182.507zM720 114.027l-138.773 138.773 138.773 138.773 138.773-138.773-138.773-138.773z" />
<glyph unicode="&#xe962;" glyph-name="fm-setting-16" d="M449.387 384.64c-85.867 0-155.733 69.867-155.733 155.733s69.867 155.733 155.733 155.733 155.733-69.867 155.733-155.733-69.867-155.733-155.733-155.733zM449.387 632.107c-50.56 0-91.733-41.173-91.733-91.733s41.173-91.733 91.733-91.733 91.733 41.173 91.733 91.733-41.173 91.733-91.733 91.733zM344.64 166.4l-16.213 5.227c-53.653 17.6-102.080 46.507-143.68 85.76l-12.053 11.413 2.24 16.32c4.373 31.68-1.387 62.613-16.853 89.173-15.040 25.92-38.080 46.187-66.56 58.347l-15.147 6.507-3.52 16.213c-5.867 27.2-8.853 54.613-8.853 81.173 0 29.227 3.52 58.773 10.347 88.107l3.733 15.787 15.040 6.4c28.907 12.16 52.053 32.427 67.2 58.56 14.827 25.707 20.907 55.467 17.387 85.973l-1.813 16.107 11.947 10.987c42.133 38.933 92.8 68.267 146.773 84.907l15.68 4.907 13.12-10.027c50.133-38.080 119.253-38.080 169.387 0l13.12 10.027 15.68-4.907c53.973-16.64 102.827-44.8 145.387-83.627l12.48-11.413-2.347-16.64c-4.587-32 1.173-63.040 16.747-89.92s39.573-47.467 69.76-59.52l15.787-6.293 3.627-16.64c2.773-12.907 5.12-26.027 6.613-39.36l1.92-21.44c0.96-17.6-12.48-32.747-30.080-33.707-18.773-2.133-32.747 12.587-33.707 30.080l-1.6 17.6c-0.64 5.867-1.6 11.733-2.56 17.6-36.053 17.92-65.173 45.227-85.013 79.573-19.84 34.24-28.8 73.067-26.453 113.173-28.587 23.787-60.267 42.027-94.613 54.507-66.027-42.347-152.32-42.24-218.347 0-35.093-12.8-67.413-31.467-96.32-55.893 1.28-38.187-7.893-75.2-26.88-108.053-19.307-33.387-47.467-60.16-82.133-78.293-3.733-19.52-5.547-39.253-5.547-58.667 0-17.173 1.493-34.773 4.48-52.48 34.133-18.027 61.867-44.587 81.067-77.653 19.733-34.133 28.8-72.747 26.56-112.533 28.053-24.107 59.307-42.773 93.333-55.893 33.28 21.653 71.147 33.067 110.4 33.067 17.707 0 32-14.293 32-32s-14.293-32-32-32c-30.827 0-60.48-10.347-85.76-30.080l-13.76-10.453zM928 140.8h-384c-17.707 0-32 14.293-32 32 0 56.747 43.733 73.707 67.2 82.773 1.28 0.533 2.453 0.96 3.733 1.387v80.853c0 49.92 32.427 94.080 82.133 114.133 13.013 24.533 40.107 40.853 70.933 40.853s57.92-16.32 70.933-40.853c49.707-20.053 82.133-64.213 82.133-114.133v-80.853c1.173-0.533 2.453-0.96 3.733-1.387 23.467-9.067 67.2-26.027 67.2-82.773 0-17.707-14.293-32-32-32zM623.147 204.8h225.6c-3.093 1.6-6.293 3.413-9.28 5.333-9.067 5.973-14.507 16-14.507 26.773v100.907c0 26.027-20.693 49.28-51.413 57.92-11.733 3.2-20.48 12.907-22.827 24.747-0.64 3.52-6.187 8.213-14.827 8.213s-14.187-4.8-14.827-8.213c-2.347-11.84-11.093-21.547-22.827-24.747-30.72-8.64-51.413-31.893-51.413-57.92v-100.907c0-10.773-5.44-20.907-14.507-26.773-2.88-1.92-5.973-3.733-9.173-5.333zM800 12.8h-128c-17.707 0-32 14.293-32 32s14.293 32 32 32h128c17.707 0 32-14.293 32-32s-14.293-32-32-32z" />
<glyph unicode="&#xe963;" glyph-name="fm-unacknownledge-16" d="M874.88 121.173c-23.573 52.48-61.227 87.36-108.693 100.907-24.107 6.933-77.013 9.813-121.173 10.987l48.427 43.947c13.12 11.84 14.080 32.107 2.24 45.227s-32.107 14.080-45.227 2.24l-89.387-81.067c-10.88-10.88-16.64-25.067-17.067-39.467 0-0.747-0.107-1.493-0.107-2.24 0-0.64 0-1.28 0.107-1.92 0.533-14.293 6.187-28.48 17.067-39.36l0.96-0.96 89.28-75.2c5.973-5.013 13.333-7.573 20.587-7.573 9.067 0 18.133 3.84 24.533 11.413 11.413 13.547 9.707 33.707-3.84 45.12l-42.347 35.733c41.707-1.28 82.667-3.84 98.347-8.32 70.827-20.267 83.413-117.653 83.627-119.467 1.813-16.32 15.68-28.373 31.787-28.373 1.173 0 2.347 0.107 3.627 0.213 17.6 1.92 30.187 17.813 28.267 35.307-0.213 1.493-4.16 35.413-21.013 72.853zM480 76.8c17.707 0 32 14.293 32 32s-14.293 32-32 32h-256c-17.6 0-32 14.4-32 32v576c0 17.6 14.4 32 32 32h576c17.6 0 32-14.4 32-32v-448c0-17.707 14.293-32 32-32s32 14.293 32 32v448c0 52.907-43.093 96-96 96h-576c-52.907 0-96-43.093-96-96v-576c0-52.907 43.093-96 96-96h256zM672 652.8h-320c-17.707 0-32-14.293-32-32s14.293-32 32-32h320c17.707 0 32 14.293 32 32s-14.293 32-32 32zM672 460.8h-320c-17.707 0-32-14.293-32-32s14.293-32 32-32h320c17.707 0 32 14.293 32 32s-14.293 32-32 32z" />
<glyph unicode="&#xe964;" glyph-name="fm-voice-16" d="M558.293 841.387c-10.88 5.44-23.787 4.267-33.493-2.987l-238.933-179.2c-5.547-4.16-12.373-6.4-19.2-6.4h-106.667c-52.907 0-96-43.093-96-96v-192c0-52.907 43.093-96 96-96h106.667c6.827 0 13.653-2.24 19.2-6.4l238.933-179.2c5.653-4.267 12.373-6.4 19.2-6.4 4.907 0 9.813 1.067 14.293 3.413 10.88 5.44 17.707 16.533 17.707 28.587v704c0 12.16-6.827 23.253-17.707 28.587zM512 172.8l-187.733 140.8c-16.533 12.373-37.013 19.2-57.6 19.2h-106.667c-17.6 0-32 14.4-32 32v192c0 17.6 14.4 32 32 32h106.667c20.587 0 41.067 6.827 57.6 19.2l187.733 140.8v-576zM695.36 642.667c-12.053 12.907-32.32 13.653-45.227 1.493-12.907-12.053-13.653-32.32-1.493-45.227 35.733-38.187 55.36-87.253 55.36-138.133s-19.627-99.947-55.36-138.133c-12.053-12.907-11.413-33.173 1.6-45.227 6.187-5.76 13.973-8.64 21.867-8.64 8.533 0 17.067 3.413 23.36 10.133 46.827 50.133 72.64 114.667 72.64 181.867-0.107 67.093-25.92 131.733-72.747 181.867zM756.693 757.227c-13.44 11.413-33.707 9.813-45.12-3.627s-9.813-33.707 3.627-45.12c74.24-63.147 116.8-153.387 116.8-247.68s-42.56-184.533-116.693-247.573c-13.44-11.413-15.040-31.68-3.627-45.12 6.293-7.467 15.36-11.307 24.427-11.307 7.36 0 14.72 2.453 20.693 7.573 43.2 36.907 77.44 80.96 101.547 131.093 25.067 52.053 37.653 107.627 37.653 165.333s-12.693 113.28-37.653 165.333c-24.107 50.133-58.347 94.187-101.653 131.093z" />
<glyph unicode="&#xe965;" glyph-name="hmf-16" d="M744.64 700.48c0 114.667-93.333 208-208 208s-208-93.333-208-208c0-70.827 35.52-133.44 89.707-170.987l-80.427-140.693c-15.787 5.227-32.533 8-50.027 8-88.213 0-160-71.787-160-160s71.787-160 160-160 160 71.787 160 160c0 47.787-21.12 90.773-54.507 120.213l82.56 144.533c19.2-5.867 39.467-8.96 60.587-8.96 23.893 0 46.933 4.053 68.267 11.52l76.267-141.44c-25.28-23.36-41.067-56.853-41.067-93.867 0-70.613 57.387-128 128-128s128 57.387 128 128-57.387 128-128 128c-10.56 0-20.8-1.28-30.613-3.733l-75.947 141.12c50.56 37.973 83.2 98.347 83.2 166.293zM288 140.8c-52.907 0-96 43.093-96 96s43.093 96 96 96 96-43.093 96-96-43.093-96-96-96zM832 268.8c0-35.307-28.693-64-64-64s-64 28.693-64 64 28.693 64 64 64 64-28.693 64-64zM536.64 556.48c-79.36 0-144 64.64-144 144s64.64 144 144 144 144-64.64 144-144-64.533-144-144-144z" />
<glyph unicode="&#xe966;" glyph-name="license-16" d="M673.28 652.053h-321.493c-17.707 0-32-14.293-32-32s14.293-32 32-32h321.6c17.707 0 32 14.293 32 32s-14.4 32-32.107 32zM422.4 522.133h-66.667c-17.707 0-32-14.293-32-32s14.293-32 32-32h66.667c17.707 0 32 14.293 32 32s-14.293 32-32 32zM577.387 492.693c0-17.673-14.327-32-32-32s-32 14.327-32 32c0 17.673 14.327 32 32 32s32-14.327 32-32zM703.68 492.693c0-17.673-14.327-32-32-32s-32 14.327-32 32c0 17.673 14.327 32 32 32s32-14.327 32-32zM832.213 783.36l-136.747 125.44h-55.787v-0.107h-365.12c-46.613 0-84.587-43.2-84.587-96.32v-767.573c0-11.84 6.613-22.827 17.173-28.373s23.147-4.8 33.067 2.027l214.827 148.053c34.027 23.467 78.080 23.467 112.107 0l214.827-148.053c5.547-3.733 11.84-5.653 18.24-5.653 5.12 0 10.24 1.173 14.827 3.627 10.56 5.547 17.173 16.427 17.173 28.373v738.56zM768.213 105.707l-164.693 113.493c-55.36 38.080-129.493 38.080-184.853 0l-164.693-113.493v706.667c0 18.453 10.88 32.32 20.587 32.32h365.12v-55.467c0-35.307 28.693-64 64-64h64.64v-619.52z" />
<glyph unicode="&#xe967;" glyph-name="log-16" d="M800 844.8h-96v32c0 17.707-14.293 32-32 32s-32-14.293-32-32v-32h-256v32c0 17.707-14.293 32-32 32s-32-14.293-32-32v-32h-96c-17.707 0-32-14.293-32-32v-768c0-17.707 14.293-32 32-32h576c17.707 0 32 14.293 32 32v768c0 17.707-14.293 32-32 32zM768 76.8h-512v704h64v-32.107c0-17.707 14.293-32 32-32s32 14.293 32 32v32.107h256v-32.107c0-17.707 14.293-32 32-32s32 14.293 32 32v32.107h64v-704zM666.347 591.467h-322.667c-17.707 0-32-14.293-32-32s14.293-32 32-32h322.667c17.707 0 32 14.293 32 32s-14.293 32-32 32zM666.347 460.8h-322.667c-17.707 0-32-14.293-32-32s14.293-32 32-32h322.667c17.707 0 32 14.293 32 32s-14.293 32-32 32zM666.347 332.8h-322.667c-17.707 0-32-14.293-32-32s14.293-32 32-32h322.667c17.707 0 32 14.293 32 32s-14.293 32-32 32z" />
<glyph unicode="&#xe968;" glyph-name="mml-16" d="M126.933 758.613v-595.733c0-47.467 38.613-86.187 86.187-86.187h595.733c47.467 0 86.187 38.613 86.187 86.187v595.733c0 47.467-38.613 86.187-86.187 86.187h-595.733c-47.467 0-86.187-38.613-86.187-86.187zM830.933 758.613v-595.733c0-12.267-9.92-22.187-22.187-22.187h-595.627c-12.267 0-22.187 9.92-22.187 22.187v595.733c0 12.267 9.92 22.187 22.187 22.187h595.733c12.16 0 22.080-9.92 22.080-22.187zM265.92 440.107l197.547-162.987c5.973-4.907 13.227-7.36 20.373-7.36 9.173 0 18.347 3.947 24.747 11.627 11.2 13.653 9.28 33.813-4.267 45.013l-167.040 137.813 166.293 130.987c13.867 10.987 16.32 31.040 5.333 44.907s-31.040 16.32-44.907 5.333l-197.547-155.52c-7.573-5.973-12.053-15.147-12.16-24.747s4.16-18.88 11.627-25.067zM606.933 269.76h125.227c17.707 0 32 14.293 32 32s-14.293 32-32 32h-125.227c-17.707 0-32-14.293-32-32s14.4-32 32-32z" />
<glyph unicode="&#xe969;" glyph-name="mml-batch-command-16" d="M128 556.8v-448c0-17.707 14.293-32 32-32h704c17.707 0 32 14.293 32 32v448c0 17.707-14.293 32-32 32h-704c-17.707 0-32-14.293-32-32zM192 524.8h640v-384h-640v384zM192 684.8c0-17.707 14.293-32 32-32h576c17.707 0 32 14.293 32 32s-14.293 32-32 32h-576c-17.707 0-32-14.293-32-32zM736 780.8c17.707 0 32 14.293 32 32s-14.293 32-32 32h-448c-17.707 0-32-14.293-32-32s14.293-32 32-32h448zM399.253 444.053c-12.48 12.48-32.747 12.48-45.227 0l-88.64-88.64c-12.48-12.48-12.48-32.747 0-45.227l88.64-88.64c6.293-6.293 14.4-9.387 22.613-9.387s16.427 3.093 22.613 9.387c12.48 12.48 12.48 32.747 0 45.227l-66.027 66.027 66.027 66.027c12.48 12.48 12.48 32.747 0 45.227zM669.973 444.053c-12.48 12.48-32.747 12.48-45.227 0s-12.48-32.747 0-45.227l66.027-66.027-66.027-66.027c-12.48-12.48-12.48-32.747 0-45.227 6.293-6.293 14.4-9.387 22.613-9.387s16.427 3.093 22.613 9.387l88.64 88.64c12.48 12.48 12.48 32.747 0 45.227l-88.64 88.64zM554.133 459.2c-16.747 5.547-34.88-3.52-40.427-20.267l-64-192c-5.547-16.747 3.52-34.88 20.267-40.427 3.307-1.067 6.72-1.6 10.133-1.6 13.44 0 25.92 8.533 30.4 21.867l64 192c5.44 16.64-3.627 34.773-20.373 40.427z" />
<glyph unicode="&#xe96a;" glyph-name="mml-debug-16" d="M224 844.8c-70.613 0-128-57.387-128-128 0-59.52 40.853-109.653 96-123.947v-484.053c0-17.707 14.293-32 32-32s32 14.293 32 32v484.053c55.147 14.293 96 64.427 96 123.947 0 70.613-57.387 128-128 128zM224 652.8c0 0 0 0 0 0s0 0 0 0c-35.307 0-64 28.693-64 64s28.693 64 64 64 64-28.693 64-64c0-35.307-28.693-64-64-64zM512 844.8c-17.707 0-32-14.293-32-32v-228.053c-55.147-14.293-96-64.427-96-123.947s40.853-109.653 96-123.947v-228.053c0-17.707 14.293-32 32-32s32 14.293 32 32v228.053c55.147 14.293 96 64.427 96 123.947s-40.853 109.653-96 123.947v228.053c0 17.707-14.293 32-32 32zM576 460.8c0-35.307-28.693-64-64-64 0 0 0 0 0 0s0 0 0 0c-35.307 0-64 28.693-64 64s28.693 64 64 64 64-28.693 64-64zM832 328.747v484.053c0 17.707-14.293 32-32 32s-32-14.293-32-32v-484.053c-55.147-14.293-96-64.427-96-123.947 0-70.613 57.387-128 128-128s128 57.387 128 128c0 59.52-40.853 109.653-96 123.947zM800 140.8c-35.307 0-64 28.693-64 64s28.693 64 64 64 64-28.693 64-64-28.693-64-64-64z" />
<glyph unicode="&#xe96b;" glyph-name="mml-dele-single-16" d="M928 908.8h-832c-17.707 0-32-14.293-32-32v-704c0-17.707 14.293-32 32-32h256c17.707 0 32 14.293 32 32s-14.293 32-32 32h-224v640h768v-390.4c0-17.707 14.293-32 32-32s32 14.293 32 32v422.4c0 17.707-14.293 32-32 32zM448 236.8c0-123.52 100.48-224 224-224s224 100.48 224 224-100.48 224-224 224-224-100.48-224-224zM832 236.8c0-88.213-71.787-160-160-160s-160 71.787-160 160 71.787 160 160 160 160-71.787 160-160zM576 236.8c0-17.707 14.293-32 32-32h128c17.707 0 32 14.293 32 32s-14.293 32-32 32h-128c-17.707 0-32-14.293-32-32zM342.613 771.413c-12.48 12.48-32.747 12.48-45.227 0l-96-96c-12.48-12.48-12.48-32.747 0-45.227l96-96c6.293-6.293 14.4-9.387 22.613-9.387s16.427 3.093 22.613 9.387c12.48 12.48 12.48 32.747 0 45.227l-73.387 73.387 73.387 73.387c12.48 12.48 12.48 32.747 0 45.227zM681.387 534.187c6.293-6.293 14.4-9.387 22.613-9.387s16.427 3.093 22.613 9.387l96 96c12.48 12.48 12.48 32.747 0 45.227l-96 96c-12.48 12.48-32.747 12.48-45.227 0s-12.48-32.747 0-45.227l73.387-73.387-73.387-73.387c-12.48-12.48-12.48-32.747 0-45.227zM554.133 779.2c-16.747 5.547-34.88-3.52-40.427-20.267l-64-192c-5.547-16.747 3.52-34.88 20.267-40.427 3.307-1.067 6.72-1.6 10.133-1.6 13.44 0 25.92 8.533 30.4 21.867l64 192c5.44 16.64-3.627 34.773-20.373 40.427z" />
<glyph unicode="&#xe96c;" glyph-name="mml-execut-next-16" d="M691.733 485.973l-448 352c-9.6 7.573-22.72 8.96-33.707 3.627s-18.027-16.533-18.027-28.8v-704c0-12.267 7.040-23.467 18.027-28.8 4.48-2.133 9.173-3.2 13.973-3.2 7.040 0 13.973 2.347 19.733 6.827l448 352c7.68 6.080 12.267 15.36 12.267 25.173s-4.48 19.093-12.267 25.173zM256 174.613v572.373l364.16-286.187-364.16-286.187zM736 76.8c17.707 0 32 14.293 32 32v704c0 17.707-14.293 32-32 32s-32-14.293-32-32v-704c0-17.707 14.293-32 32-32z" />
<glyph unicode="&#xe96d;" glyph-name="mml-grammar-check-16" d="M864 460.8c-17.707 0-32-14.293-32-32v-288h-640v640h163.52c17.707 0 32 14.293 32 32s-14.293 32-32 32h-195.52c-17.707 0-32-14.293-32-32v-704c0-17.707 14.293-32 32-32h704c17.707 0 32 14.293 32 32v320c0 17.707-14.293 32-32 32zM494.827 829.973c-30.187-30.187-46.827-70.4-46.827-113.173s16.64-82.88 46.827-113.173c30.187-30.187 70.4-46.827 113.173-46.827 36.267 0 70.613 11.947 98.667 34.027l73.28-58.987c5.867-4.8 13.013-7.040 20.053-7.040 9.387 0 18.667 4.053 24.96 11.947 11.093 13.76 8.853 33.92-4.907 45.013l-71.893 57.813c12.907 23.36 19.84 49.813 19.84 77.227 0 42.773-16.64 82.88-46.827 113.173-30.293 30.187-70.4 46.827-113.173 46.827s-82.88-16.64-113.173-46.827zM675.84 648.96c-18.133-18.133-42.24-28.16-67.84-28.16s-49.707 10.027-67.84 28.16c-37.44 37.44-37.44 98.347 0 135.787 18.133 18.133 42.24 28.16 67.84 28.16s49.707-10.027 67.84-28.16c37.44-37.547 37.44-98.347 0-135.787zM288 460.8h192c17.707 0 32 14.293 32 32s-14.293 32-32 32h-192c-17.707 0-32-14.293-32-32s14.293-32 32-32zM288 268.8h448c17.707 0 32 14.293 32 32s-14.293 32-32 32h-448c-17.707 0-32-14.293-32-32s14.293-32 32-32z" />
<glyph unicode="&#xe96e;" glyph-name="mml-lose-error-16" d="M128 460.8c0-17.673-14.327-32-32-32s-32 14.327-32 32c0 17.673 14.327 32 32 32s32-14.327 32-32zM256 460.8c0-17.673-14.327-32-32-32s-32 14.327-32 32c0 17.673 14.327 32 32 32s32-14.327 32-32zM832 460.8c0-17.673-14.327-32-32-32s-32 14.327-32 32c0 17.673 14.327 32 32 32s32-14.327 32-32zM960 460.8c0-17.673-14.327-32-32-32s-32 14.327-32 32c0 17.673 14.327 32 32 32s32-14.327 32-32zM329.387 278.187c6.293-6.293 14.4-9.387 22.613-9.387s16.427 3.093 22.613 9.387l137.387 137.387 137.387-137.387c6.293-6.293 14.4-9.387 22.613-9.387s16.427 3.093 22.613 9.387c12.48 12.48 12.48 32.747 0 45.227l-137.387 137.387 137.387 137.387c12.48 12.48 12.48 32.747 0 45.227s-32.747 12.48-45.227 0l-137.387-137.387-137.387 137.387c-12.48 12.48-32.747 12.48-45.227 0s-12.48-32.747 0-45.227l137.387-137.387-137.387-137.387c-12.48-12.48-12.48-32.747 0-45.227zM913.28 352.32c-16.64 5.973-34.987-2.773-40.853-19.413-54.507-153.173-199.36-256.107-360.427-256.107s-305.92 102.933-360.427 256c-5.867 16.64-24.213 25.387-40.853 19.413-16.64-5.867-25.387-24.213-19.413-40.853 15.253-42.987 36.907-83.307 64.32-119.787 27.2-36.267 59.52-68.053 96-94.507 76.053-55.147 166.187-84.267 260.373-84.267 94.293 0 184.32 29.12 260.373 84.267 36.48 26.453 68.8 58.24 96 94.507 27.413 36.48 49.067 76.8 64.32 119.787 5.867 16.747-2.773 34.987-19.413 40.96zM868.373 730.027c-27.2 36.267-59.52 68.053-96 94.507-76.053 55.147-166.080 84.267-260.373 84.267s-184.32-29.12-260.373-84.267c-36.48-26.453-68.8-58.24-96-94.507-27.413-36.48-49.067-76.8-64.32-119.787-5.867-16.64 2.773-34.987 19.413-40.853s34.987 2.773 40.853 19.413c54.507 153.067 199.36 256 360.427 256s305.92-102.933 360.427-256c4.693-13.12 16.96-21.333 30.187-21.333 3.52 0 7.147 0.64 10.667 1.813 16.64 5.867 25.387 24.213 19.413 40.853-15.253 42.987-36.907 83.307-64.32 119.893z" />
</font>
</defs>
</svg>
