<?xml version="1.0" standalone="no"?>
<!DOCTYPE svg PUBLIC "-//W3C//DTD SVG 1.1//EN" "http://www.w3.org/Graphics/SVG/1.1/DTD/svg11.dtd" >
<svg xmlns="http://www.w3.org/2000/svg">
<metadata>Generated by IcoMoon</metadata>
<defs>
<font id="ZteIctIcons" horiz-adv-x="1024">
<font-face units-per-em="1024" ascent="960" descent="-64" />
<missing-glyph horiz-adv-x="1024" />
<glyph unicode="&#x20;" horiz-adv-x="512" d="" />
<glyph unicode="&#xe900;" glyph-name="pm-query" d="M448 320c57.6 0 108.8 19.2 147.2 51.2l147.2-147.2c6.4-6.4 12.8-6.4 25.6-6.4s19.2 0 25.6 6.4c12.8 12.8 12.8 32 0 44.8l-147.2 147.2c32 38.4 57.6 96 57.6 160 0 140.8-115.2 256-256 256s-256-115.2-256-256c0-140.8 115.2-256 256-256zM448 768c108.8 0 192-83.2 192-192s-83.2-192-192-192-192 83.2-192 192 83.2 192 192 192zM864 128h-672v236.8c0 19.2-12.8 32-32 32s-32-12.8-32-32v-268.8c0-19.2 12.8-32 32-32h704c19.2 0 32 12.8 32 32s-12.8 32-32 32z" />
<glyph unicode="&#xe901;" glyph-name="sm-follow-up" d="M153.6 499.2c12.8-6.4 32 6.4 38.4 25.6 38.4 140.8 172.8 243.2 320 243.2s281.6-102.4 320-243.2c6.4-12.8 19.2-25.6 32-25.6 0 0 6.4 0 6.4 0 19.2 6.4 25.6 25.6 19.2 38.4-44.8 172.8-204.8 294.4-377.6 294.4-128 0-243.2-64-320-166.4v70.4c0 19.2-12.8 32-32 32s-32-12.8-32-32v-192c0 0 0-6.4 0-6.4 0-12.8 6.4-32 25.6-38.4zM896 358.4c6.4 19.2-6.4 32-19.2 38.4-19.2 6.4-32-6.4-38.4-19.2-44.8-147.2-172.8-243.2-320-243.2s-281.6 102.4-320 243.2c-12.8 12.8-32 25.6-44.8 19.2-19.2-6.4-32-25.6-25.6-38.4 51.2-172.8 211.2-294.4 384-294.4 128 0 243.2 64 320 166.4v-70.4c0-19.2 12.8-32 32-32s32 12.8 32 32v198.4c0-6.4 0 0 0 0zM486.4 627.2l-160-256c-6.4-12.8-6.4-25.6 0-32 6.4-12.8 12.8-19.2 25.6-19.2h320c12.8 0 19.2 6.4 25.6 19.2s6.4 25.6 0 32l-160 256c-12.8 19.2-38.4 19.2-51.2 0zM409.6 384l102.4 166.4 102.4-166.4h-204.8z" />
<glyph unicode="&#xe902;" glyph-name="sm-syn-down" d="M672 576h-320c-12.8 0-19.2-6.4-25.6-19.2-6.4-6.4-6.4-19.2 0-32l160-256c6.4-6.4 12.8-12.8 25.6-12.8s19.2 6.4 25.6 12.8l160 256c6.4 12.8 6.4 19.2 0 32s-12.8 19.2-25.6 19.2zM512 345.6l-102.4 166.4h204.8l-102.4-166.4zM153.6 499.2c12.8-6.4 32 6.4 38.4 25.6 38.4 140.8 172.8 243.2 320 243.2s281.6-102.4 320-243.2c6.4-12.8 19.2-25.6 32-25.6 0 0 6.4 0 6.4 0 19.2 6.4 25.6 25.6 19.2 38.4-44.8 172.8-204.8 294.4-377.6 294.4-128 0-243.2-64-320-166.4v70.4c0 19.2-12.8 32-32 32s-32-12.8-32-32v-192c0 0 0-6.4 0-6.4 0-12.8 6.4-32 25.6-38.4zM896 358.4c6.4 19.2-6.4 32-19.2 38.4-19.2 6.4-32-6.4-38.4-19.2-44.8-147.2-172.8-243.2-320-243.2s-281.6 102.4-320 243.2c-12.8 12.8-32 25.6-44.8 19.2-19.2-6.4-32-25.6-25.6-38.4 51.2-172.8 211.2-294.4 384-294.4 128 0 243.2 64 320 166.4v-70.4c0-19.2 12.8-32 32-32s32 12.8 32 32v198.4c0-6.4 0 0 0 0z" />
<glyph unicode="&#xe903;" glyph-name="pm" d="M870.4 896h-716.8c-51.2 0-96-44.8-96-96v-704c0-51.2 44.8-96 96-96h716.8c51.2 0 96 44.8 96 96v704c0 51.2-44.8 96-96 96zM153.6 832h716.8c19.2 0 32-12.8 32-32v-281.6c0 0 0 0 0 0h-224c-12.8 0-25.6-6.4-32-19.2l-25.6-51.2-51.2 236.8c0 12.8-12.8 25.6-32 25.6-12.8 0-25.6-12.8-32-25.6l-96-345.6-32 147.2c-6.4 12.8-19.2 19.2-32 25.6-12.8 0-25.6-6.4-32-19.2l-51.2-102.4h-140.8v409.6c0 19.2 12.8 32 32 32zM870.4 64h-716.8c-19.2 0-32 12.8-32 32v230.4h160c12.8 0 25.6 6.4 25.6 19.2l25.6 44.8 44.8-179.2c6.4-12.8 19.2-25.6 32-25.6 0 0 0 0 0 0 12.8 0 25.6 6.4 32 25.6l96 332.8 38.4-204.8c0-12.8 12.8-19.2 25.6-19.2s25.6 6.4 32 19.2l57.6 121.6h204.8c0 0 0 0 0 0v-358.4c6.4-25.6-6.4-38.4-25.6-38.4z" />
<glyph unicode="&#xe904;" glyph-name="pm-monitor" d="M864 896h-704c-51.2 0-96-44.8-96-96v-512c0-51.2 44.8-96 96-96h224v-128h-96c-19.2 0-32-12.8-32-32s12.8-32 32-32h448c19.2 0 32 12.8 32 32s-12.8 32-32 32h-96v128h224c51.2 0 96 44.8 96 96v512c0 51.2-44.8 96-96 96zM576 64h-128v128h128v-128zM896 288c0-19.2-12.8-32-32-32h-704c-19.2 0-32 12.8-32 32v512c0 19.2 12.8 32 32 32h704c19.2 0 32-12.8 32-32v-512zM512 710.4c-166.4 0-307.2-134.4-313.6-140.8-12.8-12.8-12.8-25.6 0-38.4 6.4-6.4 140.8-147.2 313.6-147.2 166.4 0 307.2 134.4 313.6 140.8 12.8 12.8 12.8 25.6 0 38.4-6.4 6.4-147.2 147.2-313.6 147.2zM512 512c-19.2 0-38.4 6.4-38.4 32s19.2 44.8 38.4 44.8 38.4-19.2 38.4-38.4-12.8-38.4-38.4-38.4zM473.6 640c-38.4-12.8-64-51.2-64-96s25.6-76.8 64-89.6c-89.6 12.8-166.4 57.6-204.8 89.6 38.4 32 115.2 83.2 204.8 96zM556.8 454.4c38.4 19.2 57.6 44.8 57.6 89.6s-25.6 76.8-57.6 96c83.2-12.8 160-64 192-96-32-32-108.8-70.4-192-89.6z" />
<glyph unicode="&#xe905;" glyph-name="pm-customized" d="M832 576c-12.8 0-19.2 0-32-6.4v70.4c0 51.2-44.8 96-96 96h-102.4c0 12.8 6.4 19.2 6.4 32 0 70.4-57.6 128-128 128s-128-57.6-128-128c0-12.8 0-19.2 6.4-32h-198.4c-51.2 0-96-44.8-96-96v-121.6c0-12.8 6.4-25.6 19.2-32s25.6 0 32 6.4c12.8 12.8 32 19.2 44.8 19.2 38.4 0 64-25.6 64-64s-25.6-64-64-64c-12.8 0-32 6.4-44.8 19.2-6.4 6.4-19.2 6.4-32 6.4-12.8-6.4-19.2-19.2-19.2-32v-121.6c0-51.2 44.8-96 96-96h198.4c0-12.8-6.4-19.2-6.4-32 0-70.4 57.6-128 128-128s128 57.6 128 128c0 12.8 0 19.2-6.4 32h102.4c51.2 0 96 44.8 96 96v70.4c12.8 0 19.2-6.4 32-6.4 70.4 0 128 57.6 128 128s-57.6 128-128 128zM832 384c-12.8 0-32 6.4-44.8 19.2-6.4 6.4-25.6 12.8-32 6.4-12.8-6.4-19.2-19.2-19.2-32v-121.6c0-19.2-12.8-32-32-32h-153.6c-12.8 0-25.6-6.4-32-19.2s0-25.6 6.4-32 19.2-25.6 19.2-44.8c0-38.4-25.6-64-64-64s-64 25.6-64 64c0 19.2 6.4 32 19.2 44.8 6.4 6.4 12.8 25.6 6.4 32-6.4 12.8-19.2 19.2-32 19.2h-249.6c-19.2 0-32 12.8-32 32v70.4c12.8-6.4 19.2-6.4 32-6.4 70.4 0 128 57.6 128 128s-57.6 128-128 128c-12.8 0-19.2 0-32-6.4v70.4c0 19.2 12.8 32 32 32h249.6c12.8 0 25.6 6.4 32 19.2s0 25.6-6.4 32c-12.8 12.8-19.2 25.6-19.2 44.8 0 38.4 25.6 64 64 64s64-25.6 64-64c0-19.2-6.4-32-19.2-44.8-6.4-6.4-6.4-19.2 0-32s19.2-19.2 32-19.2h153.6c12.8 0 25.6-12.8 25.6-32v-121.6c0-12.8 6.4-25.6 19.2-32s25.6 0 32 6.4c12.8 12.8 32 19.2 44.8 19.2 38.4 0 64-25.6 64-64s-25.6-64-64-64z" />
<glyph unicode="&#xe906;" glyph-name="fm-group" d="M518.4 339.2c-25.6 0-57.6 6.4-83.2 25.6l-243.2 140.8c-44.8 19.2-64 57.6-64 89.6 0 38.4 25.6 64 64 83.2l243.2 128c44.8 25.6 102.4 25.6 147.2 0l249.6-134.4c38.4-25.6 64-57.6 64-96 0-32-25.6-64-57.6-76.8l-243.2-134.4c-19.2-19.2-51.2-25.6-76.8-25.6zM512 761.6c-12.8 0-32-6.4-44.8-12.8l-243.2-128c-19.2-6.4-32-12.8-32-25.6s6.4-25.6 25.6-38.4l249.6-140.8c25.6-19.2 64-19.2 89.6 0l243.2 134.4c19.2 6.4 32 12.8 32 25.6s-12.8 32-32 38.4l-243.2 140.8c-19.2 6.4-32 6.4-44.8 6.4zM518.4 64c-25.6 0-57.6 6.4-83.2 25.6l-249.6 147.2c-32 19.2-57.6 51.2-57.6 83.2s25.6 70.4 64 89.6l12.8 6.4c12.8 6.4 32 0 44.8-12.8 6.4-12.8 0-32-12.8-44.8h-19.2c-12.8-12.8-25.6-25.6-25.6-38.4s12.8-25.6 25.6-32l249.6-147.2c32-19.2 64-19.2 96 0l243.2 140.8c19.2 6.4 25.6 19.2 25.6 32s-12.8 25.6-25.6 32l-12.8 6.4c-19.2 12.8-25.6 32-12.8 44.8 6.4 12.8 25.6 19.2 44.8 12.8l6.4-6.4c38.4-19.2 64-51.2 64-89.6s-19.2-70.4-57.6-89.6l-243.2-140.8c-19.2-12.8-51.2-19.2-76.8-19.2z" />
<glyph unicode="&#xe907;" glyph-name="fm-alarm-code" d="M640 192h-256c-19.2 0-32 12.8-32 32s12.8 32 32 32h256c19.2 0 32-12.8 32-32s-12.8-32-32-32zM512 416c-19.2 0-32 12.8-32 32v192c0 19.2 12.8 32 32 32s32-12.8 32-32v-192c0-19.2-12.8-32-32-32zM544 352c0-17.673-14.327-32-32-32s-32 14.327-32 32c0 17.673 14.327 32 32 32s32-14.327 32-32zM800 64h-576c-57.6 0-96 38.4-96 96v576c0 57.6 38.4 96 96 96h576c57.6 0 96-38.4 96-96v-576c0-57.6-38.4-96-96-96zM224 768c-19.2 0-32-12.8-32-32v-576c0-19.2 12.8-32 32-32h576c19.2 0 32 12.8 32 32v576c0 19.2-12.8 32-32 32h-576z" />
<glyph unicode="&#xe908;" glyph-name="new" d="M864 505.6h-352v358.4c0 19.2-12.8 32-32 32s-32-12.8-32-32v-352h-352c-19.2-6.4-32-19.2-32-38.4s12.8-32 32-32h352v-352c0-12.8 12.8-25.6 32-25.6s32 12.8 32 32v345.6h352c19.2 0 32 12.8 32 32s-12.8 32-32 32z" />
<glyph unicode="&#xe909;" glyph-name="fm-restype" d="M390.4 64h-166.4c-51.2 0-96 44.8-96 96v166.4c0 51.2 44.8 96 96 96h166.4c51.2 0 96-44.8 96-96v-166.4c0-51.2-44.8-96-96-96zM224 358.4c-19.2 0-32-12.8-32-32v-166.4c0-19.2 12.8-32 32-32h166.4c19.2 0 32 12.8 32 32v166.4c0 19.2-12.8 32-32 32h-166.4zM390.4 473.6h-166.4c-51.2 0-96 44.8-96 96v166.4c0 51.2 44.8 96 96 96h166.4c51.2 0 96-44.8 96-96v-166.4c0-51.2-44.8-96-96-96zM224 768c-19.2 0-32-12.8-32-32v-166.4c0-19.2 12.8-32 32-32h166.4c19.2 0 32 12.8 32 32v166.4c0 19.2-12.8 32-32 32h-166.4zM800 64h-166.4c-51.2 0-96 44.8-96 96v166.4c0 51.2 44.8 96 96 96h166.4c51.2 0 96-44.8 96-96v-166.4c0-51.2-44.8-96-96-96zM633.6 358.4c-19.2 0-32-12.8-32-32v-166.4c0-19.2 12.8-32 32-32h166.4c19.2 0 32 12.8 32 32v166.4c0 19.2-12.8 32-32 32h-166.4zM800 473.6h-166.4c-51.2 0-96 44.8-96 96v166.4c0 51.2 44.8 96 96 96h166.4c51.2 0 96-44.8 96-96v-166.4c0-51.2-44.8-96-96-96zM633.6 768c-19.2 0-32-12.8-32-32v-166.4c0-19.2 12.8-32 32-32h166.4c19.2 0 32 12.8 32 32v166.4c0 19.2-12.8 32-32 32h-166.4z" />
<glyph unicode="&#xe90a;" glyph-name="fm-moc" d="M716.8 620.8l-160 96c-32 19.2-64 19.2-96 0l-153.6-96c-32-12.8-51.2-44.8-51.2-76.8v-185.6c0-32 19.2-64 44.8-83.2l160-89.6c12.8-6.4 32-12.8 51.2-12.8s32 6.4 51.2 12.8l160 89.6c32 19.2 44.8 51.2 51.2 83.2v179.2c-12.8 38.4-32 70.4-57.6 83.2zM492.8 659.2c12.8 6.4 19.2 6.4 32 0l147.2-83.2-166.4-89.6-160 89.6 147.2 83.2zM332.8 326.4c-12.8 6.4-12.8 19.2-12.8 32v160l160-89.6v-185.6l-147.2 83.2zM684.8 326.4l-147.2-83.2v185.6l160 89.6v-160c0-12.8-6.4-25.6-12.8-32zM864 704l-300.8 172.8c-32 19.2-70.4 19.2-96 0l-307.2-172.8c-25.6-19.2-44.8-51.2-44.8-83.2v-352c0-32 19.2-64 44.8-83.2l300.8-172.8c19.2-6.4 38.4-12.8 51.2-12.8s32 6.4 51.2 12.8l300.8 172.8c32 19.2 44.8 51.2 51.2 83.2v352c-6.4 32-19.2 64-51.2 83.2zM844.8 268.8c0-12.8-6.4-19.2-19.2-25.6l-300.8-172.8c-12.8-6.4-19.2-6.4-32 0l-300.8 172.8c-12.8 6.4-12.8 19.2-12.8 25.6v352c0 12.8 6.4 19.2 12.8 25.6l300.8 172.8c6.4 0 12.8 6.4 19.2 6.4s12.8 0 19.2-6.4l300.8-172.8c12.8-6.4 19.2-19.2 19.2-25.6v-352z" />
<glyph unicode="&#xe90b;" glyph-name="col" d="M224 0c-19.2 0-32 12.8-32 32v832c0 12.8 12.8 32 32 32s32-19.2 32-32v-832c0-19.2-12.8-32-32-32zM480 0c-12.8 0-32 12.8-32 32v832c0 12.8 19.2 32 32 32s32-19.2 32-32v-832c0-19.2-12.8-32-32-32zM736 0c-19.2 0-32 12.8-32 32v832c0 12.8 19.2 32 32 32s32-19.2 32-32v-832c0-19.2-12.8-32-32-32z" />
<glyph unicode="&#xe90c;" glyph-name="filter" d="M889.6 876.8c0 12.8-12.8 19.2-25.6 19.2h-704c-12.8 0-25.6-6.4-25.6-19.2-6.4-6.4-6.4-19.2 0-32l249.6-358.4v-262.4c0-6.4 6.4-19.2 6.4-25.6l192-192c6.4 0 19.2-6.4 25.6-6.4s6.4 0 12.8 0c12.8 6.4 19.2 19.2 19.2 32v454.4l249.6 358.4c6.4 12.8 6.4 25.6 0 32zM582.4 518.4c-6.4-6.4-6.4-12.8-6.4-19.2v-390.4l-128 128v262.4c0 6.4 0 12.8-6.4 19.2l-217.6 313.6h582.4l-224-313.6z" />
<glyph unicode="&#xe90d;" glyph-name="filter-f" d="M889.6 876.8c0 12.8-12.8 19.2-25.6 19.2h-704c-12.8 0-25.6-6.4-25.6-19.2-6.4-6.4-6.4-19.2 0-32l249.6-358.4v-262.4c0-6.4 6.4-19.2 6.4-25.6l192-192c6.4 0 19.2-6.4 25.6-6.4s6.4 0 12.8 0c12.8 6.4 19.2 19.2 19.2 32v454.4l249.6 358.4c6.4 12.8 6.4 25.6 0 32z" />
<glyph unicode="&#xe90e;" glyph-name="code" d="M826.514 813.714h-629.029c-109.714 0-197.486-65.829-197.486-153.6v-563.2c0-95.086 87.771-160.914 197.486-160.914h629.029c109.714 0 197.486 73.143 197.486 160.914v563.2c0 87.771-87.771 153.6-197.486 153.6zM950.857 89.6c0-43.886-58.514-87.771-124.343-87.771h-629.029c-65.829 7.314-124.343 43.886-124.343 87.771v570.514c0 43.886 58.514 80.457 124.343 80.457h629.029c65.829 0 124.343-36.571 124.343-80.457v-570.514zM724.114 521.143c-14.629 14.629-36.571 14.629-51.2 0s-14.629-36.571 0-51.2l102.4-102.4-95.086-102.4c-14.629-14.629-14.629-36.571 0-51.2 7.314-7.314 14.629-7.314 21.943-7.314s21.943 7.314 29.257 14.629l124.343 131.657c14.629 14.629 14.629 36.571 0 51.2l-131.657 117.029zM365.714 506.514c-14.629 14.629-36.571 14.629-51.2 0l-124.343-124.343c-14.629-14.629-14.629-36.571 0-51.2l124.343-131.657c7.314-7.314 14.629-14.629 29.257-14.629 7.314 0 14.629 0 21.943 7.314 14.629 14.629 14.629 36.571 0 51.2l-102.4 109.714 102.4 102.4c14.629 14.629 14.629 36.571 0 51.2zM585.143 535.771c-21.943 7.314-43.886 0-51.2-21.943l-87.771-292.571c-7.314-21.943 7.314-36.571 21.943-43.886 0 0 7.314 0 7.314 0 14.629 0 29.257 7.314 36.571 29.257l87.771 292.571c14.629 14.629 0 36.571-14.629 36.571z" />
<glyph unicode="&#xe90f;" glyph-name="code-f" d="M826.514 813.714h-629.029c-109.714 0-197.486-65.829-197.486-153.6v-563.2c0-95.086 87.771-160.914 197.486-160.914h629.029c109.714 0 197.486 73.143 197.486 160.914v563.2c0 87.771-87.771 153.6-197.486 153.6zM365.714 250.514c14.629-14.629 14.629-36.571 0-51.2-7.314-7.314-14.629-7.314-21.943-7.314s-21.943 7.314-29.257 14.629l-124.343 124.343c-14.629 14.629-14.629 36.571 0 51.2l131.657 131.657c7.314 7.314 29.257 7.314 43.886-7.314s14.629-36.571 0-51.2l-102.4-102.4 102.4-102.4zM607.086 491.886l-87.771-292.571c-7.314-14.629-21.943-29.257-36.571-29.257 0 0-7.314 0-7.314 0-21.943 7.314-29.257 29.257-21.943 43.886l87.771 292.571c0 29.257 21.943 36.571 43.886 29.257 14.629 0 29.257-21.943 21.943-43.886zM855.771 345.6l-124.343-131.657c-7.314-7.314-14.629-14.629-29.257-14.629-7.314 0-14.629 0-21.943 7.314-14.629 14.629-14.629 36.571 0 51.2l95.086 102.4-102.4 109.714c-14.629 14.629-14.629 36.571 0 51.2s36.571 14.629 51.2 0l131.657-131.657c14.629-7.314 14.629-29.257 0-43.886z" />
<glyph unicode="&#xe910;" glyph-name="fullScreen" d="M237.6 769.1h114.4c17.7 0 32 14.3 32 32s-14.3 32-32 32h-191.9c-17.7 0-32-14.3-32-32v-193.1c0-17.7 14.3-32 32-32s32 14.3 32 32v116.1l203.3-204.6c6.3-6.3 14.5-9.4 22.7-9.4s16.3 3.1 22.6 9.3c12.5 12.5 12.6 32.7 0.1 45.3l-203.2 204.4zM863.9 320c-17.7 0-32-14.3-32-32v-115l-203.3 204.6c-12.5 12.5-32.7 12.6-45.3 0.1-12.5-12.5-12.6-32.7-0.1-45.3l203.2-204.4h-113.3c-17.7 0-32-14.3-32-32s14.3-32 32-32h190.8c17.7 0 32 14.3 32 32v192c0 17.7-14.4 32-32 32zM864 832h-253.9c-17.7 0-32-14.3-32-32s14.3-32 32-32h221.9v-225.1c0-17.7 14.3-32 32-32s32 14.3 32 32v257.1c0 17.7-14.3 32-32 32zM413.9 128h-221.9v225.1c0 17.7-14.3 32-32 32s-32-14.3-32-32v-257.1c0-17.7 14.3-32 32-32h253.9c17.7 0 32 14.3 32 32s-14.4 32-32 32z" />
<glyph unicode="&#xe911;" glyph-name="reduction" d="M683.1 323.6h114.4c17.7 0 32 14.3 32 32s-14.3 32-32 32h-191.9c-17.7 0-32-14.3-32-32v-193.1c0-17.7 14.3-32 32-32s32 14.3 32 32v116.1l203.3-204.6c6.3-6.3 14.5-9.4 22.7-9.4s16.3 3.1 22.6 9.3c12.5 12.5 12.6 32.7 0.1 45.3l-203.2 204.4zM417.4 765.5c-17.7 0-32-14.3-32-32v-115l-203.3 204.6c-12.5 12.5-32.7 12.6-45.3 0.1-12.5-12.5-12.6-32.7-0.1-45.3l203.2-204.5h-113.3c-17.7 0-32-14.3-32-32s14.3-32 32-32h190.8c17.7 0 32 14.3 32 32v192c0 17.8-14.4 32.1-32 32.1zM864 832h-253.9c-17.7 0-32-14.3-32-32s14.3-32 32-32h221.9v-225.1c0-17.7 14.3-32 32-32s32 14.3 32 32v257.1c0 17.7-14.3 32-32 32zM413.9 128h-221.9v225.1c0 17.7-14.3 32-32 32s-32-14.3-32-32v-257.1c0-17.7 14.3-32 32-32h253.9c17.7 0 32 14.3 32 32s-14.4 32-32 32z" />
<glyph unicode="&#xe912;" glyph-name="userCompare" d="M290.88 350.848h-148.608v-64h148.672v-123.84l132.096 155.84-132.16 161.152zM547.904 445.952l-1.344 9.6-6.528 7.296c-1.728 1.856-42.432 47.104-82.368 73.024-25.664 16.832-60.16 28.224-84.16 34.816 5.76 12.096 27.392 57.536 30.784 67.392 3.2 2.24 8.576 5.888 13.44 11.968 12.608 15.424 21.76 74.048 11.264 94.272-0.96 1.664-1.856 3.328-3.008 4.672 3.648 22.144 8.64 59.072 5.056 76.928-1.536 7.808-10.048 48.192-27.008 71.424-15.744 21.376-44.16 33.664-67.136 31.68-8.256 7.040-37.12 29.312-72.768 30.976-37.888 0-121.984-27.008-139.968-110.464-9.152-42.56-8.128-76.416-5.184-98.688l-1.984-16.96c-0.448-3.712-4.096-36.608 4.736-63.232 6.72-20.608 19.904-35.52 28.096-43.264 12.992-31.232 22.080-48.384 28.288-58.176-67.264-22.528-167.872-65.152-173.248-120l-1.856-18.496c-3.264-32.192-4.48-44.352-0.704-61.12 4.544-20.736 46.144-42.88 98.688-60.096v67.968c-15.936 6.144-28.928 11.904-36.928 16.256 0.192 5.76 0.96 14.528 2.56 30.592l1.344 16.512c7.552 16.128 74.816 50.112 141.312 71.36l29.888 20.032 3.2 9.472c6.592 19.776 6.976 46.848-9.408 60.736-4.032 5.056-15.36 28.544-24.96 51.712l-6.976 13.952-5.888 4.672c-2.496 1.984-9.792 9.088-12.608 17.856-1.472 4.48-2.24 10.496-2.56 16.512l15.296 5.376-9.6 29.888c-0.128 0.32-11.392 36.416 0.96 93.44 10.624 49.28 64.64 59.968 78.016 59.968 8.128-0.384 22.016-8.64 29.888-15.040 9.344-10.112 27.264-19.072 48.128-15.68 2.24 0 6.72-1.728 9.6-5.696 5.12-7.104 12.288-27.712 15.872-45.696 1.024-7.36-2.24-36.864-7.104-64.832l-4.48-36.096 12.864-3.776c-0.64-8.448-1.792-17.6-1.28-18.112-6.016-4.16-17.024-11.712-23.488-29.568-3.264-9.216-19.264-42.88-26.624-58.176l-15.424-10.496 7.808-73.408 23.104-4.608c15.872-3.136 62.912-14.976 89.152-32.128 24.384-16 50.88-42.496 62.976-55.104 1.472-15.104 1.92-30.72 1.088-38.848-7.616-5.184-24.128-12.544-47.744-19.776v-65.984c54.336 14.272 98.496 34.624 107.52 60.352 8.512 24.96 3.136 69.696 1.408 82.816zM747.328 123.904h148.544v-64h-148.608v-123.904l-132.096 155.904 132.16 161.088zM1020.672 219.008l-1.344 9.6-6.528 7.232c-1.664 1.856-42.368 47.104-82.304 73.024-25.664 16.896-60.16 28.224-84.16 34.88 5.76 12.096 27.392 57.472 30.784 67.392 3.2 2.24 8.576 5.888 13.44 11.968 12.608 15.424 21.76 74.048 11.264 94.272-0.96 1.664-1.856 3.328-3.008 4.672 3.648 22.144 8.64 59.072 5.056 76.928-1.536 7.744-10.048 48.128-27.072 71.36-15.68 21.376-44.096 33.664-67.136 31.68-8.256 7.040-37.12 29.312-72.768 30.976-37.888 0-121.984-27.008-139.968-110.464-9.088-42.56-8.128-76.416-5.12-98.624l-1.984-17.024c-0.448-3.712-4.16-36.608 4.736-63.232 6.72-20.608 19.904-35.52 28.096-43.264 12.992-31.232 22.080-48.384 28.288-58.112-67.328-22.528-167.936-65.152-173.312-120l-1.856-18.496c-3.264-32.256-4.48-44.352-0.704-61.12 4.544-20.736 46.144-42.88 98.688-60.096v68.032c-15.936 6.144-28.928 11.904-36.928 16.256 0.192 5.76 0.96 14.528 2.56 30.656l1.344 16.512c7.488 16.128 74.816 50.112 141.248 71.36l29.888 20.032 3.2 9.472c6.592 19.776 6.976 46.784-9.408 60.672-3.968 5.056-15.232 28.544-24.896 51.712l-6.976 14.016-5.888 4.608c-2.496 1.984-9.728 9.152-12.608 17.856-1.472 4.48-2.24 10.496-2.56 16.512l15.296 5.376-9.536 29.888c-0.128 0.384-11.456 36.416 0.96 93.44 10.624 49.28 64.64 59.968 78.016 59.968 8.128-0.384 22.016-8.64 29.888-15.040 9.344-10.112 27.264-19.072 48.128-15.68 2.24 0 6.72-1.728 9.6-5.696 5.12-7.104 12.288-27.712 15.872-45.696 1.024-7.36-2.24-36.864-7.104-64.832l-4.48-36.224 12.864-3.776c-0.704-8.448-1.792-17.6-1.344-18.112-6.016-4.096-17.024-11.712-23.488-29.568-3.264-9.216-19.264-42.88-26.624-58.176l-15.424-10.496 7.808-73.344 23.104-4.608c15.872-3.136 62.912-14.976 89.152-32.128 24.384-16 50.88-42.496 62.976-55.104 1.472-15.104 1.92-30.72 1.088-38.848-7.552-5.12-24.064-12.48-47.68-19.776v-65.984c54.4 14.272 98.496 34.624 107.52 60.352 8.512 24.96 3.136 69.696 1.344 82.816z" />
<glyph unicode="&#xe913;" glyph-name="userDispatch" d="M998.144 275.648l-251.456 292.288 1.344-203.328c-25.344-8.128-79.488-14.4-128.384 0-64.576 19.072-138.368 59.584-139.136 59.968l-55.872 30.784 8.704-63.168c0.576-4.544 16.384-112.384 110.72-180.8 76.544-55.616 160.832-67.712 205.632-69.824l-0.64-197.952 249.088 332.032zM581.632 263.104c-28.48 20.736-47.808 46.656-60.608 70.464 24.64-10.944 52.992-22.208 80.512-30.336 27.584-8.128 55.616-12.16 83.456-12.16 65.344 0 108.544 22.784 110.336 23.808l17.024 9.152-0.384 70.144 104.256-121.28-102.464-136.512 0.128 72.128-34.88-2.944c-3.264-0.256-107.584-7.68-197.376 57.536zM420.608 0.128c-154.624-3.904-318.336 61.696-356.288 85.12-0.896 10.432 0.512 24.576 4.096 59.2l3.008 29.696c2.624 25.984 117.312 85.888 235.968 123.264l37.248 25.152 3.2 9.6c2.944 8.832 16.192 54.080-11.84 77.952-7.040 8.128-26.88 49.28-41.728 84.48l-8.96 17.664-6.016 4.544c-0.192 0.128-19.2 14.72-26.432 36.352-4.288 12.864-5.248 30.080-5.056 43.84l20.48 7.104-10.176 30.208c-0.192 0.576-19.776 60.544 0.96 154.816 18.752 85.12 112.448 108.544 143.104 107.648 21.44-0.96 49.024-20.032 59.392-28.416 11.456-12.672 32.704-24.448 60.032-19.584 9.344 1.792 24.704-4.16 33.92-16.32 11.264-15.040 22.656-50.88 28.224-78.592 2.496-12.48-3.648-64.128-11.136-106.368l-4.224-40.064 18.496-6.4c-0.576-16.832-5.696-48.384-10.816-56.256-8.384-5.568-22.336-14.848-30.464-37.44l60.352-21.568c0.96 2.624 0.96 2.624 5.696 5.76 4.672 3.2 11.2 7.552 17.536 14.976 16.32 19.648 29.184 102.784 15.936 127.36-2.304 4.224-5.056 7.808-8 10.88 4.864 28.16 14.976 93.76 9.344 121.664-2.24 11.648-15.232 71.552-39.744 104.384-22.656 30.208-61.248 46.72-96.832 39.424l-4.608 4.992c-5.12 4.48-50.944 43.264-100.16 45.504-54.784 2.688-181.312-33.984-208.512-157.824-15.616-70.784-11.712-125.824-6.4-158.016l-4.864-20.8c-0.576-5.312-5.824-53.056 6.784-91.136 10.368-31.168 31.552-52.736 42.496-62.272l1.408-2.816c15.68-37.12 37.12-83.328 53.44-101.44 0-1.344-0.128-3.328-0.384-5.248l-5.888-4.288c-84.096-26.816-267.264-94.4-275.456-176.384l-3.008-29.504c-5.12-49.152-6.784-65.664-1.408-89.344 10.944-47.936 242.368-125.632 405.568-125.632 4.48 0 9.024 0.064 13.504 0.192 105.024 2.944 179.456 14.464 182.656 14.912l-9.984 63.232c-0.704-0.064-73.6-11.456-174.464-14.208z" />
<glyph unicode="&#xe914;" glyph-name="voice" d="M541.257 821.029c-14.629 7.314-36.571 0-51.2-7.314l-226.743-219.429h-197.486c-29.257 0-43.886-21.943-43.886-43.886v-321.829c0-29.257 21.943-43.886 43.886-43.886h197.486l226.743-219.429c7.314-7.314 21.943-14.629 36.571-14.629 7.314 0 14.629 0 14.629 0 14.629 7.314 29.257 21.943 29.257 43.886v782.629c0 21.943-7.314 36.571-29.257 43.886zM497.371 53.029l-190.171 182.857c-7.314 14.629-14.629 14.629-29.257 14.629h-182.857v263.314h182.857c14.629 0 21.943 7.314 29.257 14.629l190.171 182.857v-658.286zM680.229 608.914c-14.629-14.629-14.629-43.886 0-58.514 0 0 51.2-51.2 51.2-168.229 0-153.6-51.2-204.8-51.2-204.8-14.629-14.629-14.629-36.571 0-51.2 7.314-7.314 14.629-14.629 29.257-14.629 7.314 0 21.943 0 21.943 7.314 7.314 7.314 73.143 73.143 73.143 256 0 153.6-73.143 219.429-73.143 219.429-14.629 29.257-36.571 29.257-51.2 14.629zM870.4 777.143c-14.629 14.629-36.571 14.629-51.2 0s-14.629-36.571 0-51.2c0 0 109.714-102.4 109.714-329.143 0-292.571-102.4-387.657-109.714-387.657-14.629-14.629-14.629-36.571-7.314-51.2 7.314-7.314 14.629-14.629 29.257-14.629 7.314 0 14.629 0 21.943 7.314s131.657 117.029 131.657 438.857c7.314 263.314-117.029 387.657-124.343 387.657z" />
<glyph unicode="&#xe915;" glyph-name="warning" d="M519.314 338.286c21.943 0 36.571 21.943 36.571 43.886v292.571c0 21.943-14.629 43.886-36.571 43.886s-36.571-21.943-36.571-43.886v-292.571c0-21.943 14.629-43.886 36.571-43.886zM577.829 206.629c0-32.317-26.198-58.514-58.514-58.514s-58.514 26.198-58.514 58.514c0 32.317 26.198 58.514 58.514 58.514s58.514-26.198 58.514-58.514zM512 960c-285.257 0-512-226.743-512-512s226.743-512 512-512 512 226.743 512 512-226.743 512-512 512zM512 9.143c-241.371 0-438.857 197.486-438.857 438.857s197.486 438.857 438.857 438.857 438.857-197.486 438.857-438.857-197.486-438.857-438.857-438.857z" />
<glyph unicode="&#xe916;" glyph-name="xml" d="M130.032 960c-71.895 0-130.032-58.137-130.032-130.032v-764.187c0-71.895 58.137-130.032 130.032-130.032h764.187c71.895 0 130.032 58.137 130.032 130.032v506.124l-388.095 388.095h-506.124zM772.189 960l252.062-252.062v122.030c0 71.895-58.137 130.032-130.032 130.032h-122.030zM56.014 607.914h76.019l64.016-102.025 62.015 102.025h76.019l-100.024-156.038 110.027-164.040h-78.019l-72.018 110.027-70.017-110.027h-78.019l110.027 168.041-100.024 152.037zM376.092 607.914h98.024l58.014-218.053 58.014 218.053h96.023v-320.078h-60.015v252.062l-64.016-252.062h-62.015l-64.016 252.062v-252.062h-60.015v320.078zM752.184 605.914h66.016v-264.064h160.039v-54.013h-226.055v318.078z" />
<glyph unicode="&#xe917;" glyph-name="zoomIn" d="M1002.569 88.942l-146.578 120.686c-13.824 13.824-31.744 19.822-49.81 19.822l-41.984 41.984c53.833 70.802 86.235 158.72 86.235 254.318 0 232.302-189.074 421.376-421.449 421.376-232.302 0-421.303-189.001-421.303-421.376 0-232.302 189.001-421.303 421.303-421.303 98.231 0 188.416 34.011 260.169 90.551l41.326-41.326c0.073-17.993 5.998-35.84 19.822-49.737l120.686-146.578c28.599-28.599 74.825-28.599 103.424 0l28.087 28.087c28.672 28.599 28.672 74.898 0.073 103.497zM428.983 177.664c-192 0-348.16 156.16-348.16 348.16s156.16 348.233 348.16 348.233c192.073 0 348.306-156.233 348.306-348.233s-156.233-348.16-348.306-348.16zM593.847 585.728h-109.714v109.714c0 30.281-24.576 54.857-54.857 54.857s-54.857-24.576-54.857-54.857v-109.714h-109.714c-30.281 0-54.857-24.576-54.857-54.857s24.576-54.857 54.857-54.857h109.714v-109.714c0-30.427 24.576-54.857 54.857-54.857s54.857 24.43 54.857 54.857v109.714h109.714c30.427 0 54.857 24.576 54.857 54.857s-24.43 54.857-54.857 54.857z" />
<glyph unicode="&#xe918;" glyph-name="zoomOut" d="M1002.569 88.942l-146.578 120.686c-13.824 13.824-31.744 19.822-49.81 19.822l-41.984 41.984c53.833 70.802 86.235 158.72 86.235 254.318 0 232.302-189.074 421.376-421.449 421.376-232.302 0-421.303-189.001-421.303-421.376 0-232.302 189.001-421.303 421.303-421.303 98.231 0 188.416 34.011 260.169 90.551l41.326-41.326c0.073-17.993 5.998-35.84 19.822-49.737l120.686-146.578c28.599-28.599 74.825-28.599 103.424 0l28.087 28.087c28.672 28.599 28.672 74.898 0.073 103.497zM428.983 177.664c-192 0-348.16 156.16-348.16 348.16s156.16 348.233 348.16 348.233c192.073 0 348.306-156.233 348.306-348.233s-156.233-348.16-348.306-348.16zM592.603 583.095h-329.143c-30.281 0-54.857-24.576-54.857-54.857s24.576-54.857 54.857-54.857h329.143c30.427 0 54.857 24.576 54.857 54.857s-24.43 54.857-54.857 54.857z" />
<glyph unicode="&#xe919;" glyph-name="zoomOverView" d="M0 960v-172.105l172.032 172.105zM851.968 960l172.032-172.105v172.105zM1024-64v172.032l-172.032-172.032zM0-64h172.032l-172.032 172.032zM920.722 130.779v634.368h-817.445v-634.368h817.445zM176.421 692.005h513.024c-14.702-19.383-23.771-43.301-23.771-69.413 0-63.707 51.712-115.419 115.493-115.419 24.795 0 47.616 7.973 66.414 21.285v-233.472c-16.018 15.506-39.497 34.523-81.993 62.464-47.397 31.086-116.663 23.991-161.353-24.064-0.146-0.219-0.366-0.293-0.512-0.512-22.309 29.257-62.903 122.953-145.408 183.735-63.415 46.738-133.193 27.794-193.17-44.178-29.111-35.035-67.95-113.591-88.722-130.853v350.427z" />
<glyph unicode="&#xe91a;" glyph-name="zoomReset" d="M390.363 1.536h243.346l-121.71 121.783zM162.962 175.689h698.002v544.622h-698.002v-544.622zM225.353 657.481h438.126c-12.654-16.603-20.261-37.157-20.261-59.611 0-54.711 44.105-99.035 98.597-99.035 21.211 0 40.667 6.875 56.686 18.286v-200.485c-13.678 13.312-33.646 29.696-69.998 53.541-40.375 26.843-99.621 20.699-137.874-20.626 0-0.146-0.293-0.146-0.439-0.439-19.017 25.161-60.123 86.674-130.779 138.825-54.126 40.082-106.569 14.994-157.696-46.885-24.869-29.989-58.587-69.705-76.361-84.407v300.837zM1023.854 573.659l-120.905-121.563 121.051-121.783zM0.146 330.313l120.905 121.637-121.051 121.71zM633.637 894.464l-243.273-0.073 121.563-121.637z" />
<glyph unicode="&#xe91b;" glyph-name="thumbtack" d="M512-64c-14.629 0-21.943 7.314-29.257 14.629-21.943 29.257-73.143 109.714-73.143 153.6v234.057h-138.971c-73.143 0-124.343 58.514-124.343 138.971s51.2 138.971 124.343 138.971h43.886v73.143h-43.886c-73.143-7.314-124.343 58.514-124.343 131.657s51.2 138.971 124.343 138.971h490.057c65.829 0 117.029-58.514 117.029-138.971s-51.2-138.971-124.343-138.971h-36.571v-73.143h43.886c65.829 0 124.343-58.514 124.343-138.971s-51.2-138.971-124.343-138.971h-146.286v-226.743c0-43.886-51.2-124.343-73.143-153.6-7.314-7.314-14.629-14.629-29.257-14.629zM270.629 535.771c-29.257 0-51.2-29.257-51.2-58.514s21.943-65.829 51.2-65.829h175.543c21.943 0 36.571-14.629 36.571-36.571v-263.314c0-7.314 14.629-36.571 29.257-65.829 14.629 29.257 29.257 58.514 29.257 65.829v263.314c0 21.943 14.629 36.571 36.571 36.571h175.543c29.257 0 51.2 29.257 51.2 65.829s-21.943 65.829-51.2 65.829h-73.143c-21.943-7.314-36.571 14.629-36.571 29.257v146.286c0 21.943 14.629 36.571 36.571 36.571h80.457c29.257 0 51.2 29.257 51.2 65.829s-29.257 65.829-58.514 65.829h-482.743c-29.257 0-51.2-29.257-51.2-65.829s21.943-65.829 51.2-65.829h80.457c14.629 0 29.257-14.629 29.257-36.571v-146.286c0-21.943-14.629-36.571-36.571-36.571h-73.143z" />
<glyph unicode="&#xe91c;" glyph-name="toRight" d="M517.312 908.352c-261.504 0-474.24-212.736-474.24-474.24s212.736-474.24 474.24-474.24c261.44 0 474.176 212.736 474.176 474.24s-212.736 474.24-474.176 474.24zM517.312 23.872c-226.24 0-410.24 184.064-410.24 410.24 0 226.24 184 410.24 410.24 410.24 226.176 0 410.176-184 410.176-410.24 0-226.176-184-410.24-410.176-410.24zM498.624 763.712l-45.312-45.248 245.632-245.632h-445.184v-64h457.536l-244.16-244.224 45.248-45.248 315.264 315.328z" />
<glyph unicode="&#xe91d;" glyph-name="treefile" d="M172.042 960c-95.503 0-172.042-76.539-172.042-172.042v-680.166c0-95.503 76.539-172.042 172.042-172.042h680.166c95.503 0 172.042 76.539 172.042 172.042v680.166c0 95.503-76.539 172.042-172.042 172.042h-680.166zM244.060 781.957h432.105l104.025-132.032v-536.131h-536.131v668.163zM326.080 653.925v-78.019h200.049v78.019h-200.049zM328.080 481.883v-76.019h374.091v76.019h-374.091zM320.078 311.842v-78.019h384.094v78.019h-384.094z" />
<glyph unicode="&#xe91e;" glyph-name="treeFolder" d="M172.042 960c-95.503 0-172.042-76.539-172.042-172.042v-680.166c0-95.503 76.539-172.042 172.042-172.042h680.166c95.503 0 172.042 76.539 172.042 172.042v680.166c0 95.503-76.539 172.042-172.042 172.042zM238.77 718.212h207c27.855 0 50.799-21.902 50.012-48.012v-144.035h316.077c28.758 0 52.013-23.255 52.013-52.013v-266.302c0-28.758-23.255-52.013-52.013-52.013h-569.088c-28.758 0-51.11 23.269-52.013 52.013v462.35c0 26.121 20.157 48.012 48.012 48.012z" />
<glyph unicode="&#xe91f;" glyph-name="triangle" d="M512 960c-285.257 0-512-226.743-512-512s226.743-512 512-512c285.257 0 512 226.743 512 512s-226.743 512-512 512zM512 9.143c-241.371 0-438.857 197.486-438.857 438.857s197.486 438.857 438.857 438.857 438.857-197.486 438.857-438.857-197.486-438.857-438.857-438.857zM512 784.457l-329.143-490.057h658.286z" />
<glyph unicode="&#xe920;" glyph-name="unacknownledge" d="M950.857 9.143h-877.714v877.714h482.011v73.143h-555.154v-1024h1024v458.679h-73.143zM526.19 682.715c-98.231-91.721-224.475-317.001-224.475-317.001s193.17 118.272 280.576 162.816c77.824 39.643 192.658 28.818 218.478 26.697l-0.658-184.466 223.89 308.297-224.402 280.942 0.585-183.077c-30.647-1.902-187.831-13.897-273.993-94.208z" />
<glyph unicode="&#xe921;" glyph-name="unlock" d="M870.4 572.343v0h-577.829v95.086c0 124.343 95.086 219.429 219.429 219.429 29.257 0 58.514-7.314 87.771-14.629 21.943-7.314 36.571 0 51.2 21.943 7.314 21.943 0 36.571-21.943 51.2-36.571 7.314-80.457 14.629-117.029 14.629-160.914 0-292.571-131.657-292.571-292.571v-95.086h-65.829c-58.514-7.314-95.086-65.829-95.086-124.343v-380.343c0-73.143 58.514-131.657 131.657-131.657h650.971c73.143 0 131.657 58.514 131.657 131.657v380.343c0 65.829-43.886 117.029-102.4 124.343zM899.657 67.657c0-36.571-21.943-58.514-58.514-58.514h-658.286c-29.257 0-58.514 21.943-58.514 58.514v380.343c0 29.257 14.629 51.2 29.257 51.2h702.171c21.943-7.314 36.571-21.943 36.571-51.2v-380.343zM512 448c-58.514 0-109.714-51.2-109.714-109.714 0-51.2 29.257-87.771 73.143-102.4v-153.6c0-21.943 14.629-36.571 36.571-36.571s36.571 14.629 36.571 36.571v153.6c43.886 14.629 73.143 58.514 73.143 102.4 0 58.514-51.2 109.714-109.714 109.714zM512 301.714c-21.943 0-36.571 14.629-36.571 36.571s14.629 36.571 36.571 36.571 36.571-14.629 36.571-36.571-14.629-36.571-36.571-36.571z" />
<glyph unicode="&#xe922;" glyph-name="up" d="M243.712 532.48h158.574v-441.271c0-52.297 42.423-94.72 94.72-94.72h30.062c52.297 0 94.72 42.423 94.72 94.72v441.271h158.574c43.959 0 65.975 53.175 34.889 84.261l-268.288 268.288c-19.237 19.237-50.542 19.237-69.778 0l-268.288-268.288c-31.159-31.086-9.143-84.261 34.816-84.261z" />
<glyph unicode="&#xe923;" glyph-name="upload" d="M229.815 482.523c9.362 0 18.725 3.584 25.893 10.679l219.721 219.867v-633.783c0-20.114 16.384-36.571 36.571-36.571s36.571 16.457 36.571 36.571v633.71l219.867-219.794c7.168-7.168 16.603-10.679 25.893-10.679 9.435 0 18.798 3.584 25.893 10.679 14.263 14.263 14.263 37.449 0 51.712l-282.331 282.185c-14.263 14.263-37.449 14.263-51.712 0l-282.258-282.185c-14.263-14.263-14.263-37.449 0-51.712 7.168-7.095 16.53-10.679 25.893-10.679zM962.121 371.127c-20.187 0-36.571-16.457-36.571-36.571v-327.68h-827.099v314.807c0 20.114-16.384 36.571-36.571 36.571s-36.571-16.457-36.571-36.571v-351.525c0-20.187 16.384-36.571 36.571-36.571h900.242c20.114 0 36.571 16.384 36.571 36.571v364.251c0 20.48-16.238 36.718-36.571 36.718z" />
<glyph unicode="&#xe924;" glyph-name="user" d="M515.584-64.768c-161.536 0-392.32 78.976-402.88 125.632-5.376 23.616-3.712 40.128 1.408 89.344l3.008 29.376c8.192 82.176 191.36 149.696 275.456 176.512l5.824 4.224c0.256 1.984 0.384 3.904 0.384 5.248-16.192 18.048-37.632 64.32-53.376 101.44l-1.408 2.816c-10.944 9.6-32.128 31.104-42.496 62.272-12.608 38.080-7.36 85.824-6.784 91.136l4.864 20.8c-5.312 32.192-9.216 87.296 6.4 158.016 26.24 119.36 148.416 157.952 203.456 157.952 54.144-2.368 100.096-41.152 105.152-45.568l4.608-4.992c5.952 2.432 10.432 2.752 15.040 2.752 30.912 0 62.272-16.128 81.792-42.176 24.576-32.832 37.504-92.736 39.808-104.384 5.568-27.904-4.544-93.504-9.408-121.664 2.944-3.072 5.696-6.656 8-10.88 13.248-24.576 0.384-107.712-15.936-127.36-6.272-7.488-12.8-11.84-17.536-14.976-4.672-3.136-4.672-3.136-5.632-5.76-7.616-20.864-47.232-101.696-51.712-110.912l-5.504-8.768 0.768-6.656c34.88-8.384 101.312-27.264 147.072-56.64 61.44-39.36 124.288-108.224 126.976-111.104l6.656-7.232 1.344-9.728c1.984-13.888 11.2-84.864-1.472-121.024-19.84-56.128-214.208-112.128-407.744-117.504l-16.128-0.192zM173.568 84.48c36.352-22.144 191.68-85.248 342.016-85.248l14.336 0.128c191.872 5.248 333.184 57.728 351.232 78.848 3.072 10.368 0.896 49.152-2.368 76.736-17.088 17.856-63.936 65.28-107.52 93.12-52.8 33.984-147.008 52.736-147.968 52.992l-23.104 4.48-9.856 90.88 19.52 13.376c16.576 33.856 40.832 84.608 45.248 96.832 8 22.4 21.952 31.68 30.336 37.248 5.12 7.872 10.24 39.424 10.816 56.256l-18.496 6.528 4.224 40.064c7.488 42.176 13.632 93.888 11.136 106.368-5.568 27.712-17.024 63.552-28.288 78.592-8.576 11.456-21.568 16.576-30.592 16.576-7.296-0.96-11.392-1.28-15.232-1.28-21.696 0-38.656 10.368-47.936 20.48-10.304 8.384-38.016 27.52-59.52 28.544 0 0-0.064 0-0.064 0-25.472 0-123.52-19.2-142.976-107.648-20.8-94.272-1.216-154.24-1.024-154.816l10.176-30.208-20.48-7.104c-0.192-13.824 0.768-31.040 5.056-43.904 7.232-21.632 26.24-36.224 26.432-36.352l6.016-4.544 8.96-17.664c14.912-35.136 34.752-76.224 41.856-84.352 27.968-24 14.72-69.248 11.84-78.016l-3.392-9.792-37.248-25.024c-118.656-37.376-233.344-97.28-235.968-123.392l-3.008-29.632c-3.584-34.432-4.928-48.576-4.16-59.072z" />
<glyph unicode="&#xe925;" glyph-name="start" d="M219.429-56.686l643.657 387.657c36.571 21.943 36.571 73.143 0 95.086l-643.657 387.657c-36.571 21.943-80.457-7.314-80.457-43.886v-768c0-51.2 43.886-80.457 80.457-58.514z" />
<glyph unicode="&#xe926;" glyph-name="stop" d="M877.714 813.714h-731.429c-36.571 0-73.143-29.257-73.143-73.143v-731.429c0-36.571 29.257-73.143 73.143-73.143h738.743c36.571 0 73.143 29.257 73.143 73.143v731.429c-7.314 43.886-36.571 73.143-80.457 73.143z" />
<glyph unicode="&#xe927;" glyph-name="stretch" d="M512.125-64.25l-512.125 786.51h1024.25z" />
<glyph unicode="&#xe928;" glyph-name="strikeOut" d="M194.047 960c-107.095 0-194.047-82.432-194.047-184.045v-656.16c0-101.613 86.953-184.045 194.047-184.045h636.155c107.095 0 194.047 82.432 194.047 184.045v656.16c0 101.613-86.953 184.045-194.047 184.045h-636.155zM256.063 793.959l254.062-254.062 254.062 254.062 92.022-90.022-256.063-254.062 258.063-258.063-90.022-90.022-258.063 258.063-258.063-258.063-90.022 90.022 258.063 258.063-254.062 254.062 90.022 90.022z" />
<glyph unicode="&#xe929;" glyph-name="Synchronous" d="M494.711 959.75c-104.539-3.265-208.813-40.375-296.633-108.436 54.977-14.436 104.872-45.733 142.049-91.754 26.19-32.424 43.304-69.451 52.224-108.436 7.472 4.417 15.186 6.933 22.979 10.422 92.25 41.341 202.953 21.407 273.654-58.389 2.301-2.625 4.1-5.697 6.267-8.341 38.549 10.531 75.152 28.596 106.537 56.308 44.613 39.389 72.032 90.377 83.558 145.975-104.709 110.869-248.128 167.126-390.636 162.651zM129.143 788.758c-154.693-173.342-171.782-430.62-43.868-623.519 14.937 42.545 37.929 81.543 73.114 112.603 40.831 36.073 90.283 55.546 142.049 62.562-39.26 78.566-32.859 174.481 18.801 246.070-8.529 40.989-24.861 80.833-52.224 114.697-35.951 44.51-84.874 73.035-137.871 87.586zM945.927 717.854c-12.717-52.205-39.342-100.434-81.47-137.634-37.021-32.686-81.374-51.801-127.427-60.476 26.021-79.046 6.737-167.458-52.224-231.468 19.432-31.758 44.54-59.688 77.292-81.332 53.583-35.413 115.973-48.044 177.562-41.706 109.755 165.397 113.61 382.154 6.267 552.615zM356.84 269.502c-49.611-7.291-96.24-27.642-135.783-62.556-37.046-32.706-60.971-73.765-75.203-118.864 189.798-193.423 500.57-204.383 706.069-22.943 7.202 6.338 14.132 12.112 20.89 18.776-56.725-3.137-113.553 11.152-162.939 43.787-41.455 27.405-71.733 65.661-91.914 108.436-84.886-42.73-188.159-30.107-261.12 33.365z" />
<glyph unicode="&#xe92a;" glyph-name="table" d="M1024 725.943c-7.314 102.4-87.771 175.543-190.171 175.543h-643.657c-102.4 0-182.857-80.457-190.171-175.543v0-789.943h1024v789.943zM950.857 521.143h-117.029v131.657h117.029v-131.657zM548.571 448h212.114v-95.086h-212.114v95.086zM475.429 352.914h-212.114v95.086h212.114v-95.086zM548.571 521.143v131.657h212.114v-131.657h-212.114zM475.429 521.143h-212.114v131.657h212.114v-131.657zM197.486 521.143h-124.343v131.657h124.343v-131.657zM73.143 448h124.343v-95.086h-124.343v95.086zM73.143 279.771h124.343v-95.086h-124.343v95.086zM270.629 279.771h212.114v-95.086h-212.114v95.086zM475.429 111.543v-102.4h-212.114v102.4h212.114zM548.571 111.543h212.114v-102.4h-212.114v102.4zM548.571 184.686v95.086h212.114v-95.086h-212.114zM833.829 279.771h117.029v-95.086h-117.029v95.086zM833.829 352.914v95.086h117.029v-95.086h-117.029zM73.143 111.543h124.343v-102.4h-124.343v102.4zM833.829 9.143v102.4h117.029v-102.4h-117.029z" />
<glyph unicode="&#xe92b;" glyph-name="third-grid" d="M0-64h285.257v512h-285.257v-512zM73.143 374.857h138.971v-365.714h-138.971v365.714zM373.029-64h285.257v512h-285.257v-512zM446.171 374.857h138.971v-365.714h-138.971v365.714zM738.743 448v-512h285.257v512h-285.257zM950.857 9.143h-138.971v365.714h138.971v-365.714z" />
<glyph unicode="&#xe92c;" glyph-name="third-grid-selected" d="M0 448h285.257v-512h-285.257v512zM373.029 448h285.257v-512h-285.257v512zM738.743 448h285.257v-512h-285.257v512z" />
<glyph unicode="&#xe92d;" glyph-name="thumbtack-selected" d="M775.314 586.971h-80.457v153.6h80.457c51.2 0 87.771 51.2 87.771 109.714s-43.886 109.714-87.771 109.714h-526.629c-51.2 0-87.771-51.2-87.771-109.714s36.571-109.714 87.771-109.714h80.457v-153.6h-80.457c-51.2 0-87.771-51.2-87.771-109.714s43.886-109.714 87.771-109.714h190.171v-285.257c0-43.886 73.143-146.286 73.143-146.286s73.143 102.4 73.143 146.286v285.257h190.171c51.2 0 87.771 51.2 87.771 109.714s-36.571 109.714-87.771 109.714z" />
<glyph unicode="&#xe92e;" glyph-name="save" d="M550.254 804.571h109.714v-158.501h-109.714v158.501zM262.071 362.496h499.785v-73.143h-499.785v73.143zM262.071 173.568h499.785v-73.143h-499.785v73.143zM914.286 960h-804.571c-60.489 0-109.714-49.225-109.714-109.714v-804.571c0-60.489 49.225-109.714 109.714-109.714h804.571c60.489 0 109.714 49.225 109.714 109.714v804.571c0 60.489-49.225 109.714-109.714 109.714zM764.928 877.714v-268.142c0-20.187-16.457-36.571-36.571-36.571h-432.786c-20.187 0-36.571 16.384-36.571 36.571v268.142h505.929zM950.857 45.714c0-20.114-16.457-36.571-36.571-36.571h-804.571c-20.187 0-36.571 16.457-36.571 36.571v804.571c0 20.187 16.384 36.571 36.571 36.571h76.142v-277.285c0-60.489 49.225-109.714 109.714-109.714h432.786c60.489 0 109.714 49.225 109.714 109.714v277.285h76.215c20.114 0 36.571-16.384 36.571-36.571v-804.571z" />
<glyph unicode="&#xe92f;" glyph-name="select" d="M0 960l486.119-1024.25 96.023 396.097 442.108 142.035-1024.25 486.119zM156.038 791.959l666.163-304.074-308.075-82.020-60.015-234.057-298.073 620.151z" />
<glyph unicode="&#xe930;" glyph-name="selectAll" d="M68.017 960c-38.155 0-68.017-31.076-68.017-70.017v-52.013c0-38.941 29.862-70.017 68.017-70.017h888.217c38.155 0 68.017 31.076 68.017 70.017v52.013c0 38.941-29.862 70.017-68.017 70.017h-888.217zM68.017 691.935c-38.155 0-68.017-29.862-68.017-68.017v-620.151c0-38.155 29.862-68.017 68.017-68.017h888.217c38.155 0 68.017 29.862 68.017 68.017v620.151c0 38.155-29.862 68.017-68.017 68.017h-888.217zM810.198 571.905l124.030-10.002-460.112-528.129-320.078 264.064 144.035 124.030 154.038-222.054 358.087 372.091z" />
<glyph unicode="&#xe931;" glyph-name="selectLeft" d="M73.143 228.571v-292.571h292.571v109.714h402.286v475.429h146.286c21.943 0 36.571 14.629 36.571 36.571s-14.629 36.571-36.571 36.571h-694.857l292.571 226.743c14.629 14.629 21.943 36.571 7.314 51.2-7.314 14.629-29.257 21.943-51.2 7.314l-380.343-292.571c-7.314-7.314-7.314-14.629-7.314-29.257s7.314-21.943 14.629-29.257l380.343-307.2c7.314-7.314 14.629-7.314 21.943-7.314s21.943 7.314 29.257 14.629c14.629 14.629 7.314 36.571-7.314 51.2l-299.886 241.371h475.429v-402.286h-329.143v109.714h-292.571zM146.286 155.429h146.286v-146.286h-146.286v146.286z" />
<glyph unicode="&#xe932;" glyph-name="selectRight" d="M658.286 228.571v-109.714h-329.143v402.286h475.429l-299.886-241.371c-14.629-14.629-14.629-36.571 0-51.2 7.314-7.314 14.629-14.629 29.257-14.629 7.314 0 14.629 0 21.943 7.314l380.343 307.2c7.314 7.314 14.629 14.629 14.629 29.257s-7.314 21.943-14.629 29.257l-380.343 292.571c-21.943 14.629-43.886 7.314-51.2-7.314-14.629-14.629-14.629-36.571 0-51.2l299.886-226.743h-694.857c-21.943 0-36.571-14.629-36.571-36.571s14.629-36.571 36.571-36.571h146.286v-475.429h402.286v-109.714h292.571v292.571h-292.571zM877.714 9.143h-146.286v146.286h146.286v-146.286z" />
<glyph unicode="&#xe933;" glyph-name="show" d="M0 960v-356.087h486.119l-352.086-348.085h234.057v-250.061h-368.090v-70.017h1024.25v70.017h-368.090v250.061h234.057l-374.091 348.085h508.124v356.087h-1024.25z" />
<glyph unicode="&#xe934;" glyph-name="shrink" d="M512.125 722.259l-512.125-786.51h1024.25z" />
<glyph unicode="&#xe935;" glyph-name="singleCommand" d="M0 628.37v-248.978h1024v248.978h-1024zM950.857 452.535h-877.714v102.693h877.714v-102.693z" />
<glyph unicode="&#xe936;" glyph-name="sm-center" d="M877.714 872.229c0 7.314-7.314 21.943-14.629 21.943s-14.629 7.314-29.257 7.314c-29.257 0-117.029-14.629-138.971-14.629-51.2 0-131.657 43.886-160.914 65.829-14.629 7.314-29.257 7.314-43.886 0 0 0-80.457-58.514-160.914-65.829-21.943 0-102.4 7.314-146.286 21.943-7.314 0-21.943 0-29.257-7.314 0-7.314-7.314-14.629-7.314-29.257-7.314-43.886-51.2-446.171 0-585.143 43.886-117.029 314.514-321.829 343.771-343.771 7.314-7.314 14.629-7.314 21.943-7.314s14.629 0 21.943 7.314c29.257 21.943 292.571 234.057 343.771 343.771 58.514 138.971 7.314 541.257 0 585.143zM811.886 316.343c-29.257-73.143-204.8-226.743-299.886-299.886-87.771 73.143-263.314 226.743-299.886 299.886-36.571 87.771-14.629 373.029 0 512 36.571-7.314 95.086-14.629 124.343-14.629 73.143 0 146.286 43.886 175.543 65.829 36.571-21.943 109.714-58.514 175.543-65.829 29.257 0 80.457 7.314 124.343 14.629 14.629-138.971 36.571-416.914 0-512zM621.714 704c-43.886 0-109.714 43.886-109.714 43.886s-51.2-43.886-109.714-43.886c-21.943 0-95.086 14.629-95.086 14.629s-36.571-270.629 0-358.4c21.943-73.143 204.8-212.114 204.8-212.114s182.857 138.971 204.8 204.8c36.571 80.457 0 358.4 0 358.4s-65.829-7.314-95.086-7.314z" />
<glyph unicode="&#xe937;" glyph-name="sql" d="M0 170.057c29.257-29.257 73.143-43.886 109.714-43.886 21.943 0 43.886 7.314 51.2 14.629 14.629 7.314 14.629 21.943 14.629 29.257 0 14.629-7.314 21.943-14.629 29.257s-36.571 21.943-73.143 36.571-95.086 65.829-95.086 117.029c0 36.571 14.629 65.829 43.886 87.771s65.829 29.257 117.029 29.257c36.571 0 73.143-7.314 102.4-14.629v-80.457c-29.257 21.943-58.514 29.257-95.086 29.257-21.943 0-36.571-7.314-51.2-14.629s-21.943-14.629-21.943-29.257c0-7.314 7.314-21.943 14.629-29.257s29.257-21.943 65.829-36.571c43.886-14.629 65.829-36.571 80.457-51.2s21.943-43.886 21.943-65.829c0-36.571-14.629-65.829-43.886-87.771s-65.829-29.257-117.029-29.257c-43.886 0-87.771 7.314-117.029 21.943v87.771zM746.057-42.057c-14.629-7.314-36.571-7.314-58.514-7.314-29.257 0-51.2 7.314-80.457 21.943-21.943 14.629-58.514 43.886-95.086 95.086-58.514 0-102.4 21.943-131.657 58.514-36.571 36.571-51.2 87.771-51.2 146.286 0 65.829 21.943 117.029 58.514 153.6s87.771 58.514 146.286 58.514c58.514 0 102.4-21.943 138.971-58.514s51.2-87.771 51.2-146.286c0-51.2-14.629-87.771-36.571-124.343s-51.2-58.514-95.086-73.143c14.629-21.943 36.571-29.257 51.2-43.886s36.571-14.629 65.829-14.629c14.629 0 29.257 0 43.886 7.314v-73.143zM409.6 272.457c0-43.886 7.314-73.143 29.257-95.086s43.886-36.571 80.457-36.571c36.571 0 58.514 14.629 80.457 36.571s29.257 58.514 29.257 95.086c0 43.886-7.314 73.143-29.257 102.4-21.943 21.943-43.886 36.571-80.457 36.571s-58.514-14.629-80.457-36.571c-14.629-29.257-29.257-65.829-29.257-102.4zM1024 67.657h-241.371v402.286h87.771v-336.457h153.6v-65.829z" />
<glyph unicode="&#xe938;" glyph-name="process" d="M512 960c-282.317 0-512-229.683-512-512 0-282.33 229.683-512 512-512 282.33 0 512 229.67 512 512 0 282.317-229.67 512-512 512zM512-51.379c-275.341 0-499.354 224.026-499.354 499.379 0 275.341 224.013 499.354 499.354 499.354 275.354 0 499.379-224.013 499.379-499.354 0-275.354-224.026-499.379-499.379-499.379zM873.011 413.376c-15.206 0-29.312-4.71-40.973-12.723l-144.064 175.002c10.803 12.659 17.344 29.043 17.344 46.976 0 40-32.422 72.435-72.422 72.435s-72.448-32.435-72.448-72.435c0-22.144 9.971-41.946 25.638-55.219l-147.52-214.63c-12.48 10.202-28.416 16.32-45.786 16.32-19.917 0-37.952-8.051-51.059-21.069l-126.118 104.038c6.003 10.56 9.485 22.733 9.485 35.75 0 40-32.435 72.435-72.435 72.435s-72.435-32.435-72.435-72.435c0-40.013 32.435-72.435 72.435-72.435 22.374 0 42.368 10.15 55.654 26.099l125.184-103.27c-8.269-11.763-13.158-26.074-13.158-41.549 0-40.013 32.435-72.435 72.435-72.435s72.435 32.422 72.435 72.435c0 17.933-6.566 34.342-17.37 46.989l148.723 216.384c10.688-6.221 23.078-9.843 36.339-9.843 17.421 0 33.421 6.157 45.914 16.422l143.347-174.131c-13.312-13.133-21.594-31.373-21.594-51.558 0-40.013 32.435-72.435 72.435-72.435s72.422 32.422 72.422 72.435c0.013 40.013-32.41 72.448-72.41 72.448z" />
<glyph unicode="&#xe939;" glyph-name="product" d="M186.914 960v-1024.25h640.156v1024.25h-640.156zM304.943 825.964h404.099v-134.030h-404.099v134.030zM304.943 457.874h186.045v-64.016h-186.045v64.016zM304.943 227.821h186.045v-64.016h-186.045v64.016z" />
<glyph unicode="&#xe93a;" glyph-name="rbArrow" d="M184.32 730.944l469.12-469.12-325.824-325.824h696.384v696.384l-325.312-325.312-469.12 469.12z" />
<glyph unicode="&#xe93b;" glyph-name="refresh" d="M805.157 50.030c121.271 91.429 200.85 235.593 200.85 399.067 0 263.899-204.727 480.402-463.506 500.224v-77.239c216.283-19.675 386.414-201.801 386.414-423.058 0-151.186-80.75-282.624-200.119-357.961l48.128 260.754-75.995 13.897-72.85-393.362h394.386v77.458h-217.307v0.219zM79.067 449.024c0 170.569 101.595 316.416 247.003 383.561l-50.103-270.336 75.995-14.043 72.777 393.289h-394.021v-77.239h196.315c-135.168-89.381-225.28-241.152-225.28-415.232 0-276.919 225.28-502.199 502.126-502.199 2.341 0 4.462 0.293 6.729 0.293v77.385c-2.267 0-4.389-0.293-6.729-0.293-234.277 0-424.814 190.537-424.814 424.814z" />
<glyph unicode="&#xe93c;" glyph-name="rename" d="M56.014 960c-31.127 0-56.014-24.887-56.014-56.014v-618.151c0-31.127 24.887-56.014 56.014-56.014 0 0 226.836-4.517 260.712 0v176.043c0 34.192 27.823 62.015 62.015 62.015h87.373l-36.009 92.022h-164.040l-34.008-94.023h-88.021l160.039 418.102h88.021l166.041-416.102h52.912c34.192 0 62.015-27.823 62.015-62.015v-72.018h57.115v570.139c0 31.127-24.887 56.014-56.014 56.014zM348.085 787.958l-56.014-156.038h112.027zM414.101 403.864v-323.069h412.101v-143.378l202.049 209.394-202.049 224.902v-144.882h-266.065v177.034z" />
<glyph unicode="&#xe93d;" glyph-name="right-select" d="M936.229 513.829l-380.343 292.571c-21.943 14.629-43.886 7.314-51.2-7.314-14.629-14.629-14.629-36.571 0-51.2l299.886-226.743h-694.857c-21.943 0-36.571-14.629-36.571-36.571s14.629-36.571 36.571-36.571h694.857l-299.886-241.371c-14.629-14.629-14.629-36.571-7.314-51.2 7.314-7.314 14.629-14.629 29.257-14.629 7.314 0 14.629 0 21.943 7.314l380.343 307.2c7.314 7.314 14.629 14.629 14.629 29.257s0 21.943-7.314 29.257z" />
<glyph unicode="&#xe93e;" glyph-name="role" d="M880.192 147.776l-1.344 9.728-6.656 7.232c-2.304 2.624-57.28 62.656-110.976 97.152-38.72 24.896-94.656 41.152-125.76 48.896l-0.064 0.256 4.032 7.744c6.4 12.992 38.528 78.656 48.256 99.52 4.032 2.688 10.24 6.72 16.128 13.824 15.104 18.304 26.624 92.288 14.272 115.2-0.704 1.344-1.6 2.24-2.432 3.392h-35.968c-6.272 7.488-16.896 14.208-30.4 20.096-0.832-4.48-1.344-8.832-2.112-13.312l-4.864-39.808 17.28-4.736c-1.024-14.4-4.48-36.48-7.36-41.344-7.104-4.8-20.48-13.632-28.032-34.624-3.776-10.24-24.256-53.184-38.528-82.432l-18.112-12.544 9.216-84.352 23.040-4.48c0.832-0.256 81.728-16.384 126.656-45.248 36.608-23.488 76.032-62.848 91.648-78.976 3.008-26.112 4.032-56.128 2.88-61.888-15.168-16.512-131.008-62.272-301.376-66.88l-12.096-0.32c-128 0-258.368 52.224-292.416 72.256-0.256 8.64 0.96 20.992 3.776 48.512l2.56 25.152c5.76 22.848 101.824 72.256 201.536 103.744l34.624 22.848 3.2 9.728c2.624 8.128 14.784 49.728-11.136 71.744-6.080 7.232-22.912 42.24-35.776 72.32l-8.128 16.192-5.952 4.48c-0.128 0.128-15.488 11.968-21.376 29.504-3.264 9.792-4.16 22.656-4.16 33.664l18.88 6.592-10.112 30.208c-0.128 0.192-2.496 7.616-4.48 21.056-10.432-5.248-18.624-11.008-23.808-17.28h-35.968l-7.104-13.568c-0.512-4.672-5.248-46.976 6.080-80.896 9.152-27.328 27.392-46.528 37.44-55.232l0.704-1.344c18.944-44.544 34.24-73.92 45.952-87.744 0-0.256 0-0.384 0-0.64l-3.008-2.112c-73.984-23.616-233.728-83.136-241.088-156.352l-2.624-25.344c-4.416-43.392-5.952-57.856-1.216-78.976 10.496-46.272 218.752-112.384 353.6-112.384l13.952 0.256c152.896 4.096 337.28 48.384 357.248 104.896 10.944 31.232 3.968 89.472 1.472 106.624zM277.12 847.872l41.6-230.528h36.032c20.416 24.64 85.44 42.624 162.432 42.624 77.056 0 141.888-17.984 162.432-42.624h36.032l41.6 230.144c20.864 6.464 36.224 25.728 36.224 48.704 0 28.288-22.848 51.2-51.264 51.2-28.096 0-51.264-22.848-51.264-51.2 0-18.944 10.496-35.264 25.6-44.032-6.144-64.192-42.688-113.472-87.296-113.472-41.6 0-76.16 42.816-86.016 100.416 21.376 10.368 36.16 31.872 36.16 57.088 0 35.2-28.672 63.808-63.936 63.808s-63.808-28.608-63.808-63.808c0-26.432 16.064-49.088 38.912-58.752-9.92-56.832-44.224-98.752-85.312-98.752-44.48 0-81.152 49.088-87.488 112.832 15.808 8.576 26.88 25.28 26.88 44.672 0 28.288-22.912 51.2-51.264 51.2s-51.2-22.848-51.2-51.2c0.064-22.592 14.656-41.472 34.944-48.32z" />
<glyph unicode="&#xe93f;" glyph-name="roleset" d="M17.984 488.704h439.168v439.296h-439.168v-439.296zM81.984 864h311.168v-311.296h-311.168v311.296zM566.72-32h439.232v439.232h-439.232v-439.232zM630.72 343.232h311.232v-311.232h-311.232v311.232zM17.984-32h439.168v439.232h-439.168v-439.232zM138.688 233.088l67.392-86.464 129.408 150.912 48.512-41.6-180.352-210.432-115.52 148.16 50.56 39.424zM566.72 928v-439.296h439.232v439.296h-439.232zM752.512 578.112l-115.52 148.16 50.496 39.36 67.392-86.464 129.344 150.912 48.64-41.6-180.352-210.368z" />
<glyph unicode="&#xe940;" glyph-name="openTree" d="M800.195 960v-82.020l-284.069-6.001h-32.008v-390.095h-342.084v88.021h120.029v262.064h-262.064v-262.064h78.019v-154.038h406.099v-384.094h316.077v-96.023h224.055v224.055h-224.055v-64.016h-252.062v320.078h252.062v-80.020h224.055v224.055h-224.055v-78.019h-252.062v326.080l252.062 6.001v-78.019h224.055v224.055h-224.055zM880.215 879.98h64.016v-64.016h-64.016v64.016zM880.215 479.883h64.016v-64.016h-64.016v64.016zM880.215 79.785h64.016v-64.016h-64.016v64.016z" />
<glyph unicode="&#xe941;" glyph-name="Operation" d="M512.064 960c-282.304 0-512.064-229.696-512.064-512 0-282.368 229.76-512 512.064-512s511.936 229.632 511.936 512-229.632 512-511.936 512zM512.064 0c-246.976 0-448.064 201.024-448.064 448 0 247.040 201.088 448 448.064 448 247.040 0 447.936-201.024 447.936-448 0-246.912-200.896-448-447.936-448zM615.872 532.928l-73.408 41.792 80.64 142.016c-72.576 19.648-152.192-10.624-191.168-79.232-36.224-63.744-26.048-140.608 18.944-193.28l-141.632-249.216c-15.616-27.52-6.016-62.528 21.504-78.144s62.528-6.016 78.144 21.504l141.568 249.28c68.352-11.776 139.712 18.88 175.872 82.56 38.976 68.544 24.384 152.384-29.76 204.864l-80.704-142.144z" />
<glyph unicode="&#xe942;" glyph-name="palette" d="M526.629 528.457c0 65.829-51.2 117.029-117.029 117.029s-117.029-51.2-117.029-117.029c0-65.829 58.514-117.029 117.029-117.029 65.829 0 117.029 51.2 117.029 117.029zM409.6 484.571c-21.943 0-43.886 21.943-43.886 43.886s21.943 43.886 43.886 43.886c29.257 0 43.886-21.943 43.886-43.886s-21.943-43.886-43.886-43.886zM146.286 250.514c43.886 36.571 95.086 73.143 95.086 124.343s-51.2 80.457-109.714 117.029c-14.629 14.629-43.886 36.571-51.2 51.2 80.457 109.714 234.057 175.543 409.6 175.543 29.257 0 58.514 0 95.086-7.314l21.943 73.143c-36.571 7.314-73.143 7.314-117.029 7.314-197.486 0-380.343-80.457-475.429-212.114-14.629-21.943-14.629-36.571-14.629-51.2 7.314-36.571 51.2-65.829 95.086-95.086 21.943-14.629 73.143-43.886 73.143-58.514s-43.886-51.2-65.829-65.829c-36.571-29.257-80.457-58.514-80.457-95.086 0-14.629 0-29.257 21.943-51.2 65.829-73.143 168.229-124.343 285.257-153.6l21.943 65.829c-102.4 21.943-190.171 65.829-256 131.657 0 7.314 36.571 29.257 51.2 43.886zM987.429 528.457l-36.571-124.343c0-7.314 0-14.629 0-14.629 0-58.514-21.943-109.714-58.514-153.6l-43.886-138.971c102.4 73.143 168.229 175.543 168.229 292.571 7.314 51.2-7.314 95.086-29.257 138.971zM972.8 725.943c0 0 0 0 0 0v7.314c21.943 80.457-14.629 160.914-80.457 182.857-73.143 21.943-146.286-14.629-175.543-87.771v0l-234.057-629.029 51.2-263.314 212.114 168.229 226.743 621.714zM585.143 67.657l-21.943 102.4 102.4-36.571-80.457-65.829zM709.486 192l-131.657 43.886 182.857 497.371 124.343-51.2-175.543-490.057zM906.971 755.2l-124.343 43.886c14.629 36.571 51.2 58.514 87.771 43.886 29.257-7.314 43.886-43.886 36.571-87.771z" />
<glyph unicode="&#xe943;" glyph-name="parallel" d="M782.629 960h-541.257c-131.657 0-241.371-109.714-241.371-241.371v-548.571c0-124.343 109.714-234.057 241.371-234.057h548.571c131.657 0 241.371 109.714 241.371 241.371v541.257c-7.314 131.657-117.029 241.371-248.686 241.371zM950.857 177.371c0-87.771-73.143-168.229-168.229-168.229h-541.257c-95.086 0-168.229 73.143-168.229 168.229v541.257c0 95.086 73.143 168.229 168.229 168.229h548.571c87.771 0 160.914-73.143 160.914-168.229v-541.257zM438.857 455.314c-7.314 0-21.943 7.314-29.257 14.629-14.629 14.629-7.314 36.571 7.314 51.2l160.914 131.657-160.914 131.657c-14.629 14.629-21.943 36.571-7.314 51.2s36.571 14.629 51.2 7.314l197.486-160.914c7.314-7.314 14.629-14.629 14.629-29.257 0-7.314-7.314-21.943-14.629-29.257l-197.486-160.914c-7.314-7.314-14.629-7.314-21.943-7.314zM219.429 74.971c-7.314 0-21.943 7.314-29.257 14.629-14.629 14.629-7.314 36.571 7.314 51.2l160.914 131.657-160.914 131.657c-14.629 7.314-21.943 36.571-7.314 51.2s36.571 14.629 51.2 7.314l197.486-160.914c7.314-7.314 14.629-14.629 14.629-29.257s-7.314-21.943-14.629-29.257l-197.486-160.914c-7.314-7.314-14.629-7.314-21.943-7.314zM658.286 74.971c-7.314 0-21.943 7.314-29.257 14.629-14.629 14.629-7.314 36.571 7.314 51.2l160.914 131.657-160.914 131.657c-14.629 7.314-21.943 36.571-7.314 51.2s36.571 14.629 51.2 7.314l197.486-160.914c7.314-7.314 14.629-14.629 14.629-29.257s-7.314-21.943-14.629-29.257l-197.486-160.914c-7.314-7.314-14.629-7.314-21.943-7.314z" />
<glyph unicode="&#xe944;" glyph-name="pause" d="M785.408 959.049h-546.889c-131.511 0-238.519-106.715-238.519-237.934v-548.206c0-131.145 107.008-237.861 238.519-237.861h546.962c131.584 0 238.592 106.715 238.592 237.861v548.206c-0.073 131.218-107.081 237.934-238.665 237.934zM950.857 172.91c0-90.843-74.313-164.718-165.449-164.718h-546.889c-91.209 0-165.376 73.874-165.376 164.718v548.206c0 90.77 74.167 164.791 165.376 164.791h546.962c91.063 0 165.376-73.947 165.376-164.791v-548.206zM296.155 719.36h144.53v-544.622h-144.53v544.622zM583.314 719.36h144.53v-544.622h-144.53v544.622z" />
<glyph unicode="&#xe945;" glyph-name="pbp" d="M782.629 960h-541.257c-131.657 0-241.371-109.714-241.371-241.371v-548.571c0-124.343 109.714-234.057 241.371-234.057h548.571c131.657 0 241.371 109.714 241.371 241.371v541.257c-7.314 131.657-117.029 241.371-248.686 241.371zM950.857 177.371c0-87.771-73.143-168.229-168.229-168.229h-541.257c-95.086 0-168.229 73.143-168.229 168.229v541.257c0 95.086 73.143 168.229 168.229 168.229h548.571c87.771 0 160.914-73.143 160.914-168.229v-541.257zM248.686 206.629c-7.314 0-21.943 7.314-29.257 14.629-7.314 14.629-7.314 43.886 7.314 51.2l248.686 197.486-248.686 204.8c-14.629 14.629-14.629 36.571 0 51.2 7.314 14.629 29.257 21.943 51.2 7.314l285.257-226.743c7.314-7.314 14.629-14.629 14.629-29.257s-14.629-21.943-21.943-29.257l-285.257-226.743c0-7.314-7.314-14.629-21.943-14.629zM797.257 206.629h-124.343c-21.943 0-36.571 14.629-36.571 36.571s14.629 36.571 36.571 36.571h131.657c21.943 0 36.571-14.629 36.571-36.571s-21.943-36.571-43.886-36.571z" />
<glyph unicode="&#xe946;" glyph-name="pie" d="M519.826-52.37c-255.049 0-462.629 207.506-462.629 462.629 0 20.187 16.384 36.571 36.571 36.571s36.571-16.384 36.571-36.571c0-214.747 174.738-389.486 389.486-389.486s389.413 174.738 389.413 389.486c0 169.253-108.032 318.171-268.8 370.395-19.237 6.217-29.696 26.917-23.479 46.080 6.29 19.163 26.99 29.769 46.080 23.552 190.976-62.171 319.342-238.958 319.342-440.027 0.073-255.122-207.433-462.629-462.555-462.629zM489.179 390.217c-4.169 0-8.411 0.731-12.434 2.194l-448.366 162.231c-9.216 3.291-16.603 10.094-20.773 18.871s-4.608 18.798-1.317 27.941c73.435 202.825 267.483 339.163 482.816 339.163 20.187 0 36.571-16.384 36.571-36.571v-477.257c0-11.922-5.851-23.113-15.579-29.915-6.217-4.389-13.531-6.656-20.919-6.656zM89.015 610.45l363.52-131.511v387.072c-157.623-13.239-297.326-111.47-363.52-255.561z" />
<glyph unicode="&#xe947;" glyph-name="poNode" d="M448.109 960v-320.078h576.141v320.078h-576.141zM0 511.891v-576.141h1024.25v576.141h-1024.25z" />
<glyph unicode="&#xe948;" glyph-name="pre" d="M862.427 923.429l-501.102-481.646v481.573h-146.286v-950.784h146.286v463.506l501.102-463.506z" />
<glyph unicode="&#xe949;" glyph-name="print" d="M272.066 960v-200.049h480.117v200.049h-480.117zM98.024 847.973c-54.135 0-98.024-43.888-98.024-98.024v-358.087c0-54.136 43.888-98.024 98.024-98.024h828.202c54.135 0 98.024 43.888 98.024 98.024v358.087c0 54.135-43.888 98.024-98.024 98.024h-110.027v-168.041h-608.148v168.041h-110.027zM284.069 235.823v-300.073h484.118v300.073h-484.118zM330.081 173.808h364.089v-52.013h-364.089v52.013zM332.081 65.782h264.064v-50.012h-264.064v50.012z" />
<glyph unicode="&#xe94a;" glyph-name="move" d="M497.141 949.998c-30.145 0-54.013-30.405-54.013-69.745v-354.701l-62.015-15.942h-6.001v241.117c0 39.34-23.868 71.737-54.013 71.737s-54.013-32.398-54.013-71.737v-316.84l-44.011-63.767-10.002-13.949-100.024 99.635c-27.926 27.817-70.946 28.965-96.023 3.985s-21.925-67.832 6.001-95.65l212.052-209.234c31.685-130.554 169.069-229.161 332.081-229.161 175.483 0 318.006 115.674 334.082 261.044 2.746 8.501 4.001 16.070 4.001 25.905v414.483c0 39.34-23.868 71.737-54.013 71.737s-56.014-32.398-56.014-71.737v-153.438l-34.008 9.964-32.008 17.934v318.833c0 39.34-25.869 71.737-56.014 71.737s-54.013-32.398-54.013-71.737v-288.942l-44.011 1.993-24.006 3.985v342.745c0 39.34-23.868 69.745-54.013 69.745z" />
<glyph unicode="&#xe94b;" glyph-name="node-close" d="M0 886.857v-950.857h950.857v950.857h-950.857zM877.714 9.143h-804.571v804.571h804.571v-804.571zM438.857 155.429h73.143v219.429h219.429v73.143h-219.429v219.429h-73.143v-219.429h-219.429v-73.143h219.429z" />
<glyph unicode="&#xe94c;" glyph-name="node-open" d="M950.857-64h-950.857v950.857h950.857v-950.857zM73.143 9.143h804.571v804.571h-804.571v-804.571zM219.429 448h512v-73.143h-512v73.143z" />
<glyph unicode="&#xe94d;" glyph-name="noticeAlarm" d="M518.656 957.659c-282.331 0-512-229.669-512-512 0-282.258 229.669-512 512-512s512.073 229.742 512.073 512c0 282.331-229.742 512-512.073 512zM518.656 6.875c-242.030 0-438.857 196.827-438.857 438.857s196.827 438.857 438.857 438.857c242.103 0 438.93-196.827 438.93-438.857s-196.901-438.857-438.93-438.857zM818.907 527.506c-1.755 0-3.365-1.243-5.339-1.463v192.951c0 0-27.209 12.142-51.273 0-50.834-25.307-118.711-109.495-190.245-123.173-71.314-13.531-264.265 0.512-350.939-7.607-23.918-2.121-63.927-15.067-67.511-67.584-3.877-52.443 0-107.154 0-107.154s19.602-45.202 45.056-45.202c25.381 0 81.627 0 81.627 0s-2.121-107.447 0-143.287c3.145-50.176 18.871-62.318 38.107-88.137 11.045-15.141 73.655-49.737 112.347-25.966 21.504 13.385 39.643 36.425 31.89 65.536-9.509 35.182-44.105 1.39-54.711 44.105-10.679 42.496-7.607 127.561-7.607 127.561s18.286 25.893 42.642 31.963c5.413 1.463 74.459-4.608 74.459-4.608s190.464-66.779 235.52-129.097c31.963-44.032 60.635-13.531 60.635-13.531v190.61c1.902-0.219 3.584-1.463 5.266-1.463 20.626 0 37.376 23.479 37.376 52.809 0.073 29.111-16.603 52.736-37.303 52.736zM781.824 291.913h-13.824c0 0 0 0-39.424 35.035-39.424 34.889-127.122 69.925-180.809 86.674-15.433 4.754-65.024 8.338-65.024 8.338v112.347c6.437 0.146 17.262 4.389 37.815 3.73 107.886-2.999 249.198 129.243 249.198 129.243h12.142v-375.369z" />
<glyph unicode="&#xe94e;" glyph-name="noticeFilter" d="M490.057-64c-7.314 0-7.314 0-14.629 0-14.629 7.314-21.943 21.943-21.943 36.571v548.571c-21.943 43.886-190.171 219.429-343.771 365.714-7.314 14.629-7.314 29.257-7.314 43.886 7.314 14.629 21.943 21.943 36.571 21.943h789.943c14.629 0 29.257-7.314 29.257-21.943 7.314-14.629 7.314-29.257 0-36.571l-263.314-380.343v-358.4c0-7.314 0-14.629-7.314-21.943l-168.229-182.857c-7.314-7.314-21.943-14.629-29.257-14.629zM226.743 879.543c299.886-299.886 299.886-336.457 299.886-351.086v-460.8l95.086 102.4v358.4c0 7.314 0 14.629 7.314 21.943l234.057 329.143h-636.343zM943.543 740.571l-58.514-73.143h65.829v-599.771h-182.857v-73.143h256v746.057zM394.971 67.657h-321.829v599.771h153.6l-58.514 73.143h-168.229v-746.057h394.971zM402.286 228.571h-226.743c-21.943 0-36.571-14.629-36.571-36.571s14.629-36.571 36.571-36.571h226.743v73.143zM855.771 228.571h-87.771v-73.143h87.771c21.943 0 36.571 14.629 36.571 36.571s-14.629 36.571-36.571 36.571zM402.286 374.857h-226.743c-21.943 0-36.571-14.629-36.571-36.571s14.629-36.571 36.571-36.571h226.743v73.143zM855.771 374.857h-87.771v-73.143h87.771c21.943 0 36.571 14.629 36.571 36.571s-14.629 36.571-36.571 36.571zM402.286 506.514l-21.943 14.629h-204.8c-21.943 0-36.571-14.629-36.571-36.571s14.629-36.571 36.571-36.571h226.743v58.514z" />
<glyph unicode="&#xe94f;" glyph-name="open" d="M0-27.429c0 7.314 0 21.943 7.314 29.257l475.429 482.743c7.314 0 21.943 7.314 29.257 7.314s21.943-7.314 29.257-7.314l475.429-482.743c14.555-14.629 14.555-36.571 0-51.2-14.629-14.629-36.571-14.629-51.2 0l-453.486 453.486-446.171-453.486c-14.629-14.629-36.571-14.629-51.2 0-7.314 0-14.629 14.629-14.629 21.943z" />
<glyph unicode="&#xe950;" glyph-name="next" d="M215.040 923.429l501.102-481.646v481.573h146.286v-950.784h-146.286v463.506l-501.102-463.506z" />
<glyph unicode="&#xe951;" glyph-name="no-voice" d="M943.543 9.143c-7.314 0-21.943 0-29.257 7.314l-797.257 804.571c-14.629 14.629-14.629 36.571 0 51.2s36.571 14.629 51.2 0l797.257-797.257c14.629-14.629 14.629-36.571 0-51.2-7.314-7.314-14.629-14.629-21.943-14.629zM928.914 469.943c0-95.086-14.629-168.229-29.257-226.743l58.514-58.514c21.943 65.829 43.886 160.914 43.886 285.257 0 263.314-124.343 380.343-131.657 387.657-14.629 14.629-36.571 14.629-51.2 0s-14.629-36.571 0-51.2c7.314-7.314 109.714-109.714 109.714-336.457zM731.429 462.629c0-14.629 0-29.257 0-43.886l65.829-65.829c7.314 29.257 7.314 65.829 7.314 109.714 0 153.6-73.143 219.429-73.143 219.429-14.629 14.629-36.571 14.629-51.2 0s-14.629-43.886 0-58.514c7.314 0 51.2-43.886 51.2-160.914zM431.543 718.629l73.143 65.829v-138.971l73.143-73.143v277.943c0 21.943-14.629 36.571-29.257 43.886-21.943 7.314-43.886 0-58.514-7.314l-117.029-117.029 58.514-51.2zM497.371 301.714v-175.543l-190.171 182.857c-7.314 14.629-14.629 14.629-29.257 14.629h-182.857v263.314h124.343l-73.143 73.143h-73.143c-29.257 0-43.886-21.943-43.886-43.886v-314.514c0-29.257 21.943-43.886 43.886-43.886h197.486l226.743-219.429c7.314-7.314 21.943-14.629 36.571-14.629 7.314 0 14.629 0 14.629 0 14.629 7.314 29.257 21.943 29.257 43.886v160.914l-80.457 73.143z" />
<glyph unicode="&#xe952;" glyph-name="message" d="M1024 521.143c0-182.857-226.743-336.457-512-336.457-58.514 0-394.971-153.6-394.971-153.6s124.343 197.486 80.457 219.429c-117.029 65.829-197.486 160.914-197.486 270.629 0 182.857 226.743 336.457 512 336.457s512-146.286 512-336.457z" />
<glyph unicode="&#xe953;" glyph-name="modify" d="M1024 777.143c0 36.571-14.629 73.143-43.886 102.4l-29.257 36.571c-58.514 58.514-160.914 58.514-226.743-7.314l-36.571-43.886-607.086-607.086-80.457-321.829 329.143 73.143 621.714 621.714-7.314 7.314 29.257 29.257c36.571 21.943 51.2 65.829 51.2 109.714zM102.4 31.086l43.886 190.171 7.314 7.314 146.286-146.286h-7.314l-190.171-51.2zM351.086 140.8l-146.286 146.286 490.057 490.057 146.286-146.286-490.057-490.057zM921.6 711.314l-29.257-29.257-138.971 138.971 21.943 29.257c36.571 36.571 87.771 36.571 117.029 7.314l29.257-29.257c21.943-7.314 29.257-29.257 29.257-51.2s-14.629-51.2-29.257-65.829z" />
<glyph unicode="&#xe954;" glyph-name="Monitor" d="M508.608 950.4c-282.368 0-512.064-229.696-512.064-512 0-282.432 229.696-512 512.064-512 282.304 0 511.936 229.632 512 512 0 282.368-229.632 512-512 512zM508.608-9.6c-247.040 0-448.064 201.024-448.064 448s201.024 448 448.064 448 447.936-201.024 448-448c0-246.976-200.96-448-448-448zM610.048 250.496h-203.008v-33.856h-168.96v-64h540.928v64h-168.96zM206.080 293.376h604.928v429.312h-604.928v-429.312zM749.056 342.976h-68.032v28.032h68.032v-28.032zM270.080 658.688h476.928v-250.688h-476.928v250.688z" />
<glyph unicode="&#xe955;" glyph-name="more" d="M205.568 139.691l-60.331 60.331 283.904 283.989-283.904 283.989 60.331 60.331 344.235-344.32zM570.027 139.691l-60.331 60.331 283.904 283.989-283.904 283.989 60.331 60.331 344.235-344.32z" />
<glyph unicode="&#xe956;" glyph-name="more-line" d="M36.571 557.714h402.286c21.943 0 36.571 14.629 36.571 36.571s-14.629 36.571-36.571 36.571h-402.286c-21.943 0-36.571-14.629-36.571-36.571s14.629-36.571 36.571-36.571zM36.571 243.2h753.371c21.943 0 36.571 14.629 36.571 36.571s-14.629 36.571-36.571 36.571h-753.371c-21.943 0-36.571-14.629-36.571-36.571s14.629-36.571 36.571-36.571zM987.429 9.143h-950.857c-21.943 0-36.571-14.629-36.571-36.571s14.629-36.571 36.571-36.571h950.857c14.629 0 36.571 14.629 36.571 36.571s-14.629 36.571-36.571 36.571z" />
<glyph unicode="&#xe957;" glyph-name="newShortcut" d="M370.090 960v-100.024h132.032v-322.079h-132.032v-98.024h-170.042v-504.123h800.195v810.198l-194.047 214.052h-436.106zM150.037 903.986v-132.032h-132.032v-128.031h132.032v-132.032h128.031v132.032h132.032v128.031h-132.032v132.032h-128.031zM704.172 455.877l204.050-204.050-198.048-198.048-2 132.032h-244.060v156.038h242.059l-2 114.028zM352.086 343.85h40.010v-158.039h-40.010v158.039z" />
<glyph unicode="&#xe958;" glyph-name="lock" d="M870.4 572.343v0h-65.829v95.086c0 160.914-131.657 292.571-292.571 292.571s-292.571-131.657-292.571-292.571v-95.086h-65.829c-58.514-7.314-95.086-65.829-95.086-124.343v-380.343c0-73.143 58.514-131.657 131.657-131.657h650.971c73.143 0 131.657 58.514 131.657 131.657v380.343c0 65.829-43.886 117.029-102.4 124.343zM292.571 667.429c0 124.343 95.086 219.429 219.429 219.429s219.429-95.086 219.429-219.429v-95.086h-438.857v95.086zM899.657 67.657c0-36.571-21.943-58.514-58.514-58.514h-658.286c-29.257 0-58.514 21.943-58.514 58.514v380.343c0 29.257 14.629 51.2 29.257 51.2h702.171c21.943-7.314 36.571-21.943 36.571-51.2v-380.343zM512 448c-58.514 0-109.714-51.2-109.714-109.714 0-51.2 29.257-87.771 73.143-102.4v-153.6c0-21.943 14.629-36.571 36.571-36.571s36.571 14.629 36.571 36.571v153.6c43.886 14.629 73.143 58.514 73.143 102.4 0 58.514-51.2 109.714-109.714 109.714zM512 301.714c-21.943 0-36.571 14.629-36.571 36.571s14.629 36.571 36.571 36.571 36.571-14.629 36.571-36.571-14.629-36.571-36.571-36.571z" />
<glyph unicode="&#xe959;" glyph-name="loseError" d="M73.143-64h-73.143l346.551 633.271 148.992-336.165 350.135 512.219 60.416-41.326-424.302-620.471-145.627 328.704zM1024 473.893l-408.357 408.357h408.357z" />
<glyph unicode="&#xe95a;" glyph-name="ltArrow" d="M839.68 165.056l-469.12 469.12 325.824 325.824h-696.384v-696.384l325.312 325.312 469.12-469.12z" />
<glyph unicode="&#xe95b;" glyph-name="Magnifier" d="M1002.057 89.6l-146.286 124.343c-14.629 7.314-29.257 14.629-51.2 14.629l-43.886 43.886c51.2 73.143 87.771 160.914 87.771 256 0 234.057-190.171 424.229-424.229 424.229s-424.229-190.171-424.229-424.229 190.171-424.229 424.229-424.229c95.086 0 190.171 36.571 263.314 87.771l43.886-36.571c0-14.629 7.314-36.571 21.943-51.2l117.029-146.286c29.257-29.257 73.143-29.257 102.4 0v0l29.257 29.257c29.257 29.257 29.257 73.143 0 102.4zM431.543 177.371c-190.171 0-351.086 153.6-351.086 351.086 0 190.171 153.6 351.086 351.086 351.086 190.171 0 351.086-153.6 351.086-351.086s-160.914-351.086-351.086-351.086z" />
<glyph unicode="&#xe95c;" glyph-name="Maintain" d="M512.064 960c-282.368 0-512.064-229.632-512.064-512 0-282.432 229.696-512 512.064-512 282.304 0 511.936 229.632 511.936 512s-229.632 512-511.936 512zM512.064 0c-247.040 0-448.064 201.024-448.064 448 0 247.040 201.024 448 448.064 448 246.976 0 447.936-200.96 447.936-448 0-246.976-200.96-448-447.936-448zM734.976 587.776l20.672 55.808-49.408 32.896-3.84 59.392-58.56 9.856-27.52 52.672-57.728-14.72-46.592 36.864-46.656-36.864-57.6 14.72-27.52-52.672-58.688-9.92-3.712-59.392-49.536-32.832 20.672-55.808-31.808-50.24 41.536-42.496-8.64-58.816 55.296-21.824 13.952-49.92-88.64-237.504 91.648 25.152 46.656-76.736 97.92 262.272 5.12 2.56 3.264-1.6 95.488-255.872 46.656 76.608 91.648-25.152-84.992 227.776 14.656 52.416 55.296 21.824-8.704 58.816 41.6 42.496-31.936 50.24zM626.176 421.12l-105.024-39.104c-3.072-0.256-6.016-1.024-9.152-1.024-19.968 0-38.784 4.032-56.768 9.728l-21.44 8.064c-63.552 29.568-107.904 93.568-107.904 168.32 0 102.848 83.328 186.176 186.112 186.176 102.848 0 186.112-83.328 186.112-186.176 0-59.52-28.416-111.936-71.936-145.984zM669.12 567.168c0-86.775-70.345-157.12-157.12-157.12s-157.12 70.345-157.12 157.12c0 86.775 70.345 157.12 157.12 157.12s157.12-70.345 157.12-157.12z" />
<glyph unicode="&#xe95d;" glyph-name="manAnalysis" d="M608.037 573.147c7.314-9.143 15.141-17.627 23.698-25.381l-16.823-35.986c-9.216-19.602 0.293-43.739 21.065-53.614l25.966-12.507c20.846-10.021 45.202-2.048 54.272 17.554l16.75 35.986c10.386-1.609 20.699-3.145 31.598-3.145 10.679 0 21.211 1.536 31.598 3.145l16.75-35.986c9.143-19.675 33.426-27.575 54.272-17.627l25.893 12.507c20.919 9.874 30.354 34.011 21.211 53.614l-16.75 36.133c8.558 7.68 16.457 16.238 23.698 25.381l36.279-15.287c19.822-8.411 43.154 2.414 51.858 23.991l10.971 26.917c8.997 21.65 0 45.861-19.822 54.199l-36.571 15.287c0.878 7.387 2.194 14.629 2.194 22.309 0 7.607-1.39 14.775-2.194 22.162l36.718 15.36c19.822 8.411 28.818 32.622 19.822 54.199l-10.898 26.99c-8.704 21.577-32.11 32.329-51.858 23.991l-36.425-15.287c-7.241 9.143-14.994 17.627-23.698 25.307l16.75 36.279c9.143 19.602-0.293 43.666-21.138 53.614l-26.039 12.434c-20.699 9.947-44.983 2.048-54.126-17.554l-16.75-36.059c-10.386 1.682-20.699 3.218-31.598 3.218s-21.211-1.536-31.598-3.218l-16.75 36.059c-9.143 19.602-33.499 27.502-54.199 17.554l-25.966-12.434c-20.919-10.021-30.427-34.011-21.211-53.614l16.75-36.206c-8.558-7.753-16.53-16.165-23.698-25.381l-36.425 15.36c-19.822 8.411-43.081-2.341-51.858-23.991l-11.045-26.99c-8.777-21.577 0.146-45.861 19.968-54.199l36.571-15.287c-0.878-7.461-2.267-14.629-2.267-22.235 0-7.68 1.536-14.921 2.267-22.382l-36.571-15.287c-19.749-8.411-28.745-32.549-19.968-54.199l11.045-26.917c8.777-21.504 32.037-32.329 51.785-23.991l36.498 15.214zM764.635 827.173c68.608 0 124.489-56.613 124.489-126.537 0-69.778-55.735-126.464-124.489-126.464s-124.562 56.686-124.562 126.464c0 69.925 55.808 126.537 124.562 126.537zM2.926-74.021h463.141v386.56h-463.141v-386.56zM392.923-0.878h-121.856v240.274h121.856v-240.274zM76.069 239.397h121.856v-240.274h-121.856v240.274zM317.147 595.456l-133.559-8.119c14.19 31.378 35.84 58.953 65.463 79.872 106.13 74.679 191.269 42.789 191.269 42.789-76.946 54.491-160.11 59.099-227.182 12.507-49.957-34.523-86.235-81.774-102.839-136.997l-110.299-4.389 160.11-149.358 157.038 163.694zM915.822 335.214l-198.729-109.275 129.755-32.183c-22.894-25.673-51.858-45.422-86.382-56.466-123.611-39.57-195.291 16.53-195.291 16.53 57.125-75.045 135.168-104.375 213.138-80.018 58.002 17.92 106.715 52.297 139.045 99.913l106.642-28.965-108.178 190.464z" />
<glyph unicode="&#xe95e;" glyph-name="maximize" d="M177.942 639.922v-704.172h704.172v704.172zM273.523 360.091h513.009v-326.317h-513.009z" />
<glyph unicode="&#xe95f;" glyph-name="memory" d="M1023.854 306.249l-97.938 566.491h-794.99l-130.706-566.491h-0.219v-284.306h1024v284.306h-0.146zM183.296 799.598h686.885l72.923-421.010h-856.942l97.134 421.010zM955.685 95.159h-887.369v137.947h887.442v-137.947zM131.95 209.262h73.143v-99.109h-73.143v99.109zM247.003 209.262h73.143v-99.109h-73.143v99.109zM890.368 157.769c0-17.693-14.343-32.037-32.037-32.037s-32.037 14.343-32.037 32.037c0 17.693 14.343 32.037 32.037 32.037s32.037-14.343 32.037-32.037z" />
<glyph unicode="&#xe960;" glyph-name="menu" d="M0 849.728h1024v-72.896h-1024v72.896zM0 484.416h1024v-72.96h-1024v72.96zM0 119.104h1024v-72.896h-1024v72.896z" />
<glyph unicode="&#xe961;" glyph-name="idea" d="M512 960c-190.171 0-343.771-153.6-343.771-343.771 0-117.029 51.2-219.429 131.657-270.629 73.143-51.2 65.829-138.971 65.829-138.971 0-7.314 0-21.943 7.314-29.257 0 0 7.314 0 7.314-7.314-14.629-14.629-29.257-29.257-29.257-58.514s14.629-51.2 43.886-65.829c-7.314-14.629-14.629-21.943-14.629-43.886 0-43.886 29.257-73.143 73.143-73.143h117.029c43.886 0 73.143 29.257 73.143 73.143 0 14.629-7.314 29.257-14.629 43.886 29.257 14.629 43.886 36.571 43.886 65.829 0 21.943-7.314 43.886-29.257 58.514 0 0 7.314 0 7.314 7.314 7.314 7.314 14.629 14.629 7.314 29.257 0 0-14.629 87.771 65.829 138.971s131.657 153.6 131.657 270.629c0 190.171-153.6 343.771-343.771 343.771zM687.543 404.114c-80.457-51.2-95.086-124.343-102.4-168.229h-146.286c0 43.886-21.943 117.029-102.4 168.229-58.514 43.886-95.086 117.029-95.086 212.114 0 146.286 124.343 270.629 270.629 270.629s270.629-124.343 270.629-270.629c0-95.086-36.571-168.229-95.086-212.114z" />
<glyph unicode="&#xe962;" glyph-name="import" d="M921.6 572.343c-21.943 0-36.571-14.629-36.571-36.571v-512h-760.686v512c0 21.943-14.629 36.571-36.571 36.571s-36.571-14.629-36.571-36.571v-548.571c0-21.943 14.629-36.571 36.571-36.571h833.829c21.943 0 36.571 14.629 36.571 36.571v548.571c0 21.943-14.629 36.571-36.571 36.571zM987.429 923.429c-7.314 21.943-21.943 29.257-43.886 29.257-14.629 0-299.886-65.829-424.229-292.571-58.514-95.086-73.143-204.8-51.2-321.829l-131.657 197.486c-7.314 14.629-36.571 14.629-51.2 7.314-14.629-14.629-21.943-36.571-7.314-51.2l204.8-307.2c7.314-7.314 14.629-14.629 29.257-14.629v0c14.629 0 21.943 7.314 29.257 14.629l234.057 307.2c14.629 14.629 7.314 36.571-7.314 51.2s-36.571 7.314-51.2-7.314l-168.229-219.429c-29.257 117.029-14.629 219.429 36.571 307.2 109.714 197.486 373.029 256 380.343 256 14.629 7.314 29.257 21.943 21.943 43.886z" />
<glyph unicode="&#xe963;" glyph-name="inProgress" d="M277.943 448c0-76.752-62.22-138.971-138.971-138.971s-138.971 62.22-138.971 138.971c0 76.752 62.22 138.971 138.971 138.971s138.971-62.22 138.971-138.971zM650.971 448c0-76.752-62.22-138.971-138.971-138.971s-138.971 62.22-138.971 138.971c0 76.752 62.22 138.971 138.971 138.971s138.971-62.22 138.971-138.971zM1024 448c0-76.752-62.22-138.971-138.971-138.971s-138.971 62.22-138.971 138.971c0 76.752 62.22 138.971 138.971 138.971s138.971-62.22 138.971-138.971z" />
<glyph unicode="&#xe964;" glyph-name="launchingTower" d="M212.052 953.999c-86.291-49.57-144.035-133.894-144.035-230.056 0-97.747 59.424-182.865 148.036-232.057l24.006 52.013c-65.85 40.076-108.026 105.11-108.026 180.044s42.176 141.968 108.026 182.044l-28.007 48.012zM848.207 953.999l-28.007-48.012c65.85-40.076 108.026-107.111 108.026-182.044s-42.176-139.968-108.026-180.044l24.006-52.013c88.612 49.192 148.036 134.309 148.036 232.057 0 96.162-57.744 180.486-144.035 230.056zM318.078 889.983c-57.756-35.483-98.024-97.206-98.024-166.041 0-69.97 40.714-130.828 100.024-166.041l16.004 38.009c-44.075 28.688-72.018 74.392-72.018 128.031s27.943 101.344 72.018 130.032l-18.004 36.009zM742.181 889.983l-18.004-36.009c44.075-28.688 72.018-76.393 72.018-130.032s-27.943-99.344-72.018-128.031l16.004-38.009c59.31 35.213 100.024 96.071 100.024 166.041 0 68.835-40.268 130.557-98.024 166.041zM406.099 819.966c-33.577-20.628-56.014-56.006-56.014-96.023 0-40.677 23.534-75.553 58.014-96.023l10.002 22.005c-25.623 16.678-42.010 42.835-42.010 74.018s16.387 59.341 42.010 76.019l-12.003 20.005zM654.16 819.966l-12.003-20.005c25.623-16.678 42.010-44.835 42.010-76.019s-16.387-57.341-42.010-74.018l10.002-22.005c34.48 20.471 58.014 55.346 58.014 96.023 0 40.017-22.437 75.395-56.014 96.023zM480.117 765.953l-28.007-830.203h156.038l-28.007 830.203h-100.024zM219.042 399.47h121.937v-463.503h-121.937v463.503zM88.021 304.057v-368.090h152.037v368.090h-152.037zM114.028 288.053h26.006v-346.084h-26.006v346.084zM-4.536 115.603h99.561v-179.853h-99.561v179.853zM592.645 156.65h82.685v-223.655h-82.685v223.655zM662.254 379.668h78.352v-446.673h-78.352v446.673zM738.18 253.828v-318.078h94.023v318.078h-94.023zM758.185 225.821h20.005v-262.064h-20.005v262.064zM808.197 143.801v-208.051h174.042v208.051h-174.042zM864.211 99.79h82.020v-146.036h-82.020v146.036zM967.832 45.676h68.378v-109.926h-68.378v109.926zM331.282 141.525v-208.051h143.894v208.051h-143.894zM377.593 97.514h67.812v-146.036h-67.812v146.036z" />
<glyph unicode="&#xe965;" glyph-name="layout" d="M387.264 659.2l-201.856-204.16 201.856-204.16v133.76h131.456v145.472h-131.456v129.088zM650.112 440.896v-129.088h-131.392v-145.472h131.392v-133.824l201.856 204.16-201.856 204.224zM927.040-64h-830.208v830.272h830.272v-830.272zM160.832 0h702.272v702.272h-702.272v-702.272zM1024 734.272c0-17.664-14.4-32-32-32h-960.064c-17.664 0-32 14.336-32 32v0c0 17.664 14.336 32 32 32h960.064c17.6 0 32-14.272 32-32v0z" />
<glyph unicode="&#xe966;" glyph-name="legendhide" d="M1024.25 960v-1024.25h-736.688v1024.25zM168.177 960v-1024.25h-168.177v1024.25zM636.087 629.919l-182.044-182.044 182.044-182.044v122.030h232.057v120.029h-232.057z" />
<glyph unicode="&#xe967;" glyph-name="legendshow" d="M0 960v-1024.25h602.147v1024.25h-602.147zM704.172 960v-1024.25h320.078v1024.25h-320.078zM778.19 823.967h172.042v-86.021h-172.042v86.021zM336.082 629.919l182.044-182.044-182.044-182.044v122.030h-232.057v120.029h232.057v122.030zM778.19 583.908h172.042v-86.021h-172.042v86.021zM778.19 343.85h172.042v-86.021h-172.042v86.021zM778.19 105.791h172.042v-88.021h-172.042v88.021z" />
<glyph unicode="&#xe968;" glyph-name="link" d="M174.042 960c-95.784 0-174.042-78.258-174.042-174.042s78.258-172.042 174.042-172.042c30.243 0 57.266 6.396 82.020 20.005l442.108-442.108c-13.609-24.754-20.005-51.777-20.005-82.020 0-95.784 76.258-174.042 172.042-174.042s174.042 78.258 174.042 174.042c0 95.784-78.258 172.042-174.042 172.042-30.577 0-59.076-6.115-84.021-20.005l-442.108 438.107c14.955 25.634 22.005 54.203 22.005 86.021 0 95.784-76.258 174.042-172.042 174.042zM174.042 873.979c47.892 0 86.021-40.129 86.021-88.021s-38.129-86.021-86.021-86.021c-47.892 0-88.021 38.129-88.021 86.021s40.129 88.021 88.021 88.021zM850.208 195.813c47.892 0 88.021-38.129 88.021-86.021s-40.129-88.021-88.021-88.021c-47.892 0-86.021 40.129-86.021 88.021s38.129 86.021 86.021 86.021z" />
<glyph unicode="&#xe969;" glyph-name="godown" d="M548.571-20.114l292.571 380.343c14.629 14.629 7.314 36.571-7.314 51.2s-36.571 7.314-51.2-7.314l-226.743-292.571v694.857c0 21.943-14.629 36.571-36.571 36.571s-36.571-21.943-36.571-36.571v-694.857l-241.371 292.571c-14.629 14.629-36.571 21.943-51.2 7.314-14.629-7.314-14.629-14.629-14.629-29.257 0-7.314 0-14.629 7.314-21.943l307.2-380.343c7.314-7.314 14.629-14.629 29.257-14.629 7.314 0 21.943 7.314 29.257 14.629z" />
<glyph unicode="&#xe96a;" glyph-name="goup" d="M475.429 901.486l-292.571-380.343c-14.629-14.629-14.629-43.886 7.314-51.2 14.629-14.629 36.571-7.314 51.2 7.314l226.743 292.571v-694.857c0-21.943 14.629-36.571 36.571-36.571s36.571 14.629 36.571 36.571v702.171l241.371-299.886c14.629-14.629 36.571-14.629 51.2-7.314 7.314 7.314 14.629 14.629 14.629 29.257 0 7.314 0 14.629-7.314 21.943l-307.2 380.343c-7.314 7.314-21.943 14.629-29.257 14.629-14.629 0-21.943-7.314-29.257-14.629z" />
<glyph unicode="&#xe96b;" glyph-name="grammarCheck" d="M782.629 960h-541.257c-131.657 0-241.371-109.714-241.371-241.371v-548.571c0-124.343 109.714-234.057 241.371-234.057h548.571c131.657 0 241.371 109.714 241.371 241.371v541.257c-7.314 131.657-117.029 241.371-248.686 241.371zM950.857 177.371c0-87.771-73.143-168.229-168.229-168.229h-541.257c-95.086 0-168.229 73.143-168.229 168.229v541.257c0 95.086 73.143 168.229 168.229 168.229h548.571c87.771 0 160.914-73.143 160.914-168.229v-541.257zM533.943 352.914l-87.771-117.029 153.6-168.229 285.257 409.6-270.629-285.257zM694.857 140.8l7.314-14.629h109.714l-51.2 117.029zM533.943 411.429l36.571-65.829h51.2l29.257-73.143 73.143 80.457-204.8 490.057h-102.4l-277.943-716.8h102.4l80.457 219.429h160.914l51.2 65.829zM424.229 630.857c14.629 51.2 29.257 95.086 36.571 138.971 14.629-36.571 29.257-87.771 51.2-146.286l73.143-197.486h-241.371l80.457 204.8z" />
<glyph unicode="&#xe96c;" glyph-name="Graphical" d="M823.104 449.088c0-89.472-37.376-169.6-96.576-226.688l132.096-132.096c92.096 91.072 149.44 218.112 149.44 358.784v0.064l-184.96-0.064zM795.392 574.784h195.136c-49.024 191.36-205.312 338.56-400.896 368.896v-191.936c92.736-23.616 167.808-89.984 205.76-176.96zM611.392 153.344c-30.464-10.688-62.656-17.344-96.768-17.344-170.304 0-308.352 140.096-308.352 313.152 0 154.752 110.848 282.56 256.256 307.776v190.272c-248.064-26.432-441.408-239.36-441.408-498.112 0-276.608 220.992-500.864 493.504-500.864 86.72 0 167.424 23.744 238.208 63.68l-141.44 141.44z" />
<glyph unicode="&#xe96d;" glyph-name="half-grid" d="M14.629-64h438.857v512h-438.857c0 0 0-512 0-512zM87.771 374.857h292.571v-365.714h-292.571c0 0 0 365.714 0 365.714zM563.2 448v-512h438.857v512h-438.857zM936.229 9.143h-292.571v365.714h292.571v-365.714z" />
<glyph unicode="&#xe96e;" glyph-name="half-grid-selected" d="M14.629 448h438.857v-512h-438.857v512zM563.2 448h438.857v-512h-438.857v512z" />
<glyph unicode="&#xe96f;" glyph-name="helpTip" d="M512-27.429c-262.144 0-475.429 213.285-475.429 475.429s213.285 475.429 475.429 475.429 475.429-213.285 475.429-475.429-213.285-475.429-475.429-475.429zM512 850.286c-221.769 0-402.286-180.443-402.286-402.286 0-221.769 180.517-402.286 402.286-402.286s402.286 180.517 402.286 402.286c0 221.842-180.517 402.286-402.286 402.286zM476.379 302.007c-0.293 9.435-0.366 16.457-0.366 21.138 0 27.648 4.023 51.493 11.776 71.607 5.705 15.141 14.921 30.501 27.721 45.787 9.435 11.191 26.258 27.575 50.688 49.079 24.357 21.504 40.229 38.693 47.47 51.493 7.387 12.727 10.971 26.697 10.971 41.838 0 27.355-10.679 51.419-32.11 72.192-21.285 20.699-47.543 31.086-78.555 31.086-29.989 0-55.077-9.362-75.118-28.16-19.968-18.798-33.28-48.201-39.497-88.137l-72.411 8.631c6.583 53.467 25.893 94.427 58.075 122.88 32.183 28.379 74.752 42.642 127.707 42.642 56.174 0 100.864-15.287 134.29-45.787s50.030-67.438 50.030-110.738c0-25.015-5.851-48.128-17.481-69.266-11.703-21.138-34.816-46.811-68.974-77.019-22.967-20.334-37.961-35.328-45.056-44.983s-12.215-20.773-15.579-33.28-5.339-32.841-5.851-61.001h-67.73zM472.137 160.768v80.238h80.165v-80.238h-80.165z" />
<glyph unicode="&#xe970;" glyph-name="hide" d="M368.090 960v-596.146h-234.057l364.089-360.088h-498.122v-70.017h1024.25v70.017h-522.127l388.095 360.088h-234.057v596.146h-288.070z" />
<glyph unicode="&#xe971;" glyph-name="history" d="M167.656 773.113v-487.447l34.008-73.368h572.525l38.009 75.244v33.864h26.006c104.427 0 188.046 78.637 188.046 176.837 0 98.206-83.619 176.843-188.046 176.843h-26.006v98.027zM812.198 613.003h14.003c66.914 0 122.030-51.833 122.030-114.761 0-62.921-55.115-112.872-122.030-112.872h-14.003zM0 116.351l108.026-180.601h834.204l82.020 180.601z" />
<glyph unicode="&#xe972;" glyph-name="historyAlarm" d="M672.329 608.695l-117.906-100.571c-10.679 6.217-22.528 10.679-35.767 10.679-8.997 0-17.335-2.121-25.234-5.12l-182.491 182.491c-13.458 13.458-35.84 12.727-50.103-1.609-14.263-14.263-14.994-36.645-1.609-50.103l188.416-188.416c-0.512-3.511-2.121-6.656-2.121-10.386 0-40.375 32.768-73.143 73.143-73.143 39.643 0 71.534 31.671 72.704 71.022l128.439 109.568c15.36 13.093 17.189 36.133 4.169 51.493-13.166 15.433-36.279 17.262-51.639 4.096zM518.656 753.152c20.187 0 36.571 16.384 36.571 36.571v51.2c0 20.187-16.384 36.571-36.571 36.571s-36.571-16.384-36.571-36.571v-51.2c0-20.187 16.311-36.571 36.571-36.571zM518.656 139.264c-20.187 0-36.571-16.457-36.571-36.571v-51.273c0-20.114 16.384-36.571 36.571-36.571s36.571 16.457 36.571 36.571v51.273c0 20.187-16.384 36.571-36.571 36.571zM910.336 482.231h-51.127c-20.187 0-36.571-16.384-36.571-36.571s16.384-36.571 36.571-36.571h51.127c20.261 0 36.571 16.384 36.571 36.571s-16.238 36.571-36.571 36.571zM172.105 482.231h-51.2c-20.114 0-36.571-16.384-36.571-36.571s16.457-36.571 36.571-36.571h51.2c20.187 0 36.571 16.384 36.571 36.571s-16.384 36.571-36.571 36.571zM518.656 957.659c-282.331 0-512-229.669-512-512 0-282.258 229.669-512 512-512s512.073 229.742 512.073 512c0 282.331-229.742 512-512.073 512zM518.656 6.875c-242.030 0-438.857 196.827-438.857 438.857s196.827 438.857 438.857 438.857c242.103 0 438.93-196.827 438.93-438.857s-196.901-438.857-438.93-438.857z" />
<glyph unicode="&#xe973;" glyph-name="eye-closed" d="M160.914 864.914c-14.629 14.629-36.571 14.629-51.2 0s-14.629-36.571 0-51.2l775.314-826.514c7.314-7.314 21.943-14.629 29.257-14.629 14.629 0 21.943 7.314 29.257 14.629 14.629 14.629 14.629 36.571 0 51.2l-782.629 826.514zM621.714 440.686l73.143-65.829c7.314 14.629 7.314 29.257 7.314 43.886-7.314 95.086-80.457 175.543-182.857 175.543-14.629 0-29.257 0-43.886-7.314l65.829-65.829c43.886-7.314 73.143-36.571 80.457-80.457zM570.514 250.514l-58.514 65.829c-51.2 7.314-95.086 43.886-95.086 95.086l-58.514 65.829c-7.314-14.629-14.629-36.571-14.629-58.514 0-95.086 80.457-175.543 175.543-175.543 14.629 0 36.571 0 51.2 7.314zM512 162.743c-204.8 0-380.343 204.8-424.229 263.314 14.629 36.571 65.829 109.714 153.6 168.229l-51.2 58.514c-131.657-95.086-182.857-219.429-182.857-219.429l-7.314-14.629 14.629-14.629c7.314-14.629 219.429-307.2 497.371-307.2 58.514 0 117.029 14.629 175.543 36.571l-58.514 51.2c-36.571-14.629-80.457-21.943-117.029-21.943zM1016.686 440.686c-7.314 0-131.657 314.514-504.686 314.514-65.829 0-124.343-14.629-175.543-29.257l65.829-58.514c36.571 7.314 73.143 14.629 109.714 14.629 277.943 0 394.971-190.171 424.229-248.686-21.943-29.257-73.143-95.086-146.286-153.6l51.2-51.2c102.4 80.457 168.229 168.229 168.229 175.543l14.629 14.629-7.314 21.943z" />
<glyph unicode="&#xe974;" glyph-name="forceOut" d="M95.68 814.656h611.52v64h-675.52v-870.912h675.52v64h-611.52zM737.28 724.608l-45.248-45.248 204.032-204.16h-669.824v-64h670.72l-204.352-204.224 45.248-45.248 281.152 281.024z" />
<glyph unicode="&#xe975;" glyph-name="full-grid" d="M1024-64h-1024v512h1024v-512zM73.143 9.143h877.714v365.714h-877.714v-365.714z" />
<glyph unicode="&#xe976;" glyph-name="full-grid-selected" d="M0 448h1024v-512h-1024v512z" />
<glyph unicode="&#xe977;" glyph-name="gear" d="M358.254-64.073c-17.335 0-34.231 3.95-50.176 11.483l-47.689 22.967c-56.174 26.77-81.335 92.672-56.101 146.725l19.822 42.569c-3.291 3.438-6.583 6.949-9.801 10.606l-41.984-17.627c-53.76-22.821-119.881 6.875-142.994 63.854l-20.407 49.371c-23.552 57.856 1.682 123.538 56.247 146.651l41.618 17.481c-0.585 5.925-0.951 11.922-0.951 17.993s0.366 11.995 0.951 17.847l-41.618 17.481c-54.711 22.821-79.945 88.649-56.174 146.798l20.261 49.445c23.040 56.978 88.795 86.601 142.921 63.854l42.057-17.701c3.218 3.584 6.51 7.095 9.874 10.606l-19.822 42.642c-25.234 53.906 0 119.735 56.174 146.651l47.762 22.821c55.296 26.405 123.611 3.291 148.334-49.737l19.237-41.399c23.479 2.853 48.859 2.853 72.338 0l19.090 41.326c24.795 53.175 93.184 76.215 148.48 49.81l47.689-22.747c56.174-26.917 81.262-92.745 56.174-146.725l-19.749-42.789c3.365-3.438 6.656-6.949 9.874-10.533l42.13 17.774c54.418 22.747 120.027-6.875 142.994-64l20.187-49.225c23.698-57.929-1.536-123.831-56.247-146.798l-41.545-17.554c0.585-5.851 0.951-11.776 0.951-17.847s-0.366-11.995-1.024-17.847l41.472-17.408c54.93-23.333 80.018-89.307 56.101-147.017l-20.041-49.225c-17.774-43.739-58.368-71.899-103.278-71.899v0c-13.751 0-27.136 2.633-39.863 7.973l-41.984 17.701c-3.218-3.584-6.51-7.095-9.874-10.533l19.822-42.789c25.161-54.053-0.073-119.954-56.32-146.651l-47.47-22.894c-55.954-26.624-123.977-3.291-148.553 49.81l-19.163 41.326c-23.259-2.853-49.152-2.853-72.265 0l-19.163-41.326c-17.627-37.742-55.223-61.294-98.304-61.294zM236.251 258.706l17.189-21.723c12.434-15.653 25.6-29.769 39.131-41.911l20.114-18.066-42.203-90.77c-8.338-17.92 1.243-40.229 21.358-49.883l47.835-22.894c19.237-9.216 42.569-2.267 50.395 14.702l42.35 91.136 27.355-4.535c34.085-5.413 69.925-5.339 104.009 0l27.355 4.462 42.277-91.136c7.753-16.896 31.305-23.771 50.615-14.629l47.47 22.894c20.187 9.655 29.769 32.037 21.504 49.957l-42.057 90.917 19.968 18.066c13.751 12.361 26.99 26.478 39.131 41.911l17.262 21.797 92.453-38.912c17.189-7.387 38.766 4.023 47.031 24.064l20.114 49.445c8.704 21.065 1.17 44.178-16.823 51.858l-92.16 38.619 4.681 40.229c1.024 7.826 2.194 15.653 2.194 23.771 0 8.704-1.317 16.896-2.414 25.234l-4.754 38.473 92.672 38.985c17.92 7.534 25.454 30.647 16.823 51.639l-20.261 49.371c-8.119 20.114-29.403 31.451-46.811 24.21l-92.672-38.985-17.189 21.87c-11.995 15.214-25.161 29.33-39.131 41.984l-19.822 18.066 41.984 90.843c8.338 17.993-1.243 40.375-21.285 50.030l-47.689 22.674c-19.529 9.070-42.789 2.341-50.688-14.629l-42.13-91.209-27.429 4.462c-34.011 5.559-69.851 5.559-104.082 0l-27.282-4.462-42.423 91.282c-7.826 16.896-31.086 23.918-50.395 14.555l-47.762-22.821c-20.187-9.655-29.769-31.963-21.431-49.737l42.203-91.063-20.187-18.066c-13.897-12.507-26.77-26.185-39.131-41.838l-17.262-21.943-92.453 38.985c-17.481 7.314-38.766-4.096-46.885-23.991l-20.261-49.591c-8.411-20.626-0.731-44.325 16.75-51.639l92.16-38.766-4.462-40.594c-1.024-7.68-2.121-15.36-2.121-23.406 0-8.265 1.17-16.165 2.194-24.064l4.608-40.082-92.233-38.693c-17.774-7.607-25.454-30.72-16.969-51.639l20.261-49.445c8.192-19.968 29.915-31.525 46.958-24.064l92.453 38.693zM512 179.566c-146.139 0-265.070 120.393-265.070 268.361s118.93 268.434 265.070 268.434c146.066 0 264.85-120.393 264.85-268.434s-118.784-268.361-264.85-268.361zM512 643.218c-105.838 0-191.927-87.625-191.927-195.291s86.089-195.218 191.927-195.218c105.691 0 191.707 87.552 191.707 195.218s-86.016 195.291-191.707 195.291z" />
<glyph unicode="&#xe978;" glyph-name="go" d="M248.686-49.371c-14.629 14.629-14.629 36.571 0 51.2l453.486 446.171-453.486 453.486c-14.629 14.629-14.629 36.571 0 51.2s36.571 14.629 51.2 0l482.743-475.429c0-7.314 7.314-21.943 7.314-29.257s-7.314-21.943-14.629-29.257l-475.429-475.429c-7.314-7.314-21.943-7.314-29.257-7.314s-14.629 0-21.943 14.629z" />
<glyph unicode="&#xe979;" glyph-name="find" d="M1021.074 181.979c0.219 4.242 1.243 8.192 1.243 12.581 0 46.446-13.678 89.527-36.352 126.025l-133.632 527.067-23.113 14.848-26.405 8.265-8.265-1.609-4.901 51.2-9.947 16.53-13.239 6.583-127.269-1.755-14.848-8.265-4.901-8.265-5.047-54.491c0 0-13.239-1.609-28.087-14.848-14.848-13.166-14.848-13.166-14.848-13.166l-0.731-82.578h-117.467l-0.731 82.578c0 0 0 0-14.848 13.166-14.921 13.239-28.087 14.848-28.087 14.848l-5.047 54.491-4.901 8.265-14.921 8.265-127.122 1.682-13.239-6.583-9.874-16.53-4.901-51.2-8.338 1.609-26.405-8.192-23.113-14.921-133.632-526.994c-22.821-36.498-36.425-79.579-36.425-126.025 0-4.389 1.024-8.338 1.243-12.581l-2.926-11.557 4.169-0.146c12.142-119.442 110.007-212.919 230.254-212.919 128.731 0 233.033 106.203 233.033 237.202 0 22.016-3.877 42.862-9.435 62.976l-2.341 236.617h112.64l-2.341-236.617c-5.559-20.114-9.435-41.033-9.435-62.976 0-130.999 104.302-237.202 233.033-237.202 120.32 0 218.112 93.477 230.327 212.919l4.096 0.146-2.926 11.557zM234.423 4.681c-102.693 0-186.295 84.992-186.295 189.879 0 104.667 83.602 189.659 186.295 189.659 103.131 0 186.661-84.992 186.661-189.659 0-104.814-83.529-189.879-186.661-189.879zM789.577 4.681c-103.131 0-186.661 84.992-186.661 189.879 0 104.667 83.529 189.659 186.661 189.659 102.693 0 186.295-84.992 186.295-189.659 0-104.814-83.602-189.879-186.295-189.879zM100.864 191.634c0-70.656 50.322-130.56 120.613-154.185-57.198 32.037-95.525 88.357-95.525 152.795 0 69.047 44.251 128.366 108.544 158.866-77.093-20.187-133.632-82.651-133.632-157.477zM786.139 349.038c64.366-30.501 108.617-89.819 108.617-158.866 0-64.439-38.254-120.759-95.525-152.795 70.363 23.625 120.539 83.602 120.539 154.185 0.073 74.898-56.466 137.362-133.632 157.477z" />
<glyph unicode="&#xe97a;" glyph-name="fobidden" d="M512 960c-285.257 0-512-226.743-512-512s226.743-512 512-512 512 226.743 512 512-226.743 512-512 512zM512 9.143c-241.371 0-438.857 197.486-438.857 438.857s197.486 438.857 438.857 438.857 438.857-197.486 438.857-438.857-197.486-438.857-438.857-438.857zM768 484.571h-512c-21.943 0-36.571-14.629-36.571-36.571s14.629-36.571 36.571-36.571h512c21.943 0 36.571 14.629 36.571 36.571s-14.629 36.571-36.571 36.571z" />
<glyph unicode="&#xe97b;" glyph-name="fold" d="M1024 455.314c0-7.314 0-21.943-7.314-29.257l-475.429-482.743c-7.314 0-21.943-7.314-29.257-7.314s-21.943 7.314-29.257 7.314l-475.429 482.743c-7.314 14.629-7.314 36.571 0 51.2 14.629 14.629 36.571 14.629 51.2 0l453.486-453.486 446.171 453.486c14.629 14.629 36.571 14.629 51.2 0 14.629-7.314 14.629-14.629 14.629-21.943z" />
<glyph unicode="&#xe97c;" glyph-name="folder" d="M1024-64h-1024v950.857h460.8l109.714-146.286h453.486v-804.571zM73.143 9.143h877.714v658.286h-424.229l-102.4 146.286h-351.086v-804.571z" />
<glyph unicode="&#xe97d;" glyph-name="folderOpen" d="M1024 528.457h-855.771l-95.086-336.457v621.714h351.086l109.714-146.286h270.629v-73.143h73.143v146.286h-314.514l-102.4 146.286h-460.8v-958.171l7.314 7.314h848.457l168.229 592.457zM95.086 9.143l131.657 446.171h702.171l-124.343-446.171h-709.486z" />
<glyph unicode="&#xe97e;" glyph-name="drill" d="M296.96 663.113c0-82.003-66.477-148.48-148.48-148.48s-148.48 66.477-148.48 148.48c0 82.003 66.477 148.48 148.48 148.48s148.48-66.477 148.48-148.48zM551.936 152.21c0-82.003-66.477-148.48-148.48-148.48s-148.48 66.477-148.48 148.48c0 82.003 66.477 148.48 148.48 148.48s148.48-66.477 148.48-148.48zM930.158 648.192c0-91.496-74.172-165.669-165.669-165.669s-165.669 74.172-165.669 165.669c0 91.496 74.172 165.669 165.669 165.669s165.669-74.172 165.669-165.669zM1024 175.982c0-73.803-59.829-133.632-133.632-133.632s-133.632 59.829-133.632 133.632c0 73.803 59.829 133.632 133.632 133.632s133.632-59.829 133.632-133.632zM732.286 597.973l55.324 19.275 166.956-479.199-55.324-19.275-166.956 479.199zM812.421 734.786l46.39-35.785-460.695-597.214-46.39 35.785 460.695 597.214zM112.914 659.524l52.061 26.868 293.504-568.704-52.061-26.868-293.504 568.704z" />
<glyph unicode="&#xe97f;" glyph-name="empty" d="M490.639 704.031l-457.452-128.548 31.401-141.455-2.253 0.481v-3.779l-45.338-141.681 402.376-96.333 77.45 145.454 1.884 3.779-411.1 87.199 434.191 129.428zM62.336 258.381v-205.455l436.372-115.231v359.347l-66.514-126.766zM531.937 340.26l1.889-3.779 77.445-145.459 402.381 96.338-45.348 141.681v3.779l-1.367-0.287 33.623 151.404-447.601 120.095-31.16-145.454 442.87-126.525zM531.937 295.352v-359.352l436.367 115.236v205.455l-369.848-88.1z" />
<glyph unicode="&#xe980;" glyph-name="executNext" d="M155.429 717.824v-498.834l416.695 249.417zM937.984 286.647h-407.698l203.849-185.783zM820.005 309.833h-171.593v462.702h171.593v-462.702zM721.554 382.976h25.307v316.416h-25.307v-316.416zM785.408 960h-546.889c-131.511 0-238.519-106.715-238.519-237.934v-548.206c0-131.145 107.008-237.861 238.519-237.861h546.889c131.584 0 238.592 106.715 238.592 237.861v548.206c0 131.218-107.008 237.934-238.592 237.934zM950.857 173.861c0-90.843-74.313-164.718-165.449-164.718h-546.889c-91.209 0-165.376 73.874-165.376 164.718v548.206c0 90.843 74.167 164.791 165.376 164.791h546.889c91.136 0 165.449-73.947 165.449-164.791v-548.206z" />
<glyph unicode="&#xe981;" glyph-name="export" d="M928.914-49.371h-833.829c-21.943 0-36.571 14.629-36.571 36.571v548.571c0 21.943 14.629 36.571 36.571 36.571s36.571-14.629 36.571-36.571v-512h760.686v512c0 21.943 14.629 36.571 36.571 36.571s36.571-14.629 36.571-36.571v-548.571c0-21.943-14.629-36.571-36.571-36.571zM329.143 155.429c0 14.629-21.943 307.2 153.6 490.057 95.086 102.4 226.743 153.6 387.657 153.6 21.943 0 36.571-14.629 36.571-36.571s-14.629-36.571-36.571-36.571c-146.286 0-256-43.886-336.457-131.657-153.6-168.229-131.657-438.857-131.657-438.857 0-21.943-7.314-36.571-36.571-36.571 0 0-36.571 0-36.571 36.571zM731.429 455.314c-7.314 0-14.629 0-21.943 7.314-14.629 7.314-21.943 29.257-14.629 51.2l153.6 256-299.886 87.771c-21.943 7.314-29.257 21.943-21.943 43.886s21.943 29.257 43.886 21.943l351.086-102.4c7.314 0 21.943-14.629 21.943-21.943 7.314-7.314 0-21.943 0-29.257l-175.543-299.886c-7.314-14.629-21.943-14.629-36.571-14.629z" />
<glyph unicode="&#xe982;" glyph-name="export-ne" d="M768 491.886l175.543 299.886c0 7.314 7.314 21.943 0 29.257 0 7.314-14.629 21.943-21.943 21.943l-351.086 102.4c-21.943 7.314-36.571 0-43.886-21.943s0-36.571 21.943-43.886l226.743-65.829c-117.029-21.943-219.429-65.829-292.571-146.286-175.543-182.857-153.6-475.429-153.6-490.057 0-21.943 14.629-36.571 36.571-36.571 29.257 0 43.886 14.629 36.571 36.571 0 0-21.943 270.629 131.657 438.857 73.143 80.457 168.229 117.029 285.257 124.343l-124.343-204.8c-7.314-21.943 0-43.886 14.629-51.2 7.314-7.314 14.629-7.314 21.943-7.314 14.629 0 29.257 0 36.571 14.629zM936.229 352.914c-21.943 0-36.571-14.629-36.571-36.571v-212.114l-160.914 234.057c-14.629 14.629-29.257 21.943-43.886 14.629s-21.943-21.943-21.943-36.571v-329.143c0-21.943 14.629-36.571 36.571-36.571s36.571 14.629 36.571 36.571v212.114l160.914-234.057c7.314-7.314 21.943-14.629 29.257-14.629 0 0 7.314 0 7.314 0 14.629 7.314 29.257 21.943 29.257 36.571v329.143c0 21.943-14.629 36.571-36.571 36.571zM592.457 45.714h-468.114v512c0 21.943-14.629 36.571-36.571 36.571s-36.571-21.943-36.571-43.886v-541.257c0-21.943 14.629-36.571 36.571-36.571h497.371c21.943 0 36.571 14.629 36.571 36.571s-14.629 36.571-29.257 36.571z" />
<glyph unicode="&#xe983;" glyph-name="eye" d="M1016.686 491.886c-7.314 0-131.657 314.514-504.686 314.514s-504.686-314.514-504.686-314.514l-7.314-21.943 14.629-14.629c7.314-14.629 219.429-307.2 497.371-307.2s490.057 292.571 497.371 307.2l14.629 14.629-7.314 21.943zM512 221.257c-204.8 0-380.343 204.8-424.229 263.314 29.257 58.514 146.286 248.686 424.229 248.686s394.971-190.171 424.229-248.686c-43.886-65.829-219.429-263.314-424.229-263.314zM519.314 652.8c-95.086 0-175.543-80.457-175.543-175.543s80.457-175.543 175.543-175.543 175.543 80.457 175.543 175.543-73.143 175.543-175.543 175.543zM519.314 374.857c-58.514 0-102.4 43.886-102.4 102.4s43.886 102.4 102.4 102.4 102.4-43.886 102.4-102.4-43.886-102.4-102.4-102.4z" />
<glyph unicode="&#xe984;" glyph-name="file" d="M760.686 835.657v124.343h-687.543v-1024h877.714v899.657h-190.171zM877.714 9.143h-731.429v877.714h541.257v-124.343h190.171v-753.371zM292.571 667.429h285.257v-73.143h-285.257v73.143zM292.571 448h438.857v-73.143h-438.857v73.143zM292.571 228.571h438.857v-73.143h-438.857v73.143z" />
</font>
</defs>
</svg>
