<svg version="1.1" xmlns="http://www.w3.org/2000/svg" viewBox="0 0 30 30">
    <style type="text/css">
        .st0{fill:#00ABFF;}
    </style>
    <g>
        <path class="st0" d="M24,29H6c-2.8,0-5-2.2-5-5V6c0-2.8,2.2-5,5-5h18c2.8,0,5,2.2,5,5v18C29,26.8,26.8,29,24,29z M6,3
		C4.3,3,3,4.3,3,6v18c0,1.7,1.3,3,3,3h18c1.7,0,3-1.3,3-3V6c0-1.7-1.3-3-3-3H6z"/>
	<path class="st0" d="M7.6,14.5h7.5c0.5,0,0.8-0.4,0.8-1s-0.3-1-0.8-1H7.6c-0.5,0-0.8,0.4-0.8,1S7.1,14.5,7.6,14.5z"/>
	<path class="st0" d="M7.6,18.7h3.7c0.5,0,0.8-0.4,0.8-1s-0.3-1-0.8-1H7.6c-0.5,0-0.8,0.4-0.8,1S7.1,18.7,7.6,18.7z"/>
	<path class="st0" d="M7.6,10.4H19c0.5,0,0.8-0.4,0.8-1s-0.3-1-0.8-1H7.6c-0.5,0-0.8,0.4-0.8,1S7.1,10.4,7.6,10.4z"/>
	<path class="st0" d="M18.7,21.6C18.7,21.6,18.7,21.6,18.7,21.6c0.4-0.1,1.4,0.6,1.5,0.7c0.3,0.2,0.7,0.3,1.2,0.3
		c0.6,0,1-0.1,1.3-0.3c0.2-0.2,0.3-0.4,0.3-0.6c0-0.2-0.1-0.3-0.2-0.4c-0.1-0.1-0.4-0.2-0.8-0.3c-1.8-0.4-3-0.8-3.5-1.1
		c-0.7-0.5-1-1.1-1-1.9c0-0.7,0.3-1.4,0.9-1.9c0.6-0.5,1.5-0.8,2.7-0.8c1.2,0,2,0.3,2.6,0.6c0.4,0.3,0.7,0.5,0.9,0.9
		c0.2,0.3,0.1,0.7-0.3,0.9c-0.2,0.1-0.7,0.4-1,0.2c-0.3-0.2-0.8-0.5-1.1-0.7c-0.3-0.2-0.6-0.3-1.1-0.3c-0.6,0-1,0.1-1.3,0.3
		c-0.2,0.1-0.3,0.3-0.3,0.5c0,0.2,0.1,0.3,0.2,0.4c0.2,0.2,0.9,0.4,2.1,0.6c1.2,0.3,2,0.6,2.5,1c0.5,0.4,0.7,1,0.7,1.7
		c0,0.8-0.3,1.5-1,2c-0.7,0.6-1.6,0.8-2.9,0.8c-1.2,0-2.1-0.2-2.8-0.7c-0.2-0.1-0.4-0.3-0.5-0.4C17.6,22.5,17.9,21.7,18.7,21.6z"/>
    </g>
</svg>