<svg version="1.1" xmlns="http://www.w3.org/2000/svg" viewBox="0 0 30 30">
    <g>
        <path class="st0" d="M24,29H6c-2.8,0-5-2.2-5-5V6c0-2.8,2.2-5,5-5h18c2.8,0,5,2.2,5,5v18C29,26.8,26.8,29,24,29z M6,3
                        C4.3,3,3,4.3,3,6v18c0,1.7,1.3,3,3,3h18c1.7,0,3-1.3,3-3V6c0-1.7-1.3-3-3-3H6z" />
        <path class="st0" d="M7.6,14.5h7.5c0.5,0,0.8-0.4,0.8-1s-0.3-1-0.8-1H7.6c-0.5,0-0.8,0.4-0.8,1S7.1,14.5,7.6,14.5z" />
        <path class="st0" d="M7.6,18.7h3.7c0.5,0,0.8-0.4,0.8-1s-0.3-1-0.8-1H7.6c-0.5,0-0.8,0.4-0.8,1S7.1,18.7,7.6,18.7z" />
        <path class="st0" d="M7.6,10.4H19c0.5,0,0.8-0.4,0.8-1s-0.3-1-0.8-1H7.6c-0.5,0-0.8,0.4-0.8,1S7.1,10.4,7.6,10.4z" />
        <path class="st0" d="M24.7,15.1h-5c-0.6,0-1,0.4-1,1c0,0.6,0.4,1,1,1h1.5v5.7c0,0.6,0.4,1,1,1s1-0.4,1-1v-5.7h1.5c0.6,0,1-0.4,1-1
                        C25.7,15.5,25.2,15.1,24.7,15.1z" />
    </g>
</svg>