<?xml version="1.0" encoding="utf-8"?>
<!-- Generator: Adobe Illustrator 21.0.2, SVG Export Plug-In . SVG Version: 6.00 Build 0)  -->
<svg version="1.1" id="back_1_" opacity="0.9" xmlns="http://www.w3.org/2000/svg" xmlns:xlink="http://www.w3.org/1999/xlink"
	 x="0px" y="0px" viewBox="0 0 40 40" style="enable-background:new 0 0 40 40;" xml:space="preserve">
<style type="text/css">
	.st0{fill:#7C868D;}
</style>
<g id="back">
	<g>
		<path class="st0" d="M30,0H10C4.5,0,0,4.5,0,10v20c0,5.5,4.5,10,10,10h20c5.5,0,10-4.5,10-10V10C40,4.5,35.5,0,30,0z M28.7,21.7
			c-0.4,0.4-1,0.4-1.4,0L21,15.4V31c0,0.6-0.4,1-1,1s-1-0.4-1-1V15.4l-5.8,5.8c-0.4,0.4-1,0.4-1.4,0c-0.4-0.4-0.4-1,0-1.4l7.1-7.1
			c0.4-0.4,0.5-0.8,1.2-0.8c0.7,0,1.2,0.7,1.7,1.3l7,7C29.1,20.7,29.1,21.3,28.7,21.7z M30,10H11c-0.6,0-1-0.4-1-1s0.4-1,1-1h19
			c0.6,0,1,0.4,1,1S30.6,10,30,10z"/>
	</g>
</g>
</svg>
