<svg version="1.1" xmlns="http://www.w3.org/2000/svg" viewBox="0 0 30 30">
    <style type="text/css">
        .st0{fill:#00ABFF;}
    </style>

    <g>
        <path class="st0" d="M24,1H6C3.2,1,1,3.2,1,6v18c0,2.8,2.2,5,5,5h18c2.8,0,5-2.2,5-5V6C29,3.2,26.8,1,24,1z M16.9,3.4
                        c0.5,0,0.9,0.2,1.3,0.5c0.4,0.4,0.5,0.8,0.5,1.3c0,0.5-0.2,0.9-0.5,1.3L17.7,7l-5.3,5.3c-0.2-0.6-0.5-1.2-0.9-1.6
                        c-0.4-0.4-1-0.8-1.6-0.9l5.8-5.8C16,3.6,16.4,3.4,16.9,3.4z M10.3,27H6c-1.7,0-3-1.3-3-3V6c0-1.7,1.3-3,3-3h8.2l-7.4,7.4
                        c-0.1,0.1-0.2,0.2-0.3,0.3c-0.7,0.7-1,1.6-1,2.5c0,0.9,0.4,1.8,1,2.5l5.2,5.2l-1.3,1.3c-0.7,0.7-1,1.6-1,2.5
                        C9.3,25.5,9.7,26.4,10.3,27z M14.1,25.9c-0.4,0.4-0.8,0.5-1.3,0.5c-0.5,0-0.9-0.2-1.3-0.5c-0.4-0.4-0.5-0.8-0.5-1.3
                        c0-0.5,0.2-0.9,0.5-1.3l1.3-1.3l0.5,0.5l0.8,0.8c0.4,0.4,0.5,0.8,0.5,1.3C14.6,25.1,14.5,25.5,14.1,25.9z M14.5,21.3l-6.8-6.8
                        c-0.4-0.4-0.5-0.8-0.5-1.3c0-0.5,0.2-0.9,0.5-1.3c0.4-0.4,0.8-0.5,1.3-0.5c0.5,0,0.9,0.2,1.3,0.5c0.4,0.4,0.5,0.8,0.5,1.3
                        c0,0.5-0.2,0.9-0.5,1.3l0.9,0.9c0.2,0.2,0.4,0.2,0.6,0l5.2-5.2l4.4,4.4l0.8,0.8c0.4,0.4,0.5,0.8,0.5,1.3c0,0.5-0.2,0.9-0.5,1.3v0
                        l-5.8,5.8c-0.1-0.6-0.5-1.2-0.9-1.6L14.5,21.3z M27,24c0,1.7-1.3,3-3,3h-8.6l7.9-7.9c0.7-0.7,1-1.6,1-2.5c0-0.9-0.4-1.8-1-2.5
                        l-0.8-0.8L18.1,9l1.3-1.3c0.7-0.7,1-1.6,1-2.5c0-0.8-0.3-1.6-0.8-2.2H24c1.7,0,3,1.3,3,3V24z" />
        <path class="st0" d="M17.2,12.4c-0.3-0.3-0.8-0.3-1.1,0L12.6,16c-0.3,0.3-0.3,0.8,0,1.1c0.1,0.1,0.3,0.2,0.5,0.2s0.4-0.1,0.5-0.2
                        l3.6-3.6C17.5,13.1,17.5,12.7,17.2,12.4z" />
        <path class="st0" d="M18.9,14.2c-0.3-0.3-0.8-0.3-1.1,0l-3.6,3.6c-0.3,0.3-0.3,0.8,0,1.1c0.1,0.1,0.3,0.2,0.5,0.2
                        c0.2,0,0.4-0.1,0.5-0.2l3.6-3.6C19.2,14.9,19.2,14.4,18.9,14.2z" />
        <path class="st0" d="M17.1,20.6l3.6-3.6c0.3-0.3,0.3-0.8,0-1.1s-0.8-0.3-1.1,0L16,19.5c-0.3,0.3-0.3,0.8,0,1.1
                        c0.1,0.1,0.3,0.2,0.5,0.2S17,20.7,17.1,20.6z" />
    </g>
</svg>